<?xml version="1.0" encoding="utf-8"?>
<!-- Generator: Adobe Illustrator 25.2.3, SVG Export Plug-In . SVG Version: 6.00 Build 0)  -->
<svg version="1.1" id="OBJECTS" xmlns="http://www.w3.org/2000/svg" xmlns:xlink="http://www.w3.org/1999/xlink" x="0px" y="0px"
	 viewBox="0 0 500 500" style="enable-background:new 0 0 500 500;" xml:space="preserve">
<style type="text/css">
	.st0{fill:#BBEBFB;}
	.st1{fill:none;}
	.st2{fill:#B5C1C6;}
	.st3{fill:#C7D2D7;}
	.st4{fill:#DFE7EA;}
	.st5{opacity:0.2;fill:#455A64;}
	.st6{fill:#FFFFFF;}
	.st7{fill:#D5FBFC;}
	.st8{fill:#AEDBE5;}
	.st9{fill:#D9F2F9;}
	.st10{enable-background:new    ;}
	.st11{fill:#9CAAD1;}
	.st12{fill:#6680B1;}
	.st13{fill:#A34262;}
	.st14{fill:#FF7373;}
	.st15{fill:#5E72AC;}
	.st16{fill:#FF9F55;}
	.st17{fill:#FFC77E;}
	.st18{fill:#3C3970;}
	.st19{fill:none;stroke:#FFFFFF;stroke-width:0;stroke-linecap:round;stroke-linejoin:round;}
	.st20{fill:#4D578F;}
	.st21{opacity:0.2;fill:#FFFFFF;}
	.st22{fill:#FF634C;}
	.st23{fill:#5D71AB;}
	.st24{opacity:0.2;}
	.st25{fill:#E5B7A1;}
</style>
<g>
	<g>
		
			<ellipse transform="matrix(2.835371e-03 -1 1 2.835371e-03 -86.89 585.2243)" class="st0" cx="250" cy="336.2" rx="137.8" ry="237.9"/>
	</g>
	<g>
		<g>
			<g>
				<path class="st1" d="M260.3,72.6c0,0.2,0.1,0.4,0.2,0.6C260.4,73,260.4,72.8,260.3,72.6z"/>
				<polygon class="st1" points="298.3,83.6 298.3,83.6 298.3,83.6 				"/>
				<path class="st1" d="M298.9,88.5C298.9,88.5,298.9,88.5,298.9,88.5c0-0.2,0-0.4,0-0.6c0,0,0,0,0,0
					C298.9,88.1,298.9,88.3,298.9,88.5z"/>
				<path class="st1" d="M265,82.8c0.1,0.2,0.2,0.3,0.3,0.5C265.3,83.1,265.1,83,265,82.8z"/>
				<path class="st1" d="M260.2,65.2c0,0.1-0.1,0.3-0.1,0.4C260.1,65.5,260.1,65.4,260.2,65.2z"/>
				<path class="st1" d="M260.5,64.1c0,0.1-0.1,0.3-0.1,0.4C260.4,64.4,260.4,64.3,260.5,64.1z"/>
				<path class="st1" d="M261.4,62.3c-0.1,0.1-0.1,0.2-0.2,0.3C261.3,62.5,261.3,62.4,261.4,62.3z"/>
				<path class="st1" d="M260.9,63.1c-0.1,0.1-0.1,0.2-0.2,0.4C260.8,63.4,260.8,63.3,260.9,63.1z"/>
				<path class="st1" d="M280.7,90.3C280.7,90.3,280.7,90.3,280.7,90.3C280.7,90.3,280.7,90.3,280.7,90.3z"/>
				<path class="st1" d="M263,60.6c-0.1,0.1-0.2,0.2-0.4,0.3C262.8,60.8,262.9,60.7,263,60.6z"/>
				<path class="st1" d="M262,61.5c-0.1,0.1-0.1,0.1-0.2,0.2C261.9,61.7,261.9,61.6,262,61.5z"/>
				<path class="st1" d="M298.8,94.2c0.1-1.1,0.2-2.2,0.2-3.4c0,0,0,0,0,0c0,0,0,0,0,0C299,92,298.9,93.1,298.8,94.2z"/>
				<path class="st1" d="M261.1,40.8C261.1,40.8,261.1,40.8,261.1,40.8c-0.2,0-0.3,0-0.5,0l0,0C260.7,40.8,260.9,40.8,261.1,40.8z"
					/>
				<path class="st1" d="M259.4,40.8C259.4,40.8,259.4,40.8,259.4,40.8c-0.2,0-0.3,0-0.5,0c0,0,0,0,0,0
					C259.1,40.8,259.3,40.8,259.4,40.8z"/>
				<path class="st1" d="M257.7,40.9C257.7,40.9,257.7,40.9,257.7,40.9c-0.1,0-0.2,0-0.2,0c0,0,0,0,0,0
					C257.5,41,257.6,41,257.7,40.9z"/>
				<path class="st1" d="M254.8,41.7c-0.3,0.1-0.6,0.2-0.9,0.4C254.2,42,254.5,41.9,254.8,41.7C254.8,41.7,254.8,41.7,254.8,41.7z"
					/>
				<path class="st1" d="M261.8,40.8c0.3,0,0.6,0.1,0.9,0.1C262.3,40.9,262,40.9,261.8,40.8z"/>
				<path class="st1" d="M290.4,63.2c-0.3-0.5-0.6-1-1-1.5c0,0,0,0,0,0C289.8,62.2,290.1,62.7,290.4,63.2z"/>
				<path class="st1" d="M281.4,51.6C281.4,51.6,281.4,51.6,281.4,51.6c-0.4-0.4-0.8-0.8-1.3-1.2l10.7-6.2l-10.7,6.2
					C280.5,50.8,280.9,51.2,281.4,51.6z"/>
				<path class="st1" d="M284.2,54.6L284.2,54.6c-0.2-0.2-0.4-0.4-0.6-0.7c0,0,0,0,0,0C283.8,54.2,284,54.4,284.2,54.6z"/>
				<path class="st1" d="M282.8,53.1C282.8,53.1,282.8,53.1,282.8,53.1c-0.2-0.2-0.4-0.4-0.6-0.7c0,0,0,0,0,0
					C282.4,52.6,282.6,52.9,282.8,53.1z"/>
				<path class="st1" d="M288.1,59.6C288.1,59.6,288.1,59.6,288.1,59.6c-0.1-0.1-0.1-0.2-0.2-0.3c0,0,0,0,0,0
					C288,59.5,288,59.5,288.1,59.6z"/>
				<path class="st1" d="M286.4,57.3c-0.1-0.1-0.2-0.3-0.3-0.4c0,0,0,0,0,0C286.2,57.1,286.3,57.2,286.4,57.3z"/>
				<path class="st1" d="M256.1,41.3c-0.1,0-0.2,0.1-0.2,0.1C255.9,41.3,256,41.3,256.1,41.3C256.1,41.3,256.1,41.3,256.1,41.3z"/>
				<path class="st1" d="M264.4,81.9c-0.1-0.1-0.2-0.2-0.2-0.4c0,0,0,0,0,0C264.3,81.7,264.3,81.8,264.4,81.9z"/>
				<path class="st1" d="M263.4,80.3c0-0.1-0.1-0.1-0.1-0.2c0,0,0,0,0,0C263.3,80.2,263.4,80.3,263.4,80.3z"/>
				<path class="st1" d="M262.7,79C262.7,79,262.7,79,262.7,79c-0.1-0.1-0.1-0.2-0.2-0.4c0,0,0,0,0,0
					C262.6,78.8,262.6,78.9,262.7,79z"/>
				<path class="st1" d="M266.4,84.6C266.4,84.6,266.4,84.6,266.4,84.6c-0.2-0.2-0.3-0.4-0.5-0.6c0,0,0,0,0,0
					C266.1,84.2,266.2,84.4,266.4,84.6z"/>
				<path class="st1" d="M262,77.4c0-0.1,0-0.1-0.1-0.1C261.9,77.3,261.9,77.4,262,77.4C262,77.4,262,77.4,262,77.4z"/>
				<path class="st1" d="M267.7,86C267.7,86,267.7,86,267.7,86c-0.3-0.3-0.5-0.6-0.8-0.9c0,0,0,0,0,0
					C267.1,85.4,267.4,85.7,267.7,86z"/>
				<path class="st1" d="M259.9,70C259.9,70,259.9,70,259.9,70c-0.1-0.6-0.1-1.2-0.1-1.8c0,0.4,0,0.9,0.1,1.4
					C259.9,69.7,259.9,69.9,259.9,70z"/>
				<path class="st1" d="M261.3,75.9C261.3,75.9,261.3,75.9,261.3,75.9c-0.1-0.1-0.1-0.3-0.1-0.4c0,0,0,0,0,0
					C261.2,75.7,261.3,75.8,261.3,75.9z"/>
				<path class="st1" d="M260.2,71.9c-0.1-0.3-0.1-0.7-0.2-1C260.1,71.2,260.1,71.6,260.2,71.9C260.2,71.9,260.2,71.9,260.2,71.9z"
					/>
				<path class="st1" d="M268.6,86.9c-0.1-0.1-0.3-0.3-0.4-0.4v0C268.4,86.6,268.5,86.7,268.6,86.9z"/>
				<path class="st1" d="M259.9,66.5c0,0.1,0,0.3-0.1,0.4C259.9,66.8,259.9,66.6,259.9,66.5z"/>
				<path class="st1" d="M260.9,74.6C260.9,74.6,260.9,74.6,260.9,74.6c-0.1-0.2-0.1-0.3-0.2-0.5c0,0,0,0,0,0
					C260.8,74.2,260.8,74.4,260.9,74.6z"/>
				<path class="st1" d="M274.6,90.6C274.5,90.6,274.5,90.5,274.6,90.6C274.5,90.5,274.5,90.6,274.6,90.6
					C274.5,90.6,274.5,90.6,274.6,90.6z"/>
				<path class="st1" d="M279.1,90.9c-0.1,0-0.1,0-0.2,0c0,0,0,0,0,0C278.9,91,279,90.9,279.1,90.9z"/>
				<path class="st1" d="M278,91.1c-0.1,0-0.1,0-0.2,0c0,0,0,0,0.1,0C277.8,91.1,277.9,91.1,278,91.1z"/>
				<path class="st1" d="M276,90.9c-0.2,0-0.3-0.1-0.5-0.1c0,0,0,0,0,0C275.7,90.9,275.8,90.9,276,90.9z"/>
				<path class="st1" d="M277,91.1c-0.1,0-0.2,0-0.4,0c0,0,0,0,0,0C276.8,91,276.9,91.1,277,91.1z"/>
				<path class="st1" d="M280,90.7c-0.1,0-0.1,0.1-0.2,0.1c0,0,0,0,0,0C279.8,90.7,279.9,90.7,280,90.7z"/>
				<path class="st1" d="M283.9,83.8c-0.4-0.2-0.7-0.4-1.1-0.6c-0.4-0.2-0.8-0.5-1.2-0.7c-0.1-0.1-0.2-0.2-0.4-0.3
					c-0.3-0.2-0.5-0.4-0.8-0.6c-0.1-0.1-0.3-0.2-0.4-0.3c-0.2-0.2-0.5-0.4-0.7-0.6c-0.1-0.1-0.3-0.3-0.4-0.4
					c-0.2-0.2-0.3-0.3-0.5-0.5c-0.3-0.3-0.5-0.6-0.8-0.9c-0.2-0.2-0.3-0.4-0.5-0.5c-0.2-0.2-0.3-0.4-0.5-0.6
					c-0.2-0.2-0.4-0.5-0.6-0.7c-0.1-0.2-0.2-0.3-0.3-0.5c-0.2-0.3-0.4-0.6-0.6-0.9c-0.1-0.1-0.2-0.2-0.2-0.4
					c-0.3-0.4-0.5-0.8-0.8-1.3c0-0.1-0.1-0.1-0.1-0.2c-0.2-0.4-0.4-0.7-0.6-1.1c-0.1-0.1-0.1-0.2-0.2-0.4c-0.2-0.4-0.4-0.8-0.6-1.2
					c0-0.1,0-0.1-0.1-0.1c-0.2-0.4-0.4-0.9-0.5-1.3c-0.1-0.1-0.1-0.3-0.1-0.4c-0.1-0.3-0.2-0.7-0.3-1c-0.1-0.2-0.1-0.3-0.2-0.5
					c-0.1-0.3-0.2-0.6-0.2-0.9c-0.1-0.2-0.1-0.4-0.2-0.6c-0.1-0.2-0.1-0.4-0.1-0.7c-0.1-0.3-0.1-0.7-0.2-1c0-0.3-0.1-0.6-0.1-0.9
					c0-0.1,0-0.3,0-0.4c0-0.5-0.1-0.9-0.1-1.4c0-0.5,0-1.1,0.1-1.6c0.5,0.2,1,0.5,1.5,0.8c6.8,3.9,12.3,13.4,12.2,21.2
					c0,0.5,0,1.1-0.1,1.6c0,0-0.1,0-0.1,0C284.1,83.9,284,83.8,283.9,83.8z"/>
				<path class="st1" d="M269.7,87.8c0.3,0.2,0.5,0.4,0.8,0.6c0.1,0.1,0.2,0.2,0.4,0.3c0.4,0.3,0.8,0.5,1.2,0.7
					c-1.1-0.6-2.1-1.4-3.1-2.3c0.1,0.1,0.3,0.2,0.4,0.3C269.5,87.6,269.6,87.7,269.7,87.8z"/>
				<path class="st1" d="M273.5,90.1c-0.5-0.2-0.9-0.4-1.4-0.7c0.4,0.2,0.8,0.4,1.1,0.6C273.3,90,273.4,90.1,273.5,90.1z"/>
				<path class="st2" d="M239.2,69.6l6.5-3.8c0.1,0.4,0.1,0.9,0.2,1.3L239.2,69.6z"/>
				<path class="st2" d="M289.7,108.8l-0.6,3.4l-10.7,6.2l1.5-9C283.6,110.2,286.9,110,289.7,108.8z"/>
				<path class="st2" d="M259.9,66.5c0-0.3,0.1-0.6,0.1-0.8c0-0.2,0.1-0.3,0.1-0.4c0.1-0.2,0.1-0.5,0.2-0.7c0-0.1,0.1-0.3,0.1-0.4
					c0.1-0.2,0.2-0.4,0.2-0.6c0.1-0.1,0.1-0.3,0.2-0.4c0.1-0.2,0.2-0.4,0.3-0.6c0.1-0.1,0.1-0.2,0.2-0.3c0.1-0.2,0.3-0.4,0.4-0.6
					c0.1-0.1,0.1-0.1,0.2-0.2c0.2-0.2,0.4-0.4,0.7-0.6c0.1-0.1,0.2-0.2,0.4-0.3c1.9-1.4,4.6-1.5,7.6-0.2c-0.1,0.5-0.1,1-0.1,1.6
					c0,0.4,0,0.9,0.1,1.4c0,0.1,0,0.3,0,0.4c0,0.3,0.1,0.6,0.1,0.9c0,0.3,0.1,0.7,0.2,1c0,0.2,0.1,0.4,0.1,0.7
					c0,0.2,0.1,0.4,0.2,0.6c0.1,0.3,0.1,0.6,0.2,0.9c0,0.2,0.1,0.3,0.2,0.5c0.1,0.3,0.2,0.7,0.3,1c0,0.1,0.1,0.3,0.1,0.4
					c0.2,0.5,0.3,0.9,0.5,1.3c0,0.1,0,0.1,0.1,0.1c0.2,0.4,0.4,0.8,0.6,1.2c0.1,0.1,0.1,0.2,0.2,0.4c0.2,0.4,0.4,0.7,0.6,1.1
					c0,0.1,0.1,0.1,0.1,0.2c0.2,0.4,0.5,0.8,0.8,1.3c0.1,0.1,0.2,0.2,0.2,0.4c0.2,0.3,0.4,0.6,0.6,0.9c0.1,0.2,0.2,0.3,0.3,0.5
					c0.2,0.2,0.4,0.5,0.6,0.7c0.2,0.2,0.3,0.4,0.5,0.6c0.2,0.2,0.3,0.4,0.5,0.5c0.3,0.3,0.5,0.6,0.8,0.9c0.2,0.2,0.3,0.4,0.5,0.5
					c0.1,0.1,0.3,0.3,0.4,0.4c0.2,0.2,0.5,0.4,0.7,0.6c0.1,0.1,0.3,0.2,0.4,0.3c0.3,0.2,0.5,0.4,0.8,0.6c0.1,0.1,0.2,0.2,0.4,0.3
					c0.4,0.3,0.8,0.5,1.2,0.7c0.4,0.2,0.8,0.4,1.1,0.6c0.1,0,0.2,0.1,0.3,0.1c0,0,0.1,0,0.1,0c-0.3,3.1-1.6,5.2-3.5,6.3c0,0,0,0,0,0
					c-0.3,0.1-0.5,0.3-0.8,0.4c-0.1,0-0.1,0-0.2,0.1c0,0,0,0,0,0c-0.2,0.1-0.4,0.1-0.7,0.2c-0.1,0-0.1,0-0.2,0c0,0,0,0,0,0
					c-0.3,0.1-0.6,0.1-0.9,0.1c-0.1,0-0.1,0-0.2,0c0,0,0,0-0.1,0c-0.2,0-0.5,0-0.7,0c-0.1,0-0.2,0-0.4,0c0,0,0,0,0,0
					c-0.2,0-0.4-0.1-0.6-0.1c-0.2,0-0.3-0.1-0.5-0.1c0,0,0,0,0,0c-0.3-0.1-0.6-0.2-0.9-0.3c0,0,0,0,0,0c0,0,0,0,0,0
					c-0.3-0.1-0.7-0.3-1-0.4c-0.1,0-0.2-0.1-0.3-0.1c-0.4-0.2-0.7-0.4-1.1-0.6c-0.4-0.2-0.8-0.5-1.2-0.7c-0.1-0.1-0.2-0.2-0.4-0.3
					c-0.3-0.2-0.5-0.4-0.8-0.6c-0.1-0.1-0.3-0.2-0.4-0.3c-0.1-0.1-0.3-0.2-0.4-0.3c-0.1-0.1-0.2-0.2-0.3-0.3
					c-0.1-0.1-0.3-0.3-0.4-0.4v0c-0.2-0.2-0.3-0.3-0.5-0.5c0,0,0,0,0,0c-0.3-0.3-0.5-0.6-0.8-0.9c0,0,0,0,0,0
					c-0.2-0.2-0.3-0.3-0.5-0.5c0,0,0,0,0,0c-0.2-0.2-0.3-0.4-0.5-0.6c0,0,0,0,0,0c-0.2-0.2-0.4-0.5-0.6-0.7
					c-0.1-0.2-0.2-0.3-0.3-0.5c-0.2-0.3-0.4-0.6-0.6-0.9c-0.1-0.1-0.2-0.2-0.2-0.4c0,0,0,0,0,0c-0.3-0.4-0.5-0.8-0.8-1.3
					c0-0.1-0.1-0.1-0.1-0.2c0,0,0,0,0,0c-0.2-0.4-0.4-0.7-0.6-1.1c0,0,0,0,0,0c-0.1-0.1-0.1-0.2-0.2-0.4c0,0,0,0,0,0
					c-0.2-0.4-0.4-0.8-0.6-1.2c0,0,0,0,0,0c0,0,0-0.1-0.1-0.1c-0.2-0.4-0.4-0.9-0.5-1.3c0,0,0,0,0,0c-0.1-0.1-0.1-0.3-0.1-0.4
					c0,0,0,0,0,0c-0.1-0.3-0.2-0.7-0.3-1c0,0,0,0,0,0c-0.1-0.2-0.1-0.3-0.2-0.5c0,0,0,0,0,0c-0.1-0.3-0.2-0.6-0.2-0.9
					c-0.1-0.2-0.1-0.4-0.2-0.6c0-0.2-0.1-0.4-0.1-0.7c0,0,0,0,0,0c-0.1-0.3-0.1-0.7-0.2-1c0-0.3-0.1-0.6-0.1-0.9c0,0,0,0,0,0
					c0-0.1,0-0.3,0-0.4c0-0.5-0.1-0.9-0.1-1.4c0-0.5,0-0.9,0.1-1.3C259.9,66.8,259.9,66.6,259.9,66.5z"/>
				<polygon class="st3" points="245.7,33.9 256.4,27.7 264.6,35.9 253.9,42.1 				"/>
				<path class="st2" d="M262.6,40.9c-0.3,0-0.6-0.1-0.9-0.1c-0.2,0-0.5,0-0.7-0.1c0,0,0,0,0,0c-0.2,0-0.3,0-0.5,0l0,0
					c-0.4,0-0.8,0-1.2,0c0,0,0,0,0,0c-0.2,0-0.3,0-0.5,0c0,0,0,0,0,0c-0.4,0-0.8,0.1-1.2,0.1c0,0,0,0,0,0c-0.1,0-0.2,0-0.2,0
					c0,0,0,0,0,0c-0.5,0.1-0.9,0.2-1.4,0.3c0,0,0,0,0,0c-0.1,0-0.2,0.1-0.2,0.1c-0.4,0.1-0.7,0.2-1.1,0.4c0,0,0,0,0,0
					c-0.3,0.1-0.6,0.2-0.9,0.4l10.7-6.2c0.2-0.1,0.4-0.2,0.6-0.3l-0.9,5.6C263.7,41.1,263.2,41,262.6,40.9z"/>
				<polygon class="st2" points="298.3,97.3 309,91.1 315.7,101.4 305,107.6 				"/>
				<polygon class="st3" points="315.7,101.4 309.2,110.5 298.5,116.7 305,107.6 				"/>
				<path class="st3" d="M298.8,94.2c0.1-1.1,0.2-2.2,0.2-3.4c0,0,0,0,0,0c0-0.8,0-1.5-0.1-2.3c0,0,0,0,0,0c0-0.2,0-0.4,0-0.6
					c0,0,0,0,0,0c-0.1-1.4-0.3-2.9-0.5-4.3c0,0,0,0,0,0c0,0,0,0,0,0L305,81l-6.4-16.6l10.7-6.2l6.4,16.6l-6.5,3.8
					c0,0.2,0.1,0.5,0.1,0.7c0,0,0,0.1,0,0.1c0,0.1,0,0.2,0,0.3c0.1,0.7,0.1,1.3,0.2,2c0,0.2,0,0.4,0,0.6c0,0.8,0.1,1.5,0.1,2.3
					c0,2.4-0.3,4.5-0.7,6.5l-10.7,6.2C298.5,96.3,298.7,95.3,298.8,94.2z"/>
				<path class="st3" d="M289.5,61.7C289.5,61.7,289.5,61.7,289.5,61.7c-0.5-0.7-0.9-1.4-1.4-2.1c0,0,0,0,0,0
					c-0.1-0.1-0.1-0.2-0.2-0.3c0,0,0,0,0,0c-0.5-0.7-1-1.4-1.5-2c-0.1-0.1-0.2-0.3-0.3-0.4c0,0,0,0,0,0c-0.6-0.8-1.2-1.5-1.9-2.3h0
					c-0.2-0.2-0.4-0.4-0.6-0.7c0,0,0,0,0,0c-0.3-0.3-0.5-0.6-0.8-0.9c0,0,0,0,0,0c-0.2-0.2-0.4-0.4-0.6-0.7c0,0,0,0,0,0
					c-0.3-0.3-0.5-0.6-0.8-0.8c0,0,0,0,0,0c-0.4-0.4-0.8-0.8-1.3-1.2l10.7-6.2c0.4,0.4,0.7,0.7,1.1,1.1c0.1,0.1,0.1,0.1,0.2,0.2
					c0.3,0.3,0.5,0.5,0.8,0.8c0.2,0.2,0.4,0.4,0.6,0.7c0.3,0.3,0.5,0.6,0.8,0.9c0.2,0.2,0.3,0.4,0.5,0.6c0,0,0,0.1,0.1,0.1
					c0.6,0.7,1.3,1.5,1.9,2.3c0.1,0.1,0.1,0.2,0.2,0.2c0.1,0.1,0.1,0.2,0.2,0.3c0.5,0.6,0.9,1.3,1.4,1.9c0.1,0.1,0.1,0.1,0.2,0.2
					c0,0,0,0,0,0.1c0.5,0.7,0.9,1.4,1.4,2.1c0,0.1,0.1,0.1,0.1,0.2c0.3,0.4,0.6,0.9,0.8,1.4l-10.7,6.2
					C290.1,62.7,289.8,62.2,289.5,61.7z"/>
				<polygon class="st2" points="278.7,39.7 289.4,33.4 290.8,44.1 280.1,50.4 				"/>
				<polygon class="st3" points="265.8,32.2 276.4,26 289.4,33.4 278.7,39.7 				"/>
				<polygon class="st2" points="290.4,63.2 301.1,57 309.3,58.3 298.6,64.5 				"/>
				<path class="st4" d="M239.2,69.6l6.4,16.6l8.2,1.2c2.9,4.8,6.4,9.2,10.4,12.9l1.4,10.7l12.9,7.5l1.5-9c3.7,0.8,7,0.6,9.8-0.6
					c0.2-0.1,0.4-0.2,0.6-0.3l8.2,8.2l6.5-9.1l-6.7-10.3c0.2-1,0.4-2,0.5-3.1c0.1-1.1,0.2-2.2,0.2-3.4c0,0,0,0,0,0
					c0-0.8,0-1.5-0.1-2.3c0-0.2,0-0.4,0-0.6c-0.1-1.4-0.3-2.9-0.5-4.3c0,0,0,0,0,0L305,81l-6.4-16.6l-8.2-1.2c-0.3-0.5-0.6-1-1-1.5
					c-0.5-0.7-0.9-1.4-1.4-2.1c-0.1-0.1-0.1-0.2-0.2-0.3c-0.5-0.7-1-1.4-1.5-2c-0.1-0.1-0.2-0.3-0.3-0.4c-0.6-0.8-1.2-1.5-1.9-2.3
					c-0.2-0.2-0.4-0.4-0.6-0.7c-0.3-0.3-0.5-0.6-0.8-0.9c-0.2-0.2-0.4-0.4-0.6-0.7c-0.3-0.3-0.5-0.6-0.8-0.8
					c-0.4-0.4-0.8-0.8-1.3-1.2l-1.4-10.7l-12.9-7.5l-0.6,3.4l-0.9,5.6c-0.6-0.1-1.1-0.2-1.6-0.3c-0.3,0-0.6-0.1-0.9-0.1
					c-0.2,0-0.5,0-0.7-0.1c-0.2,0-0.3,0-0.5,0c-0.4,0-0.8,0-1.2,0c-0.2,0-0.3,0-0.5,0c-0.4,0-0.8,0.1-1.2,0.1c-0.1,0-0.2,0-0.2,0
					c-0.5,0.1-0.9,0.2-1.4,0.3c-0.1,0-0.2,0.1-0.2,0.1c-0.4,0.1-0.7,0.2-1.1,0.4c-0.3,0.1-0.6,0.2-0.9,0.4l-8.2-8.2l-6.5,9.1
					l6.7,10.3c-0.5,2-0.7,4.1-0.7,6.5c0,2,0.2,4,0.5,6c0.1,0.4,0.1,0.9,0.2,1.3L239.2,69.6z M259.8,68.2c0-0.5,0-0.9,0.1-1.3
					c0-0.1,0-0.3,0.1-0.4c0-0.3,0.1-0.6,0.1-0.8c0-0.2,0.1-0.3,0.1-0.4c0.1-0.2,0.1-0.5,0.2-0.7c0-0.1,0.1-0.3,0.1-0.4
					c0.1-0.2,0.2-0.4,0.2-0.6c0.1-0.1,0.1-0.3,0.2-0.4c0.1-0.2,0.2-0.4,0.3-0.6c0.1-0.1,0.1-0.2,0.2-0.3c0.1-0.2,0.3-0.4,0.4-0.6
					c0.1-0.1,0.1-0.1,0.2-0.2c0.2-0.2,0.4-0.4,0.7-0.6c0.1-0.1,0.2-0.2,0.4-0.3c1.9-1.4,4.6-1.5,7.6-0.2c0.5,0.2,1,0.5,1.5,0.8
					c6.8,3.9,12.3,13.4,12.2,21.2c0,0.5,0,1.1-0.1,1.6c-0.3,3.1-1.6,5.2-3.5,6.3c0,0,0,0,0,0c-0.3,0.1-0.5,0.3-0.8,0.4
					c-0.1,0-0.1,0.1-0.2,0.1c-0.2,0.1-0.4,0.1-0.7,0.2c-0.1,0-0.1,0-0.2,0c-0.3,0.1-0.6,0.1-0.9,0.1c-0.1,0-0.1,0-0.2,0
					c-0.2,0-0.5,0-0.7,0c-0.1,0-0.2,0-0.4,0c-0.2,0-0.4-0.1-0.6-0.1c-0.2,0-0.3-0.1-0.5-0.1c-0.3-0.1-0.6-0.2-0.9-0.3c0,0,0,0-0.1,0
					c-0.3-0.1-0.7-0.3-1-0.4c-0.5-0.2-0.9-0.4-1.4-0.7c-1.1-0.6-2.1-1.4-3.1-2.3c-0.1-0.1-0.2-0.2-0.3-0.3c-0.1-0.1-0.3-0.3-0.4-0.4
					c-0.2-0.2-0.3-0.3-0.5-0.5c-0.3-0.3-0.5-0.6-0.8-0.9c-0.2-0.2-0.3-0.3-0.5-0.5c-0.2-0.2-0.3-0.4-0.5-0.6
					c-0.2-0.2-0.4-0.5-0.6-0.7c-0.1-0.2-0.2-0.3-0.3-0.5c-0.2-0.3-0.4-0.6-0.6-0.9c-0.1-0.1-0.2-0.2-0.2-0.4
					c-0.3-0.4-0.5-0.8-0.8-1.3c0-0.1-0.1-0.1-0.1-0.2c-0.2-0.4-0.4-0.7-0.6-1.1c-0.1-0.1-0.1-0.2-0.2-0.4c-0.2-0.4-0.4-0.8-0.6-1.2
					c0-0.1,0-0.1-0.1-0.1c-0.2-0.4-0.4-0.9-0.5-1.3c-0.1-0.1-0.1-0.3-0.1-0.4c-0.1-0.3-0.2-0.7-0.3-1c-0.1-0.2-0.1-0.3-0.2-0.5
					c-0.1-0.3-0.2-0.6-0.2-0.9c-0.1-0.2-0.1-0.4-0.2-0.6c0-0.2-0.1-0.4-0.1-0.7c-0.1-0.3-0.1-0.7-0.2-1c0-0.3-0.1-0.6-0.1-0.9
					C259.9,69.4,259.8,68.8,259.8,68.2z"/>
			</g>
			<g>
				<path class="st1" d="M207.7,62.5c0,0.1,0.1,0.3,0.1,0.4C207.8,62.7,207.8,62.6,207.7,62.5z"/>
				<polygon class="st1" points="231.1,69.3 231.1,69.3 231.1,69.3 				"/>
				<path class="st1" d="M231.5,72.3C231.5,72.3,231.5,72.3,231.5,72.3c0-0.1,0-0.3,0-0.4c0,0,0,0,0,0
					C231.5,72.1,231.5,72.2,231.5,72.3z"/>
				<path class="st1" d="M210.6,68.8c0.1,0.1,0.1,0.2,0.2,0.3C210.8,69,210.7,68.9,210.6,68.8z"/>
				<path class="st1" d="M207.6,58c0,0.1,0,0.2-0.1,0.3C207.6,58.2,207.6,58.1,207.6,58z"/>
				<path class="st1" d="M207.8,57.3c0,0.1-0.1,0.2-0.1,0.3C207.8,57.5,207.8,57.4,207.8,57.3z"/>
				<path class="st1" d="M208.4,56.2c0,0.1-0.1,0.1-0.1,0.2C208.3,56.3,208.3,56.2,208.4,56.2z"/>
				<path class="st1" d="M208.1,56.7c0,0.1-0.1,0.2-0.1,0.2C208,56.9,208,56.8,208.1,56.7z"/>
				<path class="st1" d="M220.3,73.4C220.3,73.4,220.3,73.4,220.3,73.4C220.3,73.4,220.3,73.4,220.3,73.4z"/>
				<path class="st1" d="M209.4,55.2c-0.1,0.1-0.2,0.1-0.2,0.2C209.2,55.3,209.3,55.2,209.4,55.2z"/>
				<path class="st1" d="M208.7,55.7c0,0-0.1,0.1-0.1,0.1C208.7,55.8,208.7,55.7,208.7,55.7z"/>
				<path class="st1" d="M231.4,75.8c0.1-0.7,0.1-1.4,0.1-2.1c0,0,0,0,0,0c0,0,0,0,0,0C231.5,74.5,231.5,75.2,231.4,75.8z"/>
				<path class="st1" d="M208.2,42.9L208.2,42.9c-0.1,0-0.2,0-0.3,0l0,0C208,42.9,208.1,42.9,208.2,42.9z"/>
				<path class="st1" d="M207.2,42.9C207.2,42.9,207.2,42.9,207.2,42.9c-0.1,0-0.2,0-0.3,0c0,0,0,0,0,0
					C207,42.9,207.1,42.9,207.2,42.9z"/>
				<path class="st1" d="M206.1,43C206.1,43,206.1,43,206.1,43c0,0-0.1,0-0.1,0c0,0,0,0,0,0C206,43,206.1,43,206.1,43z"/>
				<path class="st1" d="M204.3,43.5c-0.2,0.1-0.4,0.2-0.5,0.2C203.9,43.7,204.1,43.6,204.3,43.5C204.3,43.5,204.3,43.5,204.3,43.5z
					"/>
				<path class="st1" d="M208.6,43c0.2,0,0.4,0,0.5,0.1C209,43,208.8,43,208.6,43z"/>
				<path class="st1" d="M226.3,56.8c-0.2-0.3-0.4-0.6-0.6-0.9c0,0,0,0,0,0C225.9,56.1,226.1,56.4,226.3,56.8z"/>
				<path class="st1" d="M220.7,49.6L220.7,49.6c-0.3-0.3-0.5-0.5-0.8-0.8l6.6-3.8l-6.6,3.8C220.2,49.1,220.4,49.3,220.7,49.6z"/>
				<path class="st1" d="M222.4,51.5L222.4,51.5c-0.1-0.1-0.2-0.3-0.4-0.4c0,0,0,0,0,0C222.2,51.2,222.3,51.3,222.4,51.5z"/>
				<path class="st1" d="M221.6,50.5C221.6,50.5,221.6,50.5,221.6,50.5c-0.1-0.1-0.3-0.3-0.4-0.4c0,0,0,0,0,0
					C221.3,50.2,221.4,50.4,221.6,50.5z"/>
				<path class="st1" d="M224.8,54.5C224.8,54.5,224.8,54.5,224.8,54.5c0-0.1-0.1-0.1-0.1-0.2c0,0,0,0,0,0
					C224.7,54.4,224.8,54.5,224.8,54.5z"/>
				<path class="st1" d="M223.8,53.1c-0.1-0.1-0.1-0.2-0.2-0.3c0,0,0,0,0,0C223.6,53,223.7,53,223.8,53.1z"/>
				<path class="st1" d="M205.1,43.3c0,0-0.1,0-0.1,0C205,43.3,205.1,43.3,205.1,43.3C205.1,43.3,205.1,43.3,205.1,43.3z"/>
				<path class="st1" d="M210.3,68.3c0-0.1-0.1-0.1-0.1-0.2c0,0,0,0,0,0C210.2,68.1,210.2,68.2,210.3,68.3z"/>
				<path class="st1" d="M209.6,67.3c0,0-0.1-0.1-0.1-0.1c0,0,0,0,0,0C209.6,67.2,209.6,67.2,209.6,67.3z"/>
				<path class="st1" d="M209.2,66.5C209.2,66.5,209.2,66.5,209.2,66.5c0-0.1-0.1-0.2-0.1-0.2c0,0,0,0,0,0
					C209.1,66.3,209.2,66.4,209.2,66.5z"/>
				<path class="st1" d="M211.5,69.9C211.5,69.9,211.5,69.9,211.5,69.9c-0.1-0.1-0.2-0.2-0.3-0.4c0,0,0,0,0,0
					C211.3,69.6,211.4,69.8,211.5,69.9z"/>
				<path class="st1" d="M208.7,65.5C208.7,65.5,208.7,65.4,208.7,65.5C208.7,65.4,208.7,65.5,208.7,65.5
					C208.7,65.5,208.7,65.5,208.7,65.5z"/>
				<path class="st1" d="M212.3,70.7C212.3,70.7,212.3,70.7,212.3,70.7c-0.2-0.2-0.3-0.4-0.5-0.5c0,0,0,0,0,0
					C211.9,70.4,212.1,70.6,212.3,70.7z"/>
				<path class="st1" d="M207.5,60.9C207.5,60.9,207.5,60.9,207.5,60.9c0-0.4-0.1-0.7-0.1-1.1c0,0.3,0,0.6,0,0.8
					C207.5,60.8,207.5,60.8,207.5,60.9z"/>
				<path class="st1" d="M208.4,64.6C208.4,64.6,208.4,64.6,208.4,64.6c0-0.1-0.1-0.2-0.1-0.2c0,0,0,0,0,0
					C208.3,64.4,208.3,64.5,208.4,64.6z"/>
				<path class="st1" d="M207.7,62.1c0-0.2-0.1-0.4-0.1-0.6C207.6,61.7,207.6,61.9,207.7,62.1C207.7,62.1,207.7,62.1,207.7,62.1z"/>
				<path class="st1" d="M212.8,71.3c-0.1-0.1-0.2-0.2-0.3-0.2v0C212.7,71.1,212.8,71.2,212.8,71.3z"/>
				<path class="st1" d="M207.5,58.8c0,0.1,0,0.2,0,0.2C207.5,58.9,207.5,58.8,207.5,58.8z"/>
				<path class="st1" d="M208.1,63.7C208.1,63.7,208.1,63.7,208.1,63.7c0-0.1-0.1-0.2-0.1-0.3v0C208,63.5,208,63.6,208.1,63.7z"/>
				<path class="st1" d="M216.5,73.6C216.5,73.6,216.5,73.6,216.5,73.6C216.5,73.6,216.5,73.6,216.5,73.6
					C216.5,73.6,216.5,73.6,216.5,73.6z"/>
				<path class="st1" d="M219.3,73.8c0,0-0.1,0-0.1,0c0,0,0,0,0,0C219.2,73.8,219.2,73.8,219.3,73.8z"/>
				<path class="st1" d="M218.6,73.9c0,0-0.1,0-0.1,0C218.5,73.9,218.5,73.9,218.6,73.9C218.5,73.9,218.6,73.9,218.6,73.9z"/>
				<path class="st1" d="M217.4,73.8c-0.1,0-0.2,0-0.3-0.1c0,0,0,0,0,0C217.2,73.8,217.3,73.8,217.4,73.8z"/>
				<path class="st1" d="M218,73.9c-0.1,0-0.2,0-0.2,0c0,0,0,0,0,0C217.8,73.9,217.9,73.9,218,73.9z"/>
				<path class="st1" d="M219.8,73.6c0,0-0.1,0-0.1,0c0,0,0,0,0,0C219.7,73.7,219.8,73.7,219.8,73.6z"/>
				<path class="st1" d="M222.2,69.4c-0.2-0.1-0.5-0.2-0.7-0.4c-0.2-0.1-0.5-0.3-0.7-0.5c-0.1-0.1-0.2-0.1-0.2-0.2
					c-0.2-0.1-0.3-0.2-0.5-0.4c-0.1-0.1-0.2-0.1-0.3-0.2c-0.1-0.1-0.3-0.2-0.4-0.4c-0.1-0.1-0.2-0.2-0.3-0.2
					c-0.1-0.1-0.2-0.2-0.3-0.3c-0.2-0.2-0.3-0.4-0.5-0.5c-0.1-0.1-0.2-0.2-0.3-0.3c-0.1-0.1-0.2-0.2-0.3-0.4
					c-0.1-0.1-0.2-0.3-0.3-0.4c-0.1-0.1-0.1-0.2-0.2-0.3c-0.1-0.2-0.3-0.4-0.4-0.5c0-0.1-0.1-0.1-0.1-0.2c-0.2-0.3-0.3-0.5-0.5-0.8
					c0,0,0-0.1-0.1-0.1c-0.1-0.2-0.2-0.4-0.4-0.7c0-0.1-0.1-0.2-0.1-0.2c-0.1-0.2-0.2-0.5-0.3-0.7c0,0,0-0.1,0-0.1
					c-0.1-0.3-0.2-0.6-0.3-0.8c0-0.1-0.1-0.2-0.1-0.2c-0.1-0.2-0.1-0.4-0.2-0.6c0-0.1-0.1-0.2-0.1-0.3c-0.1-0.2-0.1-0.4-0.1-0.5
					c0-0.1-0.1-0.3-0.1-0.4c0-0.1-0.1-0.3-0.1-0.4c0-0.2-0.1-0.4-0.1-0.6c0-0.2,0-0.4-0.1-0.5c0-0.1,0-0.2,0-0.3c0-0.3,0-0.6,0-0.8
					c0-0.3,0-0.7,0.1-1c0.3,0.1,0.6,0.3,0.9,0.5c4.2,2.4,7.5,8.2,7.5,13c0,0.3,0,0.7-0.1,1c0,0,0,0-0.1,0
					C222.3,69.5,222.3,69.4,222.2,69.4z"/>
				<path class="st1" d="M213.5,71.9c0.2,0.1,0.3,0.2,0.5,0.4c0.1,0.1,0.2,0.1,0.2,0.2c0.2,0.2,0.5,0.3,0.7,0.5
					c-0.7-0.4-1.3-0.9-1.9-1.4c0.1,0.1,0.2,0.1,0.2,0.2C213.4,71.7,213.4,71.8,213.5,71.9z"/>
				<path class="st1" d="M215.8,73.3c-0.3-0.1-0.6-0.3-0.9-0.4c0.2,0.1,0.5,0.3,0.7,0.4C215.7,73.3,215.8,73.3,215.8,73.3z"/>
				<path class="st2" d="M194.7,60.7l4-2.3c0,0.3,0.1,0.5,0.1,0.8L194.7,60.7z"/>
				<path class="st2" d="M225.8,84.8l-0.3,2.1l-6.6,3.8l0.9-5.5C222,85.7,224.1,85.5,225.8,84.8z"/>
				<path class="st2" d="M207.5,58.8c0-0.2,0-0.3,0.1-0.5c0-0.1,0-0.2,0.1-0.3c0-0.1,0.1-0.3,0.1-0.4c0-0.1,0.1-0.2,0.1-0.3
					c0-0.1,0.1-0.3,0.1-0.4c0-0.1,0.1-0.2,0.1-0.2c0.1-0.1,0.1-0.2,0.2-0.3c0-0.1,0.1-0.1,0.1-0.2c0.1-0.1,0.2-0.2,0.3-0.3
					c0,0,0.1-0.1,0.1-0.1c0.1-0.1,0.3-0.3,0.4-0.4c0.1-0.1,0.1-0.1,0.2-0.2c1.2-0.8,2.8-0.9,4.7-0.1c0,0.3-0.1,0.6-0.1,1
					c0,0.3,0,0.6,0,0.8c0,0.1,0,0.2,0,0.3c0,0.2,0,0.4,0.1,0.5c0,0.2,0.1,0.4,0.1,0.6c0,0.1,0.1,0.3,0.1,0.4c0,0.1,0.1,0.3,0.1,0.4
					c0,0.2,0.1,0.4,0.1,0.5c0,0.1,0.1,0.2,0.1,0.3c0.1,0.2,0.1,0.4,0.2,0.6c0,0.1,0.1,0.2,0.1,0.2c0.1,0.3,0.2,0.6,0.3,0.8
					c0,0,0,0.1,0,0.1c0.1,0.2,0.2,0.5,0.3,0.7c0,0.1,0.1,0.2,0.1,0.2c0.1,0.2,0.2,0.5,0.4,0.7c0,0,0,0.1,0.1,0.1
					c0.2,0.3,0.3,0.5,0.5,0.8c0,0.1,0.1,0.1,0.1,0.2c0.1,0.2,0.2,0.4,0.4,0.5c0.1,0.1,0.1,0.2,0.2,0.3c0.1,0.1,0.2,0.3,0.3,0.4
					c0.1,0.1,0.2,0.2,0.3,0.4c0.1,0.1,0.2,0.2,0.3,0.3c0.2,0.2,0.3,0.4,0.5,0.5c0.1,0.1,0.2,0.2,0.3,0.3c0.1,0.1,0.2,0.2,0.3,0.2
					c0.1,0.1,0.3,0.3,0.4,0.4c0.1,0.1,0.2,0.1,0.3,0.2c0.2,0.1,0.3,0.2,0.5,0.4c0.1,0.1,0.2,0.1,0.2,0.2c0.2,0.2,0.5,0.3,0.7,0.5
					c0.2,0.1,0.5,0.3,0.7,0.4c0.1,0,0.1,0.1,0.2,0.1c0,0,0,0,0.1,0c-0.2,1.9-1,3.2-2.2,3.9c0,0,0,0,0,0c-0.2,0.1-0.3,0.2-0.5,0.2
					c0,0-0.1,0-0.1,0c0,0,0,0,0,0c-0.1,0-0.3,0.1-0.4,0.1c0,0-0.1,0-0.1,0c0,0,0,0,0,0c-0.2,0-0.4,0.1-0.6,0.1c0,0-0.1,0-0.1,0
					c0,0,0,0,0,0c-0.2,0-0.3,0-0.5,0c-0.1,0-0.1,0-0.2,0c0,0,0,0,0,0c-0.1,0-0.3,0-0.4-0.1c-0.1,0-0.2,0-0.3-0.1c0,0,0,0,0,0
					c-0.2,0-0.4-0.1-0.6-0.2c0,0,0,0,0,0c0,0,0,0,0,0c-0.2-0.1-0.4-0.2-0.6-0.3c-0.1,0-0.1-0.1-0.2-0.1c-0.2-0.1-0.5-0.2-0.7-0.4
					c-0.2-0.1-0.5-0.3-0.7-0.5c-0.1-0.1-0.2-0.1-0.2-0.2c-0.2-0.1-0.3-0.2-0.5-0.4c-0.1-0.1-0.2-0.1-0.3-0.2
					c-0.1-0.1-0.2-0.1-0.2-0.2c-0.1-0.1-0.1-0.1-0.2-0.2c-0.1-0.1-0.2-0.2-0.3-0.2v0c-0.1-0.1-0.2-0.2-0.3-0.3c0,0,0,0,0,0
					c-0.2-0.2-0.3-0.4-0.5-0.5c0,0,0,0,0,0c-0.1-0.1-0.2-0.2-0.3-0.3c0,0,0,0,0,0c-0.1-0.1-0.2-0.2-0.3-0.4c0,0,0,0,0,0
					c-0.1-0.1-0.2-0.3-0.3-0.4c-0.1-0.1-0.1-0.2-0.2-0.3c-0.1-0.2-0.3-0.4-0.4-0.5c0-0.1-0.1-0.1-0.1-0.2c0,0,0,0,0,0
					c-0.2-0.3-0.3-0.5-0.5-0.8c0,0,0-0.1-0.1-0.1c0,0,0,0,0,0c-0.1-0.2-0.2-0.4-0.4-0.7c0,0,0,0,0,0c0-0.1-0.1-0.2-0.1-0.2
					c0,0,0,0,0,0c-0.1-0.2-0.2-0.5-0.3-0.7c0,0,0,0,0,0c0,0,0-0.1,0-0.1c-0.1-0.3-0.2-0.6-0.3-0.8c0,0,0,0,0,0
					c0-0.1-0.1-0.2-0.1-0.2c0,0,0,0,0,0c-0.1-0.2-0.1-0.4-0.2-0.6c0,0,0,0,0,0c0-0.1-0.1-0.2-0.1-0.3v0c-0.1-0.2-0.1-0.4-0.1-0.5
					c0-0.1-0.1-0.3-0.1-0.4c0-0.1-0.1-0.3-0.1-0.4c0,0,0,0,0,0c0-0.2-0.1-0.4-0.1-0.6c0-0.2,0-0.4-0.1-0.5c0,0,0,0,0,0
					c0-0.1,0-0.2,0-0.3c0-0.3,0-0.6,0-0.8c0-0.3,0-0.6,0-0.8C207.5,58.9,207.5,58.8,207.5,58.8z"/>
				<polygon class="st3" points="198.7,38.7 205.3,34.9 210.3,39.9 203.8,43.8 				"/>
				<path class="st2" d="M209.1,43c-0.2,0-0.4,0-0.5-0.1c-0.1,0-0.3,0-0.4,0h0c-0.1,0-0.2,0-0.3,0l0,0c-0.2,0-0.5,0-0.7,0
					c0,0,0,0,0,0c-0.1,0-0.2,0-0.3,0c0,0,0,0,0,0c-0.3,0-0.5,0-0.8,0.1c0,0,0,0,0,0c0,0-0.1,0-0.1,0c0,0,0,0,0,0
					c-0.3,0.1-0.6,0.1-0.8,0.2c0,0,0,0,0,0c0,0-0.1,0-0.1,0c-0.2,0.1-0.4,0.1-0.7,0.2c0,0,0,0,0,0c-0.2,0.1-0.4,0.2-0.5,0.2l6.6-3.8
					c0.1-0.1,0.3-0.1,0.4-0.2l-0.6,3.4C209.8,43.1,209.5,43.1,209.1,43z"/>
				<polygon class="st2" points="231.1,77.7 237.7,73.9 241.8,80.2 235.2,84 				"/>
				<polygon class="st3" points="241.8,80.2 237.8,85.8 231.2,89.7 235.2,84 				"/>
				<path class="st3" d="M231.4,75.8c0.1-0.7,0.1-1.4,0.1-2.1c0,0,0,0,0,0c0-0.5,0-0.9,0-1.4c0,0,0,0,0,0c0-0.1,0-0.3,0-0.4
					c0,0,0,0,0,0c-0.1-0.9-0.2-1.8-0.3-2.7c0,0,0,0,0,0c0,0,0,0,0,0l4.1-1.5l-3.9-10.2l6.6-3.8l3.9,10.2l-4,2.3c0,0.1,0,0.3,0.1,0.4
					c0,0,0,0,0,0.1c0,0.1,0,0.1,0,0.2c0.1,0.4,0.1,0.8,0.1,1.2c0,0.1,0,0.3,0,0.4c0,0.5,0,1,0,1.4c0,1.5-0.2,2.8-0.4,4l-6.6,3.8
					C231.2,77.1,231.3,76.5,231.4,75.8z"/>
				<path class="st3" d="M225.7,55.8C225.7,55.8,225.7,55.8,225.7,55.8c-0.3-0.4-0.6-0.9-0.9-1.3c0,0,0,0,0,0c0-0.1-0.1-0.1-0.1-0.2
					c0,0,0,0,0,0c-0.3-0.4-0.6-0.8-0.9-1.2c-0.1-0.1-0.1-0.2-0.2-0.3c0,0,0,0,0,0c-0.4-0.5-0.8-1-1.2-1.4l0,0
					c-0.1-0.1-0.2-0.3-0.4-0.4c0,0,0,0,0,0c-0.2-0.2-0.3-0.4-0.5-0.5c0,0,0,0,0,0c-0.1-0.1-0.3-0.3-0.4-0.4c0,0,0,0,0,0
					c-0.2-0.2-0.3-0.3-0.5-0.5l0,0c-0.3-0.3-0.5-0.5-0.8-0.8l6.6-3.8c0.2,0.2,0.5,0.4,0.7,0.7c0,0,0.1,0.1,0.1,0.1
					c0.2,0.2,0.3,0.3,0.5,0.5c0.1,0.1,0.3,0.3,0.4,0.4c0.2,0.2,0.3,0.4,0.5,0.5c0.1,0.1,0.2,0.2,0.3,0.3c0,0,0,0,0,0.1
					c0.4,0.5,0.8,0.9,1.2,1.4c0,0.1,0.1,0.1,0.1,0.1c0,0.1,0.1,0.1,0.1,0.2c0.3,0.4,0.6,0.8,0.9,1.2c0,0,0.1,0.1,0.1,0.1
					c0,0,0,0,0,0c0.3,0.4,0.6,0.8,0.9,1.3c0,0,0,0.1,0.1,0.1c0.2,0.3,0.4,0.6,0.5,0.8l-6.6,3.8C226.1,56.4,225.9,56.1,225.7,55.8z"
					/>
				<polygon class="st2" points="219,42.2 225.6,38.4 226.5,45 219.9,48.8 				"/>
				<polygon class="st3" points="211.1,37.7 217.7,33.8 225.6,38.4 219,42.2 				"/>
				<polygon class="st2" points="226.3,56.8 232.9,52.9 237.9,53.7 231.3,57.5 				"/>
				<path class="st4" d="M194.7,60.7l3.9,10.2l5,0.8c1.8,3,4,5.7,6.4,7.9l0.9,6.6l7.9,4.6l0.9-5.5c2.2,0.5,4.3,0.3,6-0.4
					c0.1-0.1,0.3-0.1,0.4-0.2l5,5l4-5.6l-4.1-6.3c0.1-0.6,0.2-1.2,0.3-1.9c0.1-0.7,0.1-1.4,0.1-2.1c0,0,0,0,0,0c0-0.5,0-0.9,0-1.4
					c0-0.1,0-0.3,0-0.4c-0.1-0.9-0.2-1.8-0.3-2.7c0,0,0,0,0,0l4.1-1.5l-3.9-10.2l-5-0.8c-0.2-0.3-0.4-0.6-0.6-0.9
					c-0.3-0.4-0.6-0.9-0.9-1.3c0-0.1-0.1-0.1-0.1-0.2c-0.3-0.4-0.6-0.8-0.9-1.2c-0.1-0.1-0.1-0.2-0.2-0.3c-0.4-0.5-0.8-1-1.2-1.4
					c-0.1-0.1-0.2-0.3-0.4-0.4c-0.2-0.2-0.3-0.4-0.5-0.5c-0.1-0.1-0.3-0.3-0.4-0.4c-0.2-0.2-0.3-0.3-0.5-0.5
					c-0.3-0.3-0.5-0.5-0.8-0.8l-0.9-6.6l-7.9-4.6l-0.3,2.1l-0.6,3.4c-0.3-0.1-0.7-0.1-1-0.2c-0.2,0-0.4,0-0.5-0.1
					c-0.1,0-0.3,0-0.4,0c-0.1,0-0.2,0-0.3,0c-0.2,0-0.5,0-0.7,0c-0.1,0-0.2,0-0.3,0c-0.3,0-0.5,0-0.8,0.1c0,0-0.1,0-0.1,0
					c-0.3,0.1-0.6,0.1-0.8,0.2c0,0-0.1,0-0.1,0c-0.2,0.1-0.4,0.1-0.7,0.2c-0.2,0.1-0.4,0.2-0.5,0.2l-5-5l-4,5.6l4.1,6.3
					c-0.3,1.2-0.4,2.5-0.4,4c0,1.2,0.1,2.4,0.3,3.7c0,0.3,0.1,0.5,0.1,0.8L194.7,60.7z M207.4,59.8c0-0.3,0-0.6,0-0.8
					c0-0.1,0-0.2,0-0.2c0-0.2,0-0.3,0.1-0.5c0-0.1,0-0.2,0.1-0.3c0-0.1,0.1-0.3,0.1-0.4c0-0.1,0.1-0.2,0.1-0.3
					c0-0.1,0.1-0.3,0.1-0.4c0-0.1,0.1-0.2,0.1-0.2c0.1-0.1,0.1-0.2,0.2-0.3c0-0.1,0.1-0.1,0.1-0.2c0.1-0.1,0.2-0.2,0.3-0.3
					c0,0,0.1-0.1,0.1-0.1c0.1-0.1,0.3-0.3,0.4-0.4c0.1-0.1,0.1-0.1,0.2-0.2c1.2-0.8,2.8-0.9,4.7-0.1c0.3,0.1,0.6,0.3,0.9,0.5
					c4.2,2.4,7.5,8.2,7.5,13c0,0.3,0,0.7-0.1,1c-0.2,1.9-1,3.2-2.2,3.9c0,0,0,0,0,0c-0.2,0.1-0.3,0.2-0.5,0.2c0,0-0.1,0-0.1,0
					c-0.1,0-0.3,0.1-0.4,0.1c0,0-0.1,0-0.1,0c-0.2,0-0.4,0.1-0.6,0.1c0,0-0.1,0-0.1,0c-0.2,0-0.3,0-0.5,0c-0.1,0-0.2,0-0.2,0
					c-0.1,0-0.3,0-0.4-0.1c-0.1,0-0.2,0-0.3-0.1c-0.2,0-0.4-0.1-0.6-0.2c0,0,0,0,0,0c-0.2-0.1-0.4-0.2-0.6-0.3
					c-0.3-0.1-0.6-0.3-0.9-0.4c-0.7-0.4-1.3-0.9-1.9-1.4c-0.1-0.1-0.1-0.1-0.2-0.2c-0.1-0.1-0.2-0.2-0.3-0.2
					c-0.1-0.1-0.2-0.2-0.3-0.3c-0.2-0.2-0.3-0.4-0.5-0.5c-0.1-0.1-0.2-0.2-0.3-0.3c-0.1-0.1-0.2-0.2-0.3-0.4
					c-0.1-0.1-0.2-0.3-0.3-0.4c-0.1-0.1-0.1-0.2-0.2-0.3c-0.1-0.2-0.3-0.4-0.4-0.5c0-0.1-0.1-0.1-0.1-0.2c-0.2-0.3-0.3-0.5-0.5-0.8
					c0,0-0.1-0.1-0.1-0.1c-0.1-0.2-0.2-0.4-0.4-0.7c0-0.1-0.1-0.2-0.1-0.2c-0.1-0.2-0.2-0.5-0.3-0.7c0,0,0-0.1,0-0.1
					c-0.1-0.3-0.2-0.6-0.3-0.8c0-0.1-0.1-0.2-0.1-0.2c-0.1-0.2-0.1-0.4-0.2-0.6c0-0.1-0.1-0.2-0.1-0.3c-0.1-0.2-0.1-0.4-0.1-0.5
					c0-0.1-0.1-0.3-0.1-0.4c0-0.1-0.1-0.3-0.1-0.4c0-0.2-0.1-0.4-0.1-0.6c0-0.2,0-0.4-0.1-0.5C207.4,60.6,207.4,60.2,207.4,59.8z"/>
			</g>
		</g>
		<g>
			<path class="st5" d="M37.3,296.5l120-69.7c1.6-0.9,3.6-0.9,5.3,0L253,279c1.4,0.8,1.4,2.8,0,3.6l-120,69.7
				c-1.6,0.9-3.6,0.9-5.3,0l-90.4-52.2C35.9,299.3,35.9,297.3,37.3,296.5z"/>
			<g>
				<g>
					<polygon class="st6" points="249.8,262.8 159.9,210.9 40.4,280.3 130.4,332.2 					"/>
					<polygon class="st7" points="130.4,332.2 130.3,347.8 249.8,278.4 249.8,262.8 					"/>
					<polygon class="st8" points="130.4,332.2 130.3,347.8 249.8,278.4 249.8,262.8 					"/>
					<polygon class="st9" points="40.4,280.3 40.4,295.8 130.3,347.8 130.4,332.2 					"/>
				</g>
				<g>
					<g class="st10">
						<g>
							<polygon class="st11" points="182.5,254.6 179.7,256.2 136.5,231.3 139.4,229.6 							"/>
						</g>
						<g>
							<polygon class="st11" points="132.8,255.8 129.9,257.5 110.6,246.3 113.5,244.7 							"/>
						</g>
						<g>
							<polygon class="st11" points="228.5,267.8 225.7,269.5 148,224.6 150.9,222.9 							"/>
						</g>
						<g>
							<polygon class="st11" points="222.8,271.1 219.9,272.8 142.2,228 145.1,226.3 							"/>
						</g>
						<g>
							<polygon class="st11" points="208.4,279.5 205.5,281.2 127.8,236.3 130.7,234.6 							"/>
						</g>
						<g>
							<polygon class="st11" points="105.2,282.5 102.3,284.1 73.9,267.7 76.7,266 							"/>
						</g>
						<g>
							<polygon class="st11" points="202.7,282.8 199.8,284.5 122.1,239.7 125,238 							"/>
						</g>
						<g>
							<polygon class="st11" points="196.9,286.2 194,287.8 116.3,243 119.2,241.3 							"/>
						</g>
						<g>
							<polygon class="st11" points="157.9,287.9 155,289.6 95.4,255.2 98.3,253.5 							"/>
						</g>
						<g>
							<polygon class="st11" points="181.7,295 178.9,296.7 101.2,251.8 104.1,250.1 							"/>
						</g>
						<g>
							<polygon class="st11" points="105.1,300.7 102.2,302.4 58.1,276.9 60.9,275.2 							"/>
						</g>
						<g>
							<polygon class="st11" points="165.9,304.2 163,305.9 85.4,261 88.2,259.3 							"/>
						</g>
						<g>
							<polygon class="st11" points="160.2,307.5 157.3,309.2 79.6,264.3 82.5,262.7 							"/>
						</g>
						<g>
							<polygon class="st11" points="144.4,316.7 141.5,318.4 63.8,273.5 66.7,271.9 							"/>
						</g>
					</g>
					<g>
						<polygon class="st11" points="185.1,236 182.2,237.7 153.7,221.3 156.6,219.6 						"/>
					</g>
				</g>
			</g>
		</g>
		<g>
			<g>
				<path class="st12" d="M269.1,131.6L129,50.9c-1.5-0.9-2.8-0.9-3.8-0.2l-4.9,2.9l0,0c0.9-0.4,2-0.3,3.3,0.5l140.1,80.7
					c2.8,1.6,5,5.5,5,8.7l0,15l-0.3,92.4c0,1.5-0.5,2.6-1.4,3.2l0,0l5-2.9c0.1-0.1,0.3-0.1,0.4-0.2l0,0c0.8-0.6,1.3-1.6,1.3-3.1
					l0.3-92.4l0-15C274.1,137.1,271.8,133.2,269.1,131.6z"/>
				<rect x="118.6" y="71.8" transform="matrix(0.124 -0.9923 0.9923 0.124 32.5933 180.6122)" class="st7" width="0" height="0"/>
				<path class="st11" d="M268.4,250.7l0.3-92.4l0-15c0-3.2-2.2-7.1-5-8.7L123.7,54c-1.3-0.7-2.4-0.8-3.3-0.5
					c-1,0.5-1.7,1.6-1.7,3.3l0,15v0v0l-0.3,92.4c0,3.2,2.2,7.1,5,8.7l140.1,80.7c1.4,0.8,2.7,0.9,3.7,0.3
					C267.9,253.3,268.4,252.3,268.4,250.7z"/>
			</g>
			<g>
				<g>
					<path class="st9" d="M254.8,158.1l-0.2,75.7c0,1.3-0.4,2.1-1.1,2.6l0,0l3.5-2c0.1-0.1,0.2-0.1,0.3-0.2h0c0.6-0.5,1-1.3,1-2.5
						l0.2-75.7L254.8,158.1L254.8,158.1z"/>
					<path class="st13" d="M254.5,136.6L128.3,63.7c-1.2-0.7-2.3-0.7-3.1-0.2l-3.4,2l0,0c0.7-0.3,1.7-0.2,2.7,0.4l126.2,72.9
						c2.3,1.3,4.1,4.5,4.1,7.1l0,12.3l3.7-2.2l0-12.3C258.6,141,256.8,137.9,254.5,136.6z"/>
					<path class="st6" d="M254.6,233.8l0.2-75.7L120.4,80.5l-0.2,75.7c0,2.6,1.8,5.8,4.1,7.1l126.2,72.9c1.2,0.7,2.2,0.7,3,0.2
						C254.2,235.9,254.6,235,254.6,233.8z"/>
					<path class="st14" d="M254.8,158.1L254.8,158.1l0-12.3c0-2.6-1.8-5.8-4.1-7.1L124.5,65.8c-1-0.6-2-0.7-2.7-0.4
						c-0.9,0.4-1.4,1.3-1.4,2.7l0,12.3L254.8,158.1z"/>
				</g>
				<g>
					<g>
						<path class="st11" d="M222.9,183.8c1.6,0.9,2.9,3.1,2.9,5l0,5.2c0,1.8-1.3,2.6-2.9,1.7l-10.9-6.3c-1.6-0.9-2.9-3.1-2.9-5
							l0-5.2c0-1.8,1.3-2.6,2.9-1.7L222.9,183.8z"/>
					</g>
					<g>
						<path class="st11" d="M222.8,199.7c1.6,0.9,2.9,3.1,2.9,5l0,5.2c0,1.8-1.3,2.6-2.9,1.7l-10.9-6.3c-1.6-0.9-2.9-3.1-2.9-5
							l0-5.2c0-1.8,1.3-2.6,2.9-1.7L222.8,199.7z"/>
					</g>
					<g>
						<path class="st11" d="M203,156.5c1.6,0.9,2.9,3.1,2.9,5l0,5.2c0,1.8-1.3,2.6-2.9,1.7L192,162c-1.6-0.9-2.9-3.1-2.9-5l0-5.2
							c0-1.8,1.3-2.6,2.9-1.6L203,156.5z"/>
					</g>
					<g>
						<path class="st15" d="M203,140.6c1.6,0.9,2.9,3.1,2.9,5l0,5.2c0,1.8-1.3,2.6-2.9,1.7l-10.9-6.3c-1.6-0.9-2.9-3.1-2.9-5l0-5.2
							c0-1.8,1.3-2.6,2.9-1.6L203,140.6z"/>
					</g>
					<g>
						<path class="st11" d="M183,160.8c1.6,0.9,2.9,3.1,2.9,5l0,5.2c0,1.8-1.3,2.6-2.9,1.6l-10.9-6.3c-1.6-0.9-2.9-3.1-2.9-5l0-5.2
							c0-1.8,1.3-2.6,2.9-1.6L183,160.8z"/>
					</g>
					<g class="st10">
						<g>
							<path class="st11" d="M183,144.9c1.6,0.9,2.9,3.2,2.9,5l0,5.2c0,1.8-1.3,2.6-2.9,1.6l-10.9-6.3c-1.6-0.9-2.9-3.1-2.9-5l0-5.2
								c0-1.8,1.3-2.6,2.9-1.6L183,144.9z"/>
						</g>
						<g>
							<path class="st15" d="M183.1,129.1c1.6,0.9,2.9,3.2,2.9,5l0,5.2c0,1.8-1.3,2.6-2.9,1.6l-10.9-6.3c-1.6-0.9-2.9-3.1-2.9-5
								l0-5.2c0-1.8,1.3-2.6,2.9-1.6L183.1,129.1z"/>
						</g>
					</g>
					<g>
						<path class="st14" d="M202.9,172.3c1.6,0.9,2.9,3.1,2.9,5l0,5.2c0,1.8-1.3,2.6-2.9,1.7l-10.9-6.3c-1.6-0.9-2.9-3.1-2.9-5
							l0-5.2c0-1.8,1.3-2.6,2.9-1.6L202.9,172.3z"/>
					</g>
					<g>
						<path class="st15" d="M242.9,163.6c1.6,0.9,2.9,3.1,2.9,5l0,5.2c0,1.8-1.3,2.6-2.9,1.7l-10.9-6.3c-1.6-0.9-2.9-3.1-2.9-5
							l0-5.2c0-1.8,1.3-2.6,2.9-1.7L242.9,163.6z"/>
					</g>
					<g>
						<path class="st11" d="M242.8,179.5c1.6,0.9,2.9,3.1,2.9,5l0,5.2c0,1.8-1.3,2.6-2.9,1.7l-10.9-6.3c-1.6-0.9-2.9-3.1-2.9-5
							l0-5.2c0-1.8,1.3-2.6,2.9-1.7L242.8,179.5z"/>
					</g>
					<g>
						<path class="st14" d="M242.8,211.2c1.6,0.9,2.9,3.1,2.9,5l0,5.2c0,1.8-1.3,2.6-2.9,1.7l-10.9-6.3c-1.6-0.9-2.9-3.1-2.9-5
							l0-5.2c0-1.8,1.3-2.6,2.9-1.7L242.8,211.2z"/>
					</g>
					<g>
						<path class="st11" d="M242.8,195.3c1.6,0.9,2.9,3.1,2.9,5l0,5.2c0,1.8-1.3,2.6-2.9,1.7l-10.9-6.3c-1.6-0.9-2.9-3.1-2.9-5
							l0-5.2c0-1.8,1.3-2.6,2.9-1.7L242.8,195.3z"/>
					</g>
					<g>
						<path class="st11" d="M222.9,168c1.6,0.9,2.9,3.1,2.9,5l0,5.2c0,1.8-1.3,2.6-2.9,1.7l-10.9-6.3c-1.6-0.9-2.9-3.1-2.9-5l0-5.2
							c0-1.8,1.3-2.6,2.9-1.7L222.9,168z"/>
					</g>
					<g>
						<path class="st15" d="M223,152.1c1.6,0.9,2.9,3.1,2.9,5l0,5.2c0,1.8-1.3,2.6-2.9,1.7l-10.9-6.3c-1.6-0.9-2.9-3.1-2.9-5l0-5.2
							c0-1.8,1.3-2.6,2.9-1.7L223,152.1z"/>
					</g>
					<g>
						<path class="st11" d="M202.9,188.2c1.6,0.9,2.9,3.1,2.9,5l0,5.2c0,1.8-1.3,2.6-2.9,1.7l-10.9-6.3c-1.6-0.9-2.9-3.1-2.9-5
							l0-5.2c0-1.8,1.3-2.6,2.9-1.6L202.9,188.2z"/>
					</g>
					<g>
						<path class="st11" d="M163,165.1c1.6,0.9,2.9,3.1,2.9,5l0,5.2c0,1.8-1.3,2.6-2.9,1.6l-10.9-6.3c-1.6-0.9-2.9-3.1-2.9-5l0-5.2
							c0-1.8,1.3-2.6,2.9-1.6L163,165.1z"/>
					</g>
					<g>
						<path class="st16" d="M143.2,106.1c1.6,0.9,2.9,3.2,2.9,5l0,5.2c0,1.8-1.3,2.6-2.9,1.6l-10.9-6.3c-1.6-0.9-2.9-3.1-2.9-5
							l0-5.2c0-1.8,1.3-2.6,2.9-1.6L143.2,106.1z"/>
					</g>
					<g>
						<path class="st17" d="M143.1,121.9c1.6,0.9,2.9,3.2,2.9,5l0,5.2c0,1.8-1.3,2.6-2.9,1.6l-10.9-6.3c-1.6-0.9-2.9-3.1-2.9-5
							l0-5.2c0-1.8,1.3-2.6,2.9-1.6L143.1,121.9z"/>
					</g>
					<g>
						<path class="st17" d="M143.1,137.8c1.6,0.9,2.9,3.1,2.9,5l0,5.2c0,1.8-1.3,2.6-2.9,1.6l-10.9-6.3c-1.6-0.9-2.9-3.1-2.9-5
							l0-5.2c0-1.8,1.3-2.6,2.9-1.6L143.1,137.8z"/>
					</g>
					<g>
						<path class="st17" d="M143.1,153.6c1.6,0.9,2.9,3.1,2.9,5l0,5.2c0,1.8-1.3,2.6-2.9,1.6l-10.9-6.3c-1.6-0.9-2.9-3.1-2.9-5
							l0-5.2c0-1.8,1.3-2.6,2.9-1.6L143.1,153.6z"/>
					</g>
					<g>
						<path class="st15" d="M163.1,117.6c1.6,0.9,2.9,3.2,2.9,5l0,5.2c0,1.8-1.3,2.6-2.9,1.6l-10.9-6.3c-1.6-0.9-2.9-3.1-2.9-5
							l0-5.2c0-1.8,1.3-2.6,2.9-1.6L163.1,117.6z"/>
					</g>
					<g>
						<path class="st11" d="M163.1,133.4c1.6,0.9,2.9,3.2,2.9,5l0,5.2c0,1.8-1.3,2.6-2.9,1.6l-10.9-6.3c-1.6-0.9-2.9-3.1-2.9-5
							l0-5.2c0-1.8,1.3-2.6,2.9-1.6L163.1,133.4z"/>
					</g>
					<g>
						<path class="st11" d="M163,149.3c1.6,0.9,2.9,3.1,2.9,5l0,5.2c0,1.8-1.3,2.6-2.9,1.6l-10.9-6.3c-1.6-0.9-2.9-3.1-2.9-5l0-5.2
							c0-1.8,1.3-2.6,2.9-1.6L163,149.3z"/>
					</g>
					<g>
						<path class="st11" d="M182.9,176.6c1.6,0.9,2.9,3.1,2.9,5l0,5.2c0,1.8-1.3,2.6-2.9,1.6l-10.9-6.3c-1.6-0.9-2.9-3.1-2.9-5
							l0-5.2c0-1.8,1.3-2.6,2.9-1.6L182.9,176.6z"/>
					</g>
				</g>
				<g>
					<g>
						<path class="st18" d="M171.2,135.6c0.1,0.1,0.2,0.2,0.3,0.3c2.9,3.7,5.7,7.5,8.4,11.4c2-0.4,4.1-0.8,6.1-1.2
							c0.1,0,0.2,0,0.3,0.1c0.5,0.3,0.8,1.4,0.3,1.5c-1.9,0.4-3.8,0.8-5.7,1.1c2.4,3.6,4.7,7.2,6.9,10.9c0.4,0.8,0,1.2-0.5,0.9
							c-0.1-0.1-0.3-0.2-0.4-0.4c-2.3-3.8-4.6-7.6-7.1-11.2c-3.8,0.8-7.7,1.5-11.5,2.3c-0.1,0-0.2,0-0.3-0.1
							c-0.5-0.3-0.8-1.4-0.3-1.5c3.7-0.7,7.4-1.5,11.1-2.2c-2.5-3.7-5.2-7.3-7.9-10.8C170.3,136,170.6,135.3,171.2,135.6z"/>
					</g>
					<g>
						<path class="st18" d="M227.8,185.7c0.1,0.1,0.2,0.1,0.3,0.2c3.1,3.6,6.2,7.2,9.4,10.8c2.7-0.1,5.4-0.3,8.1-0.4
							c0.1,0,0.2,0,0.3,0.1c0.6,0.3,0.9,1.5,0.3,1.5c-2.4,0.1-4.9,0.2-7.4,0.4c3.2,3.7,6.4,7.4,9.6,11c0.6,0.7,0.2,1.4-0.3,1.1
							c-0.1-0.1-0.2-0.1-0.3-0.2c-3.4-3.9-6.8-7.9-10.3-11.8c-3.1,0.2-6.1,0.3-9.2,0.5c-0.1,0-0.2,0-0.3-0.1
							c-0.6-0.3-0.9-1.5-0.3-1.5c2.8-0.1,5.7-0.3,8.5-0.4c-2.9-3.3-5.8-6.7-8.7-10C226.9,186.1,227.2,185.4,227.8,185.7z"/>
					</g>
					<g>
						<path class="st18" d="M188.9,179.2c0.1,0.1,0.2,0.1,0.3,0.2c3.6,3.9,7,8.1,10.3,12.4c2.4-0.4,4.7-0.7,7.1-1.1
							c0.1,0,0.2,0,0.3,0.1c0.5,0.3,0.9,1.4,0.3,1.5c-2.2,0.3-4.4,0.7-6.5,1c2.3,3,4.5,6.1,6.6,9.3c0.5,0.7,0,1.2-0.5,0.9
							c-0.1-0.1-0.3-0.2-0.4-0.4c-2.2-3.3-4.5-6.5-6.9-9.6c-3.2,0.5-6.3,1-9.5,1.5c-0.1,0-0.2,0-0.3-0.1c-0.5-0.3-0.9-1.4-0.3-1.5
							c3-0.5,5.9-0.9,8.9-1.4c-3.1-4.1-6.4-8-9.8-11.7C188,179.6,188.4,178.9,188.9,179.2z"/>
					</g>
				</g>
			</g>
			<polygon class="st1" points="133.5,78.5 133.5,78.5 133.5,78.5 			"/>
			<path class="st1" d="M137.8,78.5C137.8,78.5,137.8,78.5,137.8,78.5C137.8,78.5,137.8,78.5,137.8,78.5
				C137.8,78.5,137.8,78.6,137.8,78.5L137.8,78.5C137.8,78.5,137.8,78.5,137.8,78.5z"/>
			<path class="st1" d="M144,83.2C144,83.2,144,83.2,144,83.2c0.2-0.1,0.4-0.2,0.6-0.3c1-0.6,2-1.3,2.9-2.1c0,0,0,0,0,0
				c0.1-0.1,0.2-0.2,0.3-0.3c0.1-0.1,0.2-0.2,0.3-0.3c0,0,0.1-0.1,0.1-0.1c0.1-0.1,0.3-0.3,0.4-0.4c0.1-0.1,0.2-0.2,0.3-0.3
				c0.1-0.1,0.2-0.2,0.2-0.3c0.5-0.6,0.9-1.2,1.4-1.8c0,0,0-0.1,0.1-0.1c0.1-0.2,0.2-0.4,0.4-0.5l0.2-0.3c0.1-0.1,0.1-0.2,0.2-0.3
				l0.4-0.7c0,0,0-0.1,0-0.1l0.4-0.8c0.1-0.1,0.1-0.3,0.3-0.6l0.2-0.5l0.2-0.5c0.1-0.2,0.2-0.5,0.3-0.7c0.6-1.6,0.9-3.2,1-4.6
				c0,0,0-0.1,0-0.1c0-0.2,0-0.3,0-0.5c0-0.1,0-0.2,0-0.3c0-0.2,0-0.4,0-0.5c0,0,0-0.1,0-0.1c-0.2-1.8-0.8-3.1-1.9-3.8
				c-0.6-0.3-1.2-0.4-1.9-0.4c0,0-0.1,0-0.1,0c-0.1,0-0.2,0-0.3,0c0,0,0,0,0,0c-0.1,0-0.2,0-0.3,0.1c-0.1,0-0.2,0-0.2,0.1
				c-0.6,0.2-1.3,0.4-2,0.8c-0.1,0-0.2,0.1-0.3,0.1c-0.1,0.1-0.2,0.1-0.3,0.2c-0.1,0.1-0.3,0.2-0.4,0.2c-0.1,0-0.1,0.1-0.2,0.1
				c-1.3,0.9-2.7,2.2-3.9,3.7c-0.1,0.1-0.1,0.2-0.2,0.2c-0.2,0.3-0.5,0.6-0.7,0.9l-0.3,0.4c0,0,0,0,0,0l-0.5,0.8l-0.4,0.7
				c-0.1,0.1-0.1,0.3-0.2,0.4l0,0c-0.4,0.8-0.7,1.5-1,2.2c-0.1,0.3-0.2,0.6-0.3,0.8c-0.5,1.5-0.8,3.1-0.9,4.8c0,0.4,0.1,0.9,0.1,1.3
				c0.1,0.6,0.2,1.2,0.4,1.8c0,0.1,0,0.1,0.1,0.2c0,0.1,0.1,0.1,0.1,0.2c0,0.1,0.1,0.1,0.1,0.2c0.3,0.5,0.7,1,1.2,1.4
				c0.1,0.1,0.3,0.1,0.5,0.2c0,0,0,0,0.1,0c0.5,0.2,1.1,0.2,1.7,0.1c0.1,0,0.1,0,0.2,0c0,0,0,0,0.1,0c0,0,0,0,0,0
				c0.1,0,0.2,0,0.4-0.1c0,0,0.1,0,0.1,0c0,0,0,0,0.1,0c0.2-0.1,0.4-0.2,0.6-0.2C143.5,83.4,143.7,83.3,144,83.2z"/>
			<path class="st1" d="M138.8,73.4C138.8,73.4,138.8,73.3,138.8,73.4C138.8,73.3,138.8,73.4,138.8,73.4
				C138.8,73.4,138.8,73.4,138.8,73.4z"/>
			<path class="st6" d="M149.1,57.6C149.1,57.6,149.1,57.6,149.1,57.6C149.2,57.6,149.1,57.6,149.1,57.6
				C149.1,57.6,149.1,57.6,149.1,57.6z"/>
			<path class="st19" d="M133.5,78.5c0,0,0-0.1,0-0.1"/>
			<path class="st1" d="M138.8,73.4C138.8,73.4,138.8,73.3,138.8,73.4C138.8,73.3,138.8,73.4,138.8,73.4
				C138.8,73.4,138.8,73.4,138.8,73.4z"/>
			<polygon class="st1" points="133.5,78.5 133.5,78.5 133.5,78.5 			"/>
			<path class="st1" d="M137.8,78.5C137.8,78.5,137.8,78.5,137.8,78.5C137.8,78.5,137.8,78.5,137.8,78.5
				C137.8,78.5,137.8,78.6,137.8,78.5L137.8,78.5C137.8,78.5,137.8,78.5,137.8,78.5z"/>
			<g>
				<path class="st13" d="M143.9,82.4c-0.4-0.2-0.8-0.3-1.1-0.4c-0.4,0-0.8,0.1-1,0.3c-0.4,0.3-0.6,0.9-0.6,1.6
					c0,1.8,1.2,3.9,2.8,4.8c0.3,0.2,0.6,0.3,0.9,0.3c0.6,0.1,1.1,0,1.4-0.4c0.3-0.3,0.5-0.8,0.5-1.5
					C146.7,85.4,145.5,83.3,143.9,82.4z"/>
				<path class="st3" d="M158.2,65.5c0-0.4-0.1-0.8-0.2-1.2c0,0,0,0,0,0c0,0,0-0.1,0-0.1l0,0c0,0,0,0,0,0c0,0,0,0,0,0
					c0-0.1,0-0.2-0.1-0.3c0,0,0-0.1,0-0.1c0,0,0,0,0,0c0,0,0,0,0,0c0,0,0-0.1,0-0.1c0-0.1,0-0.1,0-0.2c0,0,0,0,0,0c0,0,0,0,0,0
					c0,0,0,0,0,0c0-0.1-0.1-0.2-0.1-0.3c0,0,0,0,0,0c0,0,0,0,0,0c0,0,0,0,0,0c0-0.1-0.1-0.2-0.1-0.2c-0.7-2.1-2.1-3.6-3.8-4.5
					c-0.1,0-0.1-0.1-0.2-0.1c0,0-0.1,0-0.1,0c0,0,0,0-0.1,0c0,0,0,0,0,0c0,0,0,0,0,0l0,0c0,0-0.1,0-0.1,0c0,0,0,0,0,0
					c-0.3-0.1-0.5-0.2-0.7-0.2c0,0,0,0-0.1,0c0,0-0.1,0-0.1,0l0,0l-0.2,0c0,0,0,0,0,0c0,0-0.1,0-0.1,0l0,0c0,0-0.1,0-0.1,0
					c0,0,0,0,0,0l0,0l0.1,0c-0.1,0-0.3-0.1-0.4-0.1c-0.1,0-0.1,0-0.2,0c0,0-0.1,0-0.1,0c-0.1,0-0.2,0-0.2,0l-0.1,0l-0.2,0
					c0,0,0,0-0.1,0c0,0,0,0,0,0l0,0l0,0c0,0,0,0,0,0c0,0-0.1,0-0.1,0c0,0,0,0,0,0l-0.1,0c-0.2,0-0.3,0-0.5,0c-0.1,0-0.3,0-0.5,0
					c0,0-0.1,0-0.1,0c0,0-0.1,0-0.1,0c0,0,0,0,0,0l0,0c0,0-0.1,0-0.1,0c-0.2,0-0.4,0.1-0.5,0.1c0,0,0,0,0,0l0,0c0,0,0,0,0,0
					c0,0,0,0,0,0c-0.1,0-0.5,0.1-1.1,0.3c0,0-0.1,0-0.1,0c0,0-0.1,0-0.1,0c0,0,0,0,0,0c-0.5,0.1-1.1,0.4-1.8,0.8
					c-2.6,1.3-5.1,3.6-7.4,6.9c0,0-0.1,0.1-0.1,0.1c0,0.1-0.1,0.1-0.1,0.2c-0.1,0.1-0.2,0.2-0.2,0.3c-0.1,0.2-0.2,0.3-0.3,0.5
					c0,0,0,0,0,0c-0.1,0.2-0.2,0.4-0.3,0.5c0,0,0,0.1,0,0.1c-0.1,0.2-0.2,0.3-0.3,0.5c-0.1,0.1-0.1,0.2-0.2,0.3c0,0,0,0,0,0
					c0,0,0,0,0,0c-0.1,0.2-0.2,0.3-0.3,0.5c0,0.1-0.1,0.1-0.1,0.2c-0.5,1-1,2-1.3,3c-0.4,1.2-0.7,2.3-0.9,3.5
					c-0.1,0.3-0.1,0.6-0.1,0.9c0,0.1,0,0.3-0.1,0.5c0,0.2,0,0.3-0.1,0.5l0,0c0,0,0,0,0,0c0,0.3,0,0.7-0.1,1.2c0,0,0,0,0,0
					c0,0,0,0,0,0c0,0,0,0,0,0c0,0,0,0,0,0c0,0,0,0,0,0l0,0c0,0,0,0,0,0c0,0.2,0,0.4,0,0.6c0,0,0,0,0,0c0,0.1,0,0.2,0,0.3l0,0
					c0,0,0,0,0,0c0,0.1,0,0.2,0,0.3c0,0.2,0,0.4,0.1,0.6c0,0,0,0,0,0c0,0,0,0,0,0.1c0,0,0,0,0,0c0,0.1,0,0.2,0,0.3c0,0,0,0.1,0,0.1
					c0,0.1,0,0.1,0,0.2c0,0,0,0,0,0.1c0,0,0,0,0,0c0,0.1,0,0.2,0.1,0.3c0,0,0,0.1,0,0.1l0,0c0,0,0,0,0,0c0.1,0.4,0.2,0.8,0.3,1.1
					c0,0,0,0.1,0,0.1c0,0,0,0,0,0l0,0c0,0.1,0.1,0.2,0.1,0.4l0,0.1c0,0,0,0.1,0,0.1c0,0,0,0,0,0l0,0.1c0,0,0,0,0,0.1
					c0,0.1,0.1,0.2,0.1,0.3c0,0,0,0,0,0c0,0,0,0,0,0.1c0.1,0.1,0.1,0.3,0.2,0.4c0,0.1,0.1,0.1,0.1,0.2c0,0,0.1,0.1,0.1,0.1
					c0.4,0.6,0.8,1.2,1.4,1.6c0.9,0.8,1.9,1.3,3.1,1.6c0.1,0,0.2,0,0.3,0.1c1.3,0.3,2.7,0.2,4.1-0.2c0.2,0,0.4-0.1,0.6-0.1
					c0.3,0.1,0.6,0,0.8-0.3c0.2-0.2,0.3-0.5,0.3-0.9c0-1-0.7-2.3-1.6-2.8c-0.2-0.1-0.5-0.2-0.7-0.2c-0.2,0-0.4,0.1-0.6,0.2
					c0,0,0,0-0.1,0c0,0-0.1,0-0.1,0c-0.1,0-0.2,0.1-0.4,0.1c0,0,0,0,0,0c0,0,0,0-0.1,0c-0.1,0-0.1,0-0.2,0c-0.6,0.1-1.2,0-1.7-0.1
					c0,0,0,0-0.1,0c-0.2-0.1-0.3-0.1-0.5-0.2c-0.6-0.3-1-0.8-1.2-1.4c0-0.1-0.1-0.1-0.1-0.2c0-0.1-0.1-0.1-0.1-0.2
					c0-0.1,0-0.1-0.1-0.2c-0.2-0.6-0.3-1.2-0.4-1.8c0-0.4-0.1-0.9-0.1-1.3c0.1-1.7,0.4-3.3,0.9-4.8c0.1-0.3,0.2-0.5,0.3-0.8
					c0.3-0.7,0.6-1.4,1-2.2l0,0c0.1-0.1,0.1-0.3,0.2-0.4l0.4-0.7l0.5-0.8c0,0,0,0,0,0l0.3-0.4c0.2-0.3,0.4-0.6,0.7-0.9
					c0.1-0.1,0.1-0.2,0.2-0.2c1.2-1.5,2.5-2.8,3.9-3.7c0,0,0.1-0.1,0.2-0.1c0.1-0.1,0.3-0.2,0.4-0.2c0.1-0.1,0.2-0.1,0.3-0.2
					c0.1,0,0.2-0.1,0.3-0.1c0.7-0.4,1.4-0.6,2-0.8c0.1,0,0.2,0,0.2-0.1c0.1,0,0.2,0,0.3-0.1c0,0,0,0,0,0c0.1,0,0.2,0,0.3,0
					c0,0,0.1,0,0.1,0c0.7,0,1.3,0.1,1.9,0.4c0.9,0.6,1.5,1.7,1.8,3.1l4.5,2.6C158.5,67,158.4,66.2,158.2,65.5z M137.8,78.6
					C137.8,78.6,137.8,78.5,137.8,78.6C137.8,78.5,137.8,78.5,137.8,78.6C137.8,78.5,137.8,78.5,137.8,78.6
					C137.8,78.5,137.8,78.5,137.8,78.6L137.8,78.6z M138.8,73.4C138.8,73.4,138.8,73.4,138.8,73.4C138.8,73.4,138.8,73.3,138.8,73.4
					C138.8,73.3,138.8,73.4,138.8,73.4z"/>
			</g>
			<g>
				<path class="st13" d="M173,99.1c-0.4-0.2-0.8-0.3-1.1-0.4c-0.4,0-0.8,0.1-1,0.3c-0.4,0.3-0.6,0.9-0.6,1.6c0,1.8,1.2,3.9,2.8,4.8
					c0.3,0.2,0.6,0.3,0.9,0.3c0.6,0.1,1.1,0,1.4-0.4c0.3-0.3,0.5-0.8,0.5-1.5C175.7,102.2,174.5,100,173,99.1z"/>
				<path class="st3" d="M187.3,82.3c0-0.4-0.1-0.8-0.2-1.2c0,0,0,0,0,0c0,0,0-0.1,0-0.1l0,0c0,0,0,0,0,0c0,0,0,0,0,0
					c0-0.1,0-0.2-0.1-0.3c0,0,0-0.1,0-0.1c0,0,0,0,0,0c0,0,0,0,0,0c0,0,0-0.1,0-0.1c0-0.1,0-0.1,0-0.2c0,0,0,0,0,0c0,0,0,0,0,0
					c0,0,0,0,0,0c0-0.1-0.1-0.2-0.1-0.3c0,0,0,0,0,0c0,0,0,0,0,0c0,0,0,0,0,0c0-0.1-0.1-0.2-0.1-0.2c-0.7-2.1-2.1-3.6-3.8-4.5
					c-0.1,0-0.1-0.1-0.2-0.1c0,0-0.1,0-0.1,0c0,0,0,0-0.1,0c0,0,0,0,0,0c0,0,0,0,0,0l0,0c0,0-0.1,0-0.1,0c0,0,0,0,0,0
					c-0.3-0.1-0.5-0.2-0.7-0.2c0,0,0,0-0.1,0c0,0-0.1,0-0.1,0l0,0l-0.2,0c0,0,0,0,0,0c0,0-0.1,0-0.1,0l0,0c0,0-0.1,0-0.1,0
					c0,0,0,0,0,0l0,0l0.1,0c-0.1,0-0.3-0.1-0.4-0.1c-0.1,0-0.1,0-0.2,0c0,0-0.1,0-0.1,0c-0.1,0-0.2,0-0.2,0l-0.1,0l-0.2,0
					c0,0,0,0-0.1,0c0,0,0,0,0,0l0,0l0,0c0,0,0,0,0,0c0,0-0.1,0-0.1,0c0,0,0,0,0,0l-0.1,0c-0.2,0-0.3,0-0.5,0c-0.1,0-0.3,0-0.5,0
					c0,0-0.1,0-0.1,0c0,0-0.1,0-0.1,0c0,0,0,0,0,0l0,0c0,0-0.1,0-0.1,0c-0.2,0-0.4,0.1-0.5,0.1c0,0,0,0,0,0l0,0c0,0,0,0,0,0
					c0,0,0,0,0,0c-0.1,0-0.5,0.1-1.1,0.3c0,0-0.1,0-0.1,0c0,0-0.1,0-0.1,0c0,0,0,0,0,0c-0.5,0.1-1.1,0.4-1.8,0.8
					c-2.6,1.3-5.1,3.6-7.4,6.9c0,0-0.1,0.1-0.1,0.1c0,0.1-0.1,0.1-0.1,0.2c-0.1,0.1-0.2,0.2-0.2,0.3c-0.1,0.2-0.2,0.3-0.3,0.5
					c0,0,0,0,0,0c-0.1,0.2-0.2,0.4-0.3,0.5c0,0,0,0.1,0,0.1c-0.1,0.2-0.2,0.3-0.3,0.5c-0.1,0.1-0.1,0.2-0.2,0.3c0,0,0,0,0,0
					c0,0,0,0,0,0c-0.1,0.2-0.2,0.3-0.3,0.5c0,0.1-0.1,0.1-0.1,0.2c-0.5,1-1,2-1.3,3c-0.4,1.2-0.7,2.3-0.9,3.5
					c-0.1,0.3-0.1,0.6-0.1,0.9c0,0.1,0,0.3-0.1,0.5c0,0.2,0,0.3-0.1,0.5l0,0c0,0,0,0,0,0c0,0.3,0,0.7-0.1,1.2c0,0,0,0,0,0
					c0,0,0,0,0,0c0,0,0,0,0,0c0,0,0,0,0,0c0,0,0,0,0,0l0,0c0,0,0,0,0,0c0,0.2,0,0.4,0,0.6c0,0,0,0,0,0c0,0.1,0,0.2,0,0.3l0,0
					c0,0,0,0,0,0c0,0.1,0,0.2,0,0.3c0,0.2,0,0.4,0.1,0.6c0,0,0,0,0,0c0,0,0,0,0,0.1c0,0,0,0,0,0c0,0.1,0,0.2,0,0.3c0,0,0,0.1,0,0.1
					c0,0.1,0,0.1,0,0.2c0,0,0,0,0,0.1c0,0,0,0,0,0c0,0.1,0,0.2,0.1,0.3c0,0,0,0.1,0,0.1l0,0c0,0,0,0,0,0c0.1,0.4,0.2,0.8,0.3,1.1
					c0,0,0,0.1,0,0.1c0,0,0,0,0,0l0,0c0,0.1,0.1,0.2,0.1,0.4l0,0.1c0,0,0,0.1,0,0.1c0,0,0,0,0,0l0,0.1c0,0,0,0,0,0.1
					c0,0.1,0.1,0.2,0.1,0.3c0,0,0,0,0,0c0,0,0,0,0,0.1c0.1,0.1,0.1,0.3,0.2,0.4c0,0.1,0.1,0.1,0.1,0.2c0,0,0.1,0.1,0.1,0.1
					c0.4,0.6,0.8,1.2,1.4,1.6c0.9,0.8,1.9,1.3,3.1,1.6c0.1,0,0.2,0,0.3,0.1c1.3,0.3,2.7,0.2,4.1-0.2c0.2,0,0.4-0.1,0.6-0.1
					c0.3,0.1,0.6,0,0.8-0.3c0.2-0.2,0.3-0.5,0.3-0.9c0-1-0.7-2.3-1.6-2.8c-0.2-0.1-0.5-0.2-0.7-0.2c-0.2,0-0.4,0.1-0.6,0.2
					c0,0,0,0-0.1,0c0,0-0.1,0-0.1,0c-0.1,0-0.2,0.1-0.4,0.1c0,0,0,0,0,0c0,0,0,0-0.1,0c-0.1,0-0.1,0-0.2,0c-0.6,0.1-1.2,0-1.7-0.1
					c0,0,0,0-0.1,0c-0.2-0.1-0.3-0.1-0.5-0.2c-0.6-0.3-1-0.8-1.2-1.4c0-0.1-0.1-0.1-0.1-0.2c0-0.1-0.1-0.1-0.1-0.2
					c0-0.1,0-0.1-0.1-0.2c-0.2-0.6-0.3-1.2-0.4-1.8c0-0.4-0.1-0.9-0.1-1.3c0.1-1.7,0.4-3.3,0.9-4.8c0.1-0.3,0.2-0.5,0.3-0.8
					c0.3-0.7,0.6-1.4,1-2.2l0,0c0.1-0.1,0.1-0.3,0.2-0.4l0.4-0.7l0.5-0.8c0,0,0,0,0,0l0.3-0.4c0.2-0.3,0.4-0.6,0.7-0.9
					c0.1-0.1,0.1-0.2,0.2-0.2c1.2-1.5,2.5-2.8,3.9-3.7c0,0,0.1-0.1,0.2-0.1c0.1-0.1,0.3-0.2,0.4-0.2c0.1-0.1,0.2-0.1,0.3-0.2
					c0.1,0,0.2-0.1,0.3-0.1c0.7-0.4,1.4-0.6,2-0.8c0.1,0,0.2,0,0.2-0.1c0.1,0,0.2,0,0.3-0.1c0,0,0,0,0,0c0.1,0,0.2,0,0.3,0
					c0,0,0.1,0,0.1,0c0.7,0,1.3,0.1,1.9,0.4c0.9,0.6,1.5,1.7,1.8,3.1l4.5,2.6C187.5,83.7,187.5,82.9,187.3,82.3z M166.8,95.3
					C166.8,95.3,166.8,95.3,166.8,95.3C166.8,95.3,166.8,95.3,166.8,95.3C166.8,95.3,166.8,95.3,166.8,95.3
					C166.8,95.3,166.8,95.3,166.8,95.3L166.8,95.3z M167.8,90.2C167.8,90.1,167.8,90.1,167.8,90.2C167.8,90.1,167.8,90.1,167.8,90.2
					C167.8,90.1,167.8,90.1,167.8,90.2z"/>
			</g>
			<g>
				<path class="st13" d="M202,115.9c-0.4-0.2-0.8-0.3-1.1-0.4c-0.4,0-0.8,0.1-1,0.3c-0.4,0.3-0.6,0.9-0.6,1.6
					c0,1.8,1.2,3.9,2.8,4.8c0.3,0.2,0.6,0.3,0.9,0.3c0.6,0.1,1.1,0,1.4-0.4c0.3-0.3,0.5-0.8,0.5-1.5
					C204.8,118.9,203.6,116.8,202,115.9z"/>
				<path class="st3" d="M216.3,99c0-0.4-0.1-0.8-0.2-1.2c0,0,0,0,0,0c0,0,0-0.1,0-0.1l0,0c0,0,0,0,0,0c0,0,0,0,0,0
					c0-0.1,0-0.2-0.1-0.3c0,0,0-0.1,0-0.1c0,0,0,0,0,0c0,0,0,0,0,0c0,0,0-0.1,0-0.1c0-0.1,0-0.1,0-0.2c0,0,0,0,0,0c0,0,0,0,0,0
					c0,0,0,0,0,0c0-0.1-0.1-0.2-0.1-0.3c0,0,0,0,0,0c0,0,0,0,0,0c0,0,0,0,0,0c0-0.1-0.1-0.2-0.1-0.2c-0.7-2.1-2.1-3.6-3.8-4.5
					c-0.1,0-0.1-0.1-0.2-0.1c0,0-0.1,0-0.1,0c0,0,0,0-0.1,0c0,0,0,0,0,0c0,0,0,0,0,0l0,0c0,0-0.1,0-0.1,0c0,0,0,0,0,0
					c-0.3-0.1-0.5-0.2-0.7-0.2c0,0,0,0-0.1,0c0,0-0.1,0-0.1,0l0,0l-0.2,0c0,0,0,0,0,0c0,0-0.1,0-0.1,0l0,0c0,0-0.1,0-0.1,0
					c0,0,0,0,0,0l0,0l0.1,0c-0.1,0-0.3-0.1-0.4-0.1c-0.1,0-0.1,0-0.2,0c0,0-0.1,0-0.1,0c-0.1,0-0.2,0-0.2,0l-0.1,0l-0.2,0
					c0,0,0,0-0.1,0c0,0,0,0,0,0l0,0l0,0c0,0,0,0,0,0c0,0-0.1,0-0.1,0c0,0,0,0,0,0l-0.1,0c-0.2,0-0.3,0-0.5,0c-0.1,0-0.3,0-0.5,0
					c0,0-0.1,0-0.1,0c0,0-0.1,0-0.1,0c0,0,0,0,0,0l0,0c0,0-0.1,0-0.1,0c-0.2,0-0.4,0.1-0.5,0.1c0,0,0,0,0,0l0,0c0,0,0,0,0,0
					c0,0,0,0,0,0c-0.1,0-0.5,0.1-1.1,0.3c0,0-0.1,0-0.1,0c0,0-0.1,0-0.1,0c0,0,0,0,0,0c-0.5,0.1-1.1,0.4-1.8,0.8
					c-2.6,1.3-5.1,3.6-7.4,6.9c0,0-0.1,0.1-0.1,0.1c0,0.1-0.1,0.1-0.1,0.2c-0.1,0.1-0.2,0.2-0.2,0.3c-0.1,0.2-0.2,0.3-0.3,0.5
					c0,0,0,0,0,0c-0.1,0.2-0.2,0.4-0.3,0.5c0,0,0,0.1,0,0.1c-0.1,0.2-0.2,0.3-0.3,0.5c-0.1,0.1-0.1,0.2-0.2,0.3c0,0,0,0,0,0
					c0,0,0,0,0,0c-0.1,0.2-0.2,0.3-0.3,0.5c0,0.1-0.1,0.1-0.1,0.2c-0.5,1-1,2-1.3,3c-0.4,1.2-0.7,2.3-0.9,3.5
					c-0.1,0.3-0.1,0.6-0.1,0.9c0,0.1,0,0.3-0.1,0.5c0,0.2,0,0.3-0.1,0.5l0,0c0,0,0,0,0,0c0,0.3,0,0.7-0.1,1.2c0,0,0,0,0,0
					c0,0,0,0,0,0c0,0,0,0,0,0c0,0,0,0,0,0c0,0,0,0,0,0l0,0c0,0,0,0,0,0c0,0.2,0,0.4,0,0.6c0,0,0,0,0,0c0,0.1,0,0.2,0,0.3l0,0
					c0,0,0,0,0,0c0,0.1,0,0.2,0,0.3c0,0.2,0,0.4,0.1,0.6c0,0,0,0,0,0c0,0,0,0,0,0.1c0,0,0,0,0,0c0,0.1,0,0.2,0,0.3c0,0,0,0.1,0,0.1
					c0,0.1,0,0.1,0,0.2c0,0,0,0,0,0.1c0,0,0,0,0,0c0,0.1,0,0.2,0.1,0.3c0,0,0,0.1,0,0.1l0,0c0,0,0,0,0,0c0.1,0.4,0.2,0.8,0.3,1.1
					c0,0,0,0.1,0,0.1c0,0,0,0,0,0l0,0c0,0.1,0.1,0.2,0.1,0.4l0,0.1c0,0,0,0.1,0,0.1c0,0,0,0,0,0l0,0.1c0,0,0,0,0,0.1
					c0,0.1,0.1,0.2,0.1,0.3c0,0,0,0,0,0c0,0,0,0,0,0.1c0.1,0.1,0.1,0.3,0.2,0.4c0,0.1,0.1,0.1,0.1,0.2c0,0,0.1,0.1,0.1,0.1
					c0.4,0.6,0.8,1.2,1.4,1.6c0.9,0.8,1.9,1.3,3.1,1.6c0.1,0,0.2,0,0.3,0.1c1.3,0.3,2.7,0.2,4.1-0.2c0.2,0,0.4-0.1,0.6-0.1
					c0.3,0.1,0.6,0,0.8-0.3c0.2-0.2,0.3-0.5,0.3-0.9c0-1-0.7-2.3-1.6-2.8c-0.2-0.1-0.5-0.2-0.7-0.2c-0.2,0-0.4,0.1-0.6,0.2
					c0,0,0,0-0.1,0c0,0-0.1,0-0.1,0c-0.1,0-0.2,0.1-0.4,0.1c0,0,0,0,0,0c0,0,0,0-0.1,0c-0.1,0-0.1,0-0.2,0c-0.6,0.1-1.2,0-1.7-0.1
					c0,0,0,0-0.1,0c-0.2-0.1-0.3-0.1-0.5-0.2c-0.6-0.3-1-0.8-1.2-1.4c0-0.1-0.1-0.1-0.1-0.2c0-0.1-0.1-0.1-0.1-0.2
					c0-0.1,0-0.1-0.1-0.2c-0.2-0.6-0.3-1.2-0.4-1.8c0-0.4-0.1-0.9-0.1-1.3c0.1-1.7,0.4-3.3,0.9-4.8c0.1-0.3,0.2-0.5,0.3-0.8
					c0.3-0.7,0.6-1.4,1-2.2l0,0c0.1-0.1,0.1-0.3,0.2-0.4l0.4-0.7l0.5-0.8c0,0,0,0,0,0l0.3-0.4c0.2-0.3,0.4-0.6,0.7-0.9
					c0.1-0.1,0.1-0.2,0.2-0.2c1.2-1.5,2.5-2.8,3.9-3.7c0,0,0.1-0.1,0.2-0.1c0.1-0.1,0.3-0.2,0.4-0.2c0.1-0.1,0.2-0.1,0.3-0.2
					c0.1,0,0.2-0.1,0.3-0.1c0.7-0.4,1.4-0.6,2-0.8c0.1,0,0.2,0,0.2-0.1c0.1,0,0.2,0,0.3-0.1c0,0,0,0,0,0c0.1,0,0.2,0,0.3,0
					c0,0,0.1,0,0.1,0c0.7,0,1.3,0.1,1.9,0.4c0.9,0.6,1.5,1.7,1.8,3.1l4.5,2.6C216.6,100.4,216.5,99.7,216.3,99z M195.9,112
					C195.9,112,195.9,112,195.9,112L195.9,112C195.9,112,195.9,112,195.9,112C195.9,112,195.9,112,195.9,112L195.9,112z
					 M196.9,106.9C196.9,106.9,196.9,106.9,196.9,106.9C196.9,106.8,196.9,106.8,196.9,106.9C196.9,106.8,196.9,106.8,196.9,106.9z"
					/>
			</g>
			<g>
				<path class="st13" d="M231.1,132.6c-0.4-0.2-0.8-0.3-1.1-0.4c-0.4,0-0.8,0.1-1,0.3c-0.4,0.3-0.6,0.9-0.6,1.6
					c0,1.8,1.2,3.9,2.8,4.8c0.3,0.2,0.6,0.3,0.9,0.3c0.6,0.1,1.1,0,1.4-0.4c0.3-0.3,0.5-0.8,0.5-1.5
					C233.9,135.6,232.6,133.5,231.1,132.6z"/>
				<path class="st3" d="M245.4,115.7c0-0.4-0.1-0.8-0.2-1.2c0,0,0,0,0,0c0,0,0-0.1,0-0.1l0,0c0,0,0,0,0,0c0,0,0,0,0,0
					c0-0.1,0-0.2-0.1-0.3c0,0,0-0.1,0-0.1c0,0,0,0,0,0c0,0,0,0,0,0c0,0,0-0.1,0-0.1c0-0.1,0-0.1,0-0.2c0,0,0,0,0,0c0,0,0,0,0,0
					c0,0,0,0,0,0c0-0.1-0.1-0.2-0.1-0.3c0,0,0,0,0,0c0,0,0,0,0,0c0,0,0,0,0,0c0-0.1-0.1-0.2-0.1-0.2c-0.7-2.1-2.1-3.6-3.8-4.5
					c-0.1,0-0.1-0.1-0.2-0.1c0,0-0.1,0-0.1,0c0,0,0,0-0.1,0c0,0,0,0,0,0c0,0,0,0,0,0l0,0c0,0-0.1,0-0.1,0c0,0,0,0,0,0
					c-0.3-0.1-0.5-0.2-0.7-0.2c0,0,0,0-0.1,0c0,0-0.1,0-0.1,0l0,0l-0.2,0c0,0,0,0,0,0c0,0-0.1,0-0.1,0l0,0c0,0-0.1,0-0.1,0
					c0,0,0,0,0,0l0,0l0.1,0c-0.1,0-0.3-0.1-0.4-0.1c-0.1,0-0.1,0-0.2,0c0,0-0.1,0-0.1,0c-0.1,0-0.2,0-0.2,0l-0.1,0l-0.2,0
					c0,0,0,0-0.1,0c0,0,0,0,0,0l0,0l0,0c0,0,0,0,0,0c0,0-0.1,0-0.1,0c0,0,0,0,0,0l-0.1,0c-0.2,0-0.3,0-0.5,0c-0.1,0-0.3,0-0.5,0
					c0,0-0.1,0-0.1,0c0,0-0.1,0-0.1,0c0,0,0,0,0,0l0,0c0,0-0.1,0-0.1,0c-0.2,0-0.4,0.1-0.5,0.1c0,0,0,0,0,0l0,0c0,0,0,0,0,0
					c0,0,0,0,0,0c-0.1,0-0.5,0.1-1.1,0.3c0,0-0.1,0-0.1,0c0,0-0.1,0-0.1,0c0,0,0,0,0,0c-0.5,0.1-1.1,0.4-1.8,0.8
					c-2.6,1.3-5.1,3.6-7.4,6.9c0,0-0.1,0.1-0.1,0.1c0,0.1-0.1,0.1-0.1,0.2c-0.1,0.1-0.2,0.2-0.2,0.3c-0.1,0.2-0.2,0.3-0.3,0.5
					c0,0,0,0,0,0c-0.1,0.2-0.2,0.4-0.3,0.5c0,0,0,0.1,0,0.1c-0.1,0.2-0.2,0.3-0.3,0.5c-0.1,0.1-0.1,0.2-0.2,0.3c0,0,0,0,0,0
					c0,0,0,0,0,0c-0.1,0.2-0.2,0.3-0.3,0.5c0,0.1-0.1,0.1-0.1,0.2c-0.5,1-1,2-1.3,3c-0.4,1.2-0.7,2.3-0.9,3.5
					c-0.1,0.3-0.1,0.6-0.1,0.9c0,0.1,0,0.3-0.1,0.5c0,0.2,0,0.3-0.1,0.5l0,0c0,0,0,0,0,0c0,0.3,0,0.7-0.1,1.2c0,0,0,0,0,0
					c0,0,0,0,0,0c0,0,0,0,0,0c0,0,0,0,0,0c0,0,0,0,0,0l0,0c0,0,0,0,0,0c0,0.2,0,0.4,0,0.6c0,0,0,0,0,0c0,0.1,0,0.2,0,0.3l0,0
					c0,0,0,0,0,0c0,0.1,0,0.2,0,0.3c0,0.2,0,0.4,0.1,0.6c0,0,0,0,0,0c0,0,0,0,0,0.1c0,0,0,0,0,0c0,0.1,0,0.2,0,0.3c0,0,0,0.1,0,0.1
					c0,0.1,0,0.1,0,0.2c0,0,0,0,0,0.1c0,0,0,0,0,0c0,0.1,0,0.2,0.1,0.3c0,0,0,0.1,0,0.1l0,0c0,0,0,0,0,0c0.1,0.4,0.2,0.8,0.3,1.1
					c0,0,0,0.1,0,0.1c0,0,0,0,0,0l0,0c0,0.1,0.1,0.2,0.1,0.4l0,0.1c0,0,0,0.1,0,0.1c0,0,0,0,0,0l0,0.1c0,0,0,0,0,0.1
					c0,0.1,0.1,0.2,0.1,0.3c0,0,0,0,0,0c0,0,0,0,0,0.1c0.1,0.1,0.1,0.3,0.2,0.4c0,0.1,0.1,0.1,0.1,0.2c0,0,0.1,0.1,0.1,0.1
					c0.4,0.6,0.8,1.2,1.4,1.6c0.9,0.8,1.9,1.3,3.1,1.6c0.1,0,0.2,0,0.3,0.1c1.3,0.3,2.7,0.2,4.1-0.2c0.2,0,0.4-0.1,0.6-0.1
					c0.3,0.1,0.6,0,0.8-0.3c0.2-0.2,0.3-0.5,0.3-0.9c0-1-0.7-2.3-1.6-2.8c-0.2-0.1-0.5-0.2-0.7-0.2c-0.2,0-0.4,0.1-0.6,0.2
					c0,0,0,0-0.1,0c0,0-0.1,0-0.1,0c-0.1,0-0.2,0.1-0.4,0.1c0,0,0,0,0,0c0,0,0,0-0.1,0c-0.1,0-0.1,0-0.2,0c-0.6,0.1-1.2,0-1.7-0.1
					c0,0,0,0-0.1,0c-0.2-0.1-0.3-0.1-0.5-0.2c-0.6-0.3-1-0.8-1.2-1.4c0-0.1-0.1-0.1-0.1-0.2c0-0.1-0.1-0.1-0.1-0.2
					c0-0.1,0-0.1-0.1-0.2c-0.2-0.6-0.3-1.2-0.4-1.8c0-0.4-0.1-0.9-0.1-1.3c0.1-1.7,0.4-3.3,0.9-4.8c0.1-0.3,0.2-0.5,0.3-0.8
					c0.3-0.7,0.6-1.4,1-2.2l0,0c0.1-0.1,0.1-0.3,0.2-0.4l0.4-0.7l0.5-0.8c0,0,0,0,0,0l0.3-0.4c0.2-0.3,0.4-0.6,0.7-0.9
					c0.1-0.1,0.1-0.2,0.2-0.2c1.2-1.5,2.5-2.8,3.9-3.7c0,0,0.1-0.1,0.2-0.1c0.1-0.1,0.3-0.2,0.4-0.3c0.1-0.1,0.2-0.1,0.3-0.2
					c0.1,0,0.2-0.1,0.3-0.1c0.7-0.4,1.4-0.6,2-0.8c0.1,0,0.2,0,0.2-0.1c0.1,0,0.2,0,0.3-0.1c0,0,0,0,0,0c0.1,0,0.2,0,0.3,0
					c0,0,0.1,0,0.1,0c0.7,0,1.3,0.1,1.9,0.4c0.9,0.6,1.5,1.7,1.8,3.1l4.5,2.6C245.6,117.2,245.6,116.4,245.4,115.7z M224.9,128.8
					C224.9,128.8,224.9,128.8,224.9,128.8C224.9,128.8,224.9,128.8,224.9,128.8C224.9,128.8,224.9,128.8,224.9,128.8
					C224.9,128.8,224.9,128.8,224.9,128.8L224.9,128.8z M225.9,123.6C225.9,123.6,225.9,123.6,225.9,123.6
					C225.9,123.6,226,123.6,225.9,123.6C226,123.6,225.9,123.6,225.9,123.6z"/>
			</g>
		</g>
		<g>
			<path class="st5" d="M292.7,342.6l126.4,73c1.6,0.9,3.6,0.9,5.2,0l6.3-3.6c1.4-0.8,1.4-2.8,0-3.6l-126.7-72.8
				c-1.6-0.9-3.6-0.9-5.2,0l-6,3.5C291.3,339.7,291.3,341.8,292.7,342.6z"/>
			<g>
				<g>
					<g>
						<path class="st15" d="M291.7,75.2L291.7,75.2c0.8-3,7-8.7,13-8.6c0.2,0,1.3,0.1,1.7,0.3l118.2,67.2c2,1.1,3.6,2.9,4.5,4.9
							c0.7,1.5,1.2,3.2,1.2,5v255.6c0,6.5-7.5,12.7-14.6,9.7c0,0,0,0,0,0c-0.2-0.1-0.3-0.1-0.5-0.2l-118.2-67.3
							c-3.5-2-5.7-5.8-5.7-9.8V76.5C291.4,76,291.5,75.6,291.7,75.2z"/>
						<path class="st17" d="M413.9,171c0-2-1.1-3.9-2.9-4.9l-109.7-62.4c-1.9-1.1-4.2,0.3-4.2,2.5v206.1c0,2,1.1,3.9,2.9,4.9
							l109.7,62.5c1.9,1.1,4.2-0.3,4.2-2.5V171z"/>
						<path class="st20" d="M430.3,144v255.6c0,6.5-7.5,12.7-14.6,9.7c0,0,0,0,0,0c1.8,0.6,3.8-0.6,3.8-2.6V151.1
							c0-2.3-0.7-4.4-1.9-6.2l11.6-5.8C429.9,140.6,430.3,142.3,430.3,144z"/>
						<path class="st21" d="M304.8,66.6c0.2,0,1.3,0.1,1.7,0.3l118.2,67.2c2,1.1,3.6,2.9,4.5,4.9l-11.6,5.8c-1-1.4-2.2-2.7-3.8-3.6
							L295.6,74c-1.5-0.8-3.2-0.2-3.9,1.2l0,0C292.6,72.2,298.7,66.5,304.8,66.6z"/>
						<g>
							<g>
								<g>
									<path class="st18" d="M340.9,116.2c-0.8-0.5-1.5-0.1-1.5,0.8c0,1,0.7,2.1,1.5,2.6l23.2,13.4c0.8,0.5,1.5,0.1,1.5-0.9
										c0-1-0.7-2.1-1.5-2.6L340.9,116.2z"/>
								</g>
								<g>
									<path class="st18" d="M370,133c-0.8-0.5-1.5-0.1-1.5,0.9c0,1,0.7,2.1,1.5,2.6c0.8,0.5,1.5,0.1,1.5-0.9
										C371.6,134.7,370.9,133.5,370,133z"/>
								</g>
							</g>
							<g>
								<path class="st18" d="M355.2,114.3c-1.7-1-3-0.2-3,1.7c0,1.9,1.3,4.2,3,5.2c1.7,1,3,0.2,3-1.7
									C358.2,117.6,356.9,115.2,355.2,114.3z"/>
							</g>
							<g>
								<path class="st18" d="M355.2,354.9c-3.4-1.9-6.1-0.4-6.1,3.5c0,3.9,2.7,8.7,6.1,10.6c3.4,1.9,6.2,0.4,6.2-3.5
									C361.4,361.6,358.6,356.8,355.2,354.9z"/>
							</g>
						</g>
					</g>
				</g>
				<g>
					<path class="st6" d="M330.6,156.3c0-0.4-0.2-0.8-0.6-1l-22.7-12.9c-0.4-0.2-0.9,0.1-0.9,0.5v25.7c0,0.4,0.2,0.8,0.6,1
						l22.7,12.9c0.4,0.2,0.9-0.1,0.9-0.5V156.3z"/>
					<g>
						<polygon class="st16" points="403,197.5 339.4,160.7 339.4,164.8 403,201.5 						"/>
						<polygon class="st16" points="403,204.8 339.4,168.1 339.4,172.1 403,208.8 						"/>
						<polygon class="st16" points="403,212.2 339.4,175.4 339.4,179.4 403,216.2 						"/>
						<polygon class="st16" points="339.4,182.8 339.4,186.8 361.6,199.6 361.6,195.6 						"/>
					</g>
					<path class="st6" d="M330.6,197.7c0-0.4-0.2-0.8-0.6-1l-22.7-12.9c-0.4-0.2-0.9,0.1-0.9,0.5V210c0,0.4,0.2,0.8,0.6,1l22.7,12.9
						c0.4,0.2,0.9-0.1,0.9-0.5V197.7z"/>
					<g>
						<polygon class="st16" points="403,238.9 339.4,202.2 339.4,206.2 403,242.9 						"/>
						<polygon class="st16" points="403,246.3 339.4,209.5 339.4,213.5 403,250.3 						"/>
						<polygon class="st16" points="339.4,216.9 339.4,220.9 381.7,245.3 381.7,241.3 						"/>
					</g>
					<path class="st6" d="M330.6,239.2c0-0.4-0.2-0.8-0.6-1l-22.7-12.9c-0.4-0.2-0.9,0.1-0.9,0.5v25.7c0,0.4,0.2,0.8,0.6,1
						l22.7,12.9c0.4,0.2,0.9-0.1,0.9-0.5V239.2z"/>
					<g>
						<polygon class="st16" points="403,280.4 339.4,243.6 339.4,247.7 403,284.4 						"/>
						<polygon class="st16" points="403,287.7 339.4,251 339.4,255 403,291.7 						"/>
						<polygon class="st16" points="339.4,258.3 339.4,262.3 349.4,268.1 349.4,264.1 						"/>
					</g>
					<path class="st6" d="M330.6,280.6c0-0.4-0.2-0.8-0.6-1l-22.7-12.9c-0.4-0.2-0.9,0.1-0.9,0.5v25.7c0,0.4,0.2,0.8,0.6,1
						l22.7,12.9c0.4,0.2,0.9-0.1,0.9-0.5V280.6z"/>
					<g>
						<polygon class="st16" points="403,321.8 339.4,285.1 339.4,289.1 403,325.8 						"/>
						<polygon class="st16" points="403,329.2 339.4,292.4 339.4,296.4 403,333.2 						"/>
						<polygon class="st16" points="403,336.5 339.4,299.8 339.4,303.8 403,340.5 						"/>
						<polygon class="st16" points="339.4,306.9 339.4,311 379.4,334.1 379.4,330 						"/>
					</g>
					<g>
						<polygon class="st22" points="326.2,157.9 328.3,161.5 315.5,168.8 308.8,157.2 310.9,156 315.5,164 						"/>
					</g>
					<g>
						<polygon class="st22" points="326.2,199.4 328.3,203 315.5,210.3 308.8,198.7 310.9,197.5 315.5,205.5 						"/>
					</g>
					<g>
						<polygon class="st22" points="326.2,240.8 328.3,244.4 315.5,251.7 308.8,240.1 310.9,238.9 315.5,246.9 						"/>
					</g>
					<g>
						<polygon class="st22" points="326.2,282.3 328.3,285.9 315.5,293.2 308.8,281.6 310.9,280.4 315.5,288.3 						"/>
					</g>
				</g>
			</g>
		</g>
		<g>
			<path class="st5" d="M187.3,366.3l102.6,59c1.6,0.9,3.6,0.9,5.2,0l31.9-19.2c1.4-0.8,1.4-2.8,0-3.6l-102.9-58.8
				c-1.6-0.9-3.6-0.9-5.2,0l-31.6,19C185.9,363.5,185.9,365.5,187.3,366.3z"/>
			<g>
				<g>
					<path class="st18" d="M283.6,369.5c-1.7-0.2-3.8,0.7-4.9,2c-0.5,0.7-0.6,1.3-0.4,1.8l0,0l11.9,29.4c0.2,0.5,0.8,0.9,1.6,1
						c1.7,0.2,3.8-0.7,4.9-2c0.5-0.7,0.6-1.3,0.4-1.8l0,0l-11.9-29.4l0,0C285,369.9,284.5,369.6,283.6,369.5z"/>
					<path class="st18" d="M216.1,379.3c-1.7,0.2-3.8-0.7-4.9-2c-0.5-0.7-0.6-1.3-0.4-1.8l0,0l11.9-29.4c0.2-0.5,0.8-0.9,1.6-1
						c1.7-0.2,3.8,0.7,4.9,2c0.5,0.7,0.6,1.3,0.4,1.8l0,0l-11.9,29.4l0,0C217.5,378.8,216.9,379.2,216.1,379.3z"/>
				</g>
				<path class="st20" d="M237.5,254.7c-9.2-5.3-17.8-7.8-25.5-7.7c-18.5,0.1-31.2,14.7-31.2,40.1c-0.1,35.9,25.1,79.6,56.4,97.6
					c22.6,13.1,42.2,9,51.3-7.8c3.4-6.4,5.4-14.6,5.4-24.5C293.9,316.4,268.7,272.7,237.5,254.7z"/>
				
					<ellipse transform="matrix(0.8646 -0.5025 0.5025 0.8646 -124.961 165.873)" class="st6" cx="245.3" cy="314.8" rx="46.2" ry="79.7"/>
				<g>
					<g>
						<polygon class="st20" points="246.9,260 246.8,269.8 244,268.2 244,258.4 						"/>
					</g>
					<g>
						<polygon class="st20" points="222.5,252.6 226.7,263.5 224.3,263.8 220,252.8 						"/>
					</g>
					<g>
						<polygon class="st20" points="204.2,261.8 211.6,271 210.1,273 202.8,263.8 						"/>
					</g>
					<g>
						<polygon class="st20" points="205.5,290.2 205.4,293.4 196.9,288.5 196.9,285.2 						"/>
					</g>
					<g>
						<polygon class="st20" points="210,315.9 211.4,319.6 204,320.2 202.6,316.6 						"/>
					</g>
					<g>
						<polygon class="st20" points="224,341.4 226.5,344.5 222.2,350.5 219.8,347.4 						"/>
					</g>
					<g>
						<polygon class="st20" points="246.6,361.4 246.6,371.2 243.7,369.6 243.7,359.8 						"/>
					</g>
					<g>
						<polygon class="st20" points="266.3,365.9 270.6,376.8 268.1,377 263.9,366.1 						"/>
					</g>
					<g>
						<polygon class="st20" points="280.5,356.6 287.8,365.8 286.4,367.8 279,358.6 						"/>
					</g>
					<g>
						<polygon class="st20" points="293.7,341.1 293.7,344.4 285.1,339.4 285.1,336.2 						"/>
					</g>
					<g>
						<polygon class="st20" points="286.6,309.4 288,313 280.6,313.6 279.2,310 						"/>
					</g>
					<g>
						<polygon class="st20" points="268.4,279.1 270.8,282.2 266.6,288.2 264.1,285.1 						"/>
					</g>
				</g>
				<g>
					<g>
						<path class="st20" d="M247.1,321.1l16.3,39.6l0.4,4.2l-3-3.9l-16.3-39.6C245.5,321.7,246.4,321.5,247.1,321.1z"/>
					</g>
					<g>
						<path class="st22" d="M267.1,316.4l3.5,2.5l-2.5,1.5l-19.7-3.1c0,0.1,0,0.3,0,0.4c0,0.2,0,0.4,0,0.6c0,0.1,0,0.2,0,0.2
							c0,0.1,0,0.2,0,0.3c0,0.1,0,0.2-0.1,0.3c0,0.1,0,0.1-0.1,0.2c0,0.1-0.1,0.2-0.1,0.3l0,0.1c0,0.1-0.1,0.2-0.2,0.3l0,0.1
							c-0.1,0.1-0.1,0.2-0.2,0.3c-0.1,0.1-0.2,0.2-0.3,0.3c-0.1,0.1-0.2,0.2-0.3,0.3c-0.7,0.5-1.6,0.6-2.6,0.4
							c-0.2-0.1-0.4-0.1-0.7-0.2l-0.1,0c-0.2-0.1-0.5-0.2-0.7-0.3c-3-1.7-5.5-6-5.5-9.5c0-3.5,2.5-4.9,5.5-3.1
							c0.2,0.1,0.4,0.3,0.6,0.4c0.1,0,0.1,0.1,0.2,0.1c0.1,0.1,0.3,0.2,0.4,0.3c0.1,0.1,0.1,0.1,0.2,0.2c0.1,0.1,0.3,0.3,0.4,0.4
							l0.2,0.2c0.2,0.2,0.3,0.3,0.5,0.5c0.8,0.9,1.4,2,1.9,3L267.1,316.4z"/>
					</g>
				</g>
				<g>
					<path class="st20" d="M244.9,316.1c0-1.5-1-3.3-2.3-4c-0.6-0.3-1.1-0.4-1.5-0.2l0,0l-0.1,0c-0.1,0-0.1,0.1-0.2,0.1l-3.5,2.1
						l0,0c0.4-0.2,1-0.2,1.6,0.2c1.3,0.7,2.3,2.5,2.3,4c0,0.7-0.2,1.2-0.6,1.5l0,0l3.6-2.1c0,0,0,0,0.1,0l0,0l0,0
						C244.7,317.3,244.9,316.8,244.9,316.1z"/>
					<path class="st23" d="M241.2,318.3c0-1.5-1-3.3-2.3-4c-0.6-0.4-1.2-0.4-1.6-0.2c-0.4,0.2-0.7,0.8-0.7,1.5c0,1.5,1,3.3,2.3,4
						c0.7,0.4,1.3,0.4,1.7,0.1C241,319.5,241.2,319,241.2,318.3z"/>
				</g>
				<path class="st20" d="M308,278.6c-11.2-19.3-26.1-35.1-42.1-44.3c-9.8-5.7-19.4-8.6-28.4-8.6c-6.6,0-12.5,1.5-17.6,4.4l0,0
					l-0.4,0.3c-0.3,0.2-0.6,0.4-0.9,0.6l-24.7,14.8c5.2-3.1,11.4-4.8,18.3-4.8c9,0,18.5,2.9,28.4,8.6c16,9.2,31,25,42.1,44.3
					c11.2,19.3,17.3,40.1,17.2,58.5c-0.1,18.6-6.6,32.8-17.6,40.3l23.9-14.3c0.1-0.1,0.3-0.2,0.4-0.3l0.1,0l0,0
					c11.6-7.3,18.4-21.8,18.5-40.9C325.2,318.7,319.1,297.9,308,278.6z"/>
				<path class="st23" d="M282.6,293.8c-11.2-19.3-26.1-35.1-42.1-44.3c-9.8-5.7-19.4-8.6-28.4-8.6c-6.9,0-13.1,1.7-18.3,4.8
					l-0.5,0.3c0,0-0.1,0-0.1,0.1c-11.5,7.3-18.4,21.8-18.4,40.9c-0.1,18.4,6.1,39.2,17.2,58.5c11.2,19.3,26.1,35.1,42.1,44.3
					c9.8,5.7,19.4,8.6,28.4,8.6c6.2,0,11.8-1.4,16.7-3.9c0,0,0.1,0,0.1,0l3-1.8c11-7.4,17.5-21.7,17.6-40.3
					C299.9,333.9,293.8,313.1,282.6,293.8z M237.1,384.6c-31.2-18-56.5-61.7-56.4-97.6c0.1-25.4,12.8-40,31.2-40.1
					c7.7,0,16.3,2.4,25.5,7.7c31.2,18,56.5,61.7,56.4,97.6c0,9.9-2,18.1-5.4,24.5C279.3,393.7,259.8,397.7,237.1,384.6z"/>
				<path class="st24" d="M324.9,329.7l-25.4,14.7c0.2,2.7,0.4,5.4,0.4,8c0,7.2-1,13.7-2.8,19.4l25.1-14.5c2-5.9,3.1-12.7,3.1-20.2
					C325.2,334.7,325.1,332.2,324.9,329.7z"/>
				<g class="st24">
					<path class="st6" d="M269.3,236.4l-25.8,14.9c7.4,4.7,14.5,10.7,21.1,17.9l25.7-14.8C283.7,247.2,276.6,241.1,269.3,236.4z"/>
					<path class="st6" d="M297.7,263.1L272,278c1.8,2.3,3.6,4.8,5.2,7.3l25.6-14.8C301.2,267.9,299.5,265.5,297.7,263.1z"/>
				</g>
			</g>
		</g>
		<g>
			<path class="st5" d="M67.3,345.6l91.9,53.2c1.4,0.8,3,0.8,4.4,0l5.3-3.1c1.2-0.7,1.2-2.4,0-3l-91.7-52.8l-13.8-4
				c-0.9-0.3-1.7,0.8-1.2,1.6L67.3,345.6z"/>
			<g>
				<path class="st20" d="M65.5,330.2l-2.9-0.5c-0.5-0.1-0.9,0.5-0.6,1l2,3C63.7,332.1,64.3,330.7,65.5,330.2z"/>
				<path class="st25" d="M75.6,331.9l-10.1-1.8c-1.2,0.5-1.7,2-1.5,3.5l5.6,8.3L75.6,331.9z"/>
				<g>
					<g class="st10">
						<g>
							<path class="st25" d="M164.8,385.6c2.4-1.4,4.4-0.3,4.4,2.5c0,2.8-1.9,6.1-4.4,7.5c-2.4,1.4-4.4,0.3-4.4-2.5
								C160.5,390.4,162.4,387,164.8,385.6z"/>
						</g>
						<path class="st15" d="M111.1,352.3l-7.2-4.2l-27.4-15.9c0,0,0,0,0,0c-0.1,0-0.1-0.1-0.2-0.1c0,0,0,0,0,0c0,0,0,0-0.1,0
							c0,0-0.1,0-0.1,0c0,0-0.1,0-0.1,0c0,0-0.1,0-0.1,0c0,0,0,0,0,0c-0.1,0-0.2,0-0.3,0c0,0,0,0,0,0c0,0,0,0-0.1,0
							c-0.1,0-0.1,0-0.2,0c0,0,0,0-0.1,0c0,0-0.1,0-0.1,0c0,0-0.1,0-0.1,0c0,0-0.1,0-0.1,0c-0.1,0-0.1,0-0.2,0c0,0-0.1,0-0.1,0
							c-0.1,0-0.1,0-0.2,0.1c0,0,0,0,0,0c-0.1,0-0.2,0.1-0.3,0.1c0,0-0.1,0-0.1,0c0,0-0.1,0-0.1,0c-0.1,0.1-0.3,0.1-0.4,0.2
							c-0.1,0.1-0.3,0.2-0.4,0.3c0,0-0.1,0.1-0.1,0.1c-0.1,0.1-0.2,0.1-0.3,0.2c-0.1,0-0.1,0.1-0.1,0.1c-0.1,0.1-0.2,0.1-0.2,0.2
							c0,0-0.1,0.1-0.1,0.1c0,0-0.1,0.1-0.1,0.1c0,0-0.1,0.1-0.1,0.1c-0.1,0.1-0.2,0.2-0.3,0.3c0,0-0.1,0.1-0.1,0.1
							c0,0,0,0.1-0.1,0.1c-0.1,0.1-0.1,0.1-0.2,0.2c0,0-0.1,0.1-0.1,0.1c0,0-0.1,0.1-0.1,0.1c0,0.1-0.1,0.1-0.1,0.2
							c0,0-0.1,0.1-0.1,0.1c0,0.1-0.1,0.1-0.1,0.2c0,0-0.1,0.1-0.1,0.1c0,0,0,0,0,0.1c-0.1,0.1-0.2,0.2-0.2,0.4c0,0,0,0,0,0
							c0,0,0,0,0,0.1c-0.1,0.1-0.1,0.2-0.1,0.3c0,0,0,0.1-0.1,0.1c0,0,0,0.1-0.1,0.1c0,0,0,0.1-0.1,0.1c0,0.1-0.1,0.2-0.1,0.3
							c0,0,0,0,0,0.1c0,0,0,0,0,0c-0.1,0.1-0.1,0.3-0.2,0.4c0,0,0,0,0,0.1c0,0,0,0.1-0.1,0.1c0,0.1,0,0.1-0.1,0.2c0,0.1,0,0.1,0,0.2
							c0,0.1,0,0.1-0.1,0.2c0,0,0,0.1,0,0.1c0,0.1,0,0.1,0,0.2c0,0.1,0,0.1-0.1,0.2c0,0,0,0.1,0,0.1c0,0.1,0,0.1,0,0.2
							c0,0.1,0,0.2-0.1,0.3c0,0,0,0.1,0,0.1c0,0.1,0,0.1,0,0.2c0,0.1,0,0.1,0,0.2c0,0.2,0,0.3,0,0.5c0,1.4,0.5,2.3,1.3,2.8l27.6,16
							l6.7,3.9l57,33.1c-0.8-0.5-1.3-1.4-1.3-2.8c0-0.2,0-0.3,0-0.5c0-0.1,0-0.1,0-0.2c0-0.1,0-0.2,0-0.3c0-0.1,0-0.2,0.1-0.3
							c0-0.1,0-0.2,0-0.2c0-0.1,0-0.1,0.1-0.2c0-0.1,0.1-0.2,0.1-0.3c0-0.1,0-0.1,0.1-0.2c0-0.1,0.1-0.2,0.1-0.3c0,0,0-0.1,0.1-0.1
							c0.1-0.2,0.1-0.3,0.2-0.5c0,0,0,0,0-0.1c0.1-0.1,0.1-0.3,0.2-0.4c0,0,0-0.1,0.1-0.1c0.1-0.1,0.1-0.3,0.2-0.4c0,0,0,0,0-0.1
							c0.1-0.2,0.2-0.3,0.3-0.4c0,0,0.1-0.1,0.1-0.1c0.1-0.1,0.1-0.2,0.2-0.3c0-0.1,0.1-0.1,0.1-0.2c0.1-0.1,0.1-0.2,0.2-0.3
							c0.1-0.1,0.1-0.1,0.2-0.2c0.1-0.1,0.1-0.1,0.2-0.2c0.1-0.1,0.2-0.2,0.3-0.3c0.1-0.1,0.1-0.1,0.2-0.2c0,0,0.1-0.1,0.1-0.1
							c0.1-0.1,0.2-0.1,0.2-0.2c0,0,0.1-0.1,0.1-0.1c0.1-0.1,0.2-0.1,0.3-0.2c0,0,0.1-0.1,0.1-0.1c0.1-0.1,0.3-0.2,0.4-0.3
							c0.1-0.1,0.3-0.1,0.4-0.2c0,0,0.1,0,0.1,0c0.1-0.1,0.3-0.1,0.4-0.2c0,0,0,0,0,0c0.1,0,0.2-0.1,0.3-0.1c0.1,0,0.1,0,0.2,0
							c0.1,0,0.2,0,0.2,0c0,0,0.1,0,0.1,0c0.1,0,0.2,0,0.3,0c0,0,0,0,0.1,0c0.1,0,0.2,0,0.3,0c0,0,0.1,0,0.1,0c0.1,0,0.2,0,0.2,0.1
							c0,0,0,0,0.1,0c0.1,0,0.2,0.1,0.3,0.1L111.1,352.3z"/>
						<g>
							<path class="st20" d="M164.8,389.2c0.7-0.4,1.3-0.1,1.3,0.7c0,0.8-0.6,1.8-1.3,2.2c-0.7,0.4-1.3,0.1-1.3-0.7
								C163.6,390.5,164.2,389.6,164.8,389.2z"/>
						</g>
					</g>
				</g>
			</g>
		</g>
	</g>
</g>
</svg>
