<?xml version="1.0" encoding="utf-8"?>
<!-- Generator: Adobe Illustrator 25.2.3, SVG Export Plug-In . SVG Version: 6.00 Build 0)  -->
<svg version="1.1" id="Illustration" xmlns="http://www.w3.org/2000/svg" xmlns:xlink="http://www.w3.org/1999/xlink" x="0px"
	 y="0px" viewBox="0 0 2475 1650" style="enable-background:new 0 0 2475 1650;" xml:space="preserve">
<style type="text/css">
	.st0{fill:url(#SVGID_1_);}
	.st1{fill:#BDD0FB;}
	.st2{fill:#DCE5FE;}
	.st3{fill:#91B3FA;}
	.st4{fill:url(#SVGID_2_);}
	.st5{fill:#FFFFFF;}
	.st6{fill:url(#SVGID_3_);}
	.st7{fill:url(#SVGID_4_);}
	.st8{fill:url(#SVGID_5_);}
	.st9{opacity:0.78;fill:#FFFFFF;}
	.st10{fill:url(#SVGID_6_);}
	.st11{fill:url(#SVGID_7_);}
	.st12{fill:url(#SVGID_8_);}
	.st13{fill:url(#SVGID_9_);}
	.st14{fill:url(#SVGID_10_);}
	.st15{fill:#7D97F4;}
	.st16{fill:url(#SVGID_11_);}
	.st17{fill:url(#SVGID_12_);}
	.st18{fill:url(#SVGID_13_);}
	.st19{fill:url(#SVGID_14_);}
	.st20{fill:url(#SVGID_15_);}
	.st21{fill:url(#SVGID_16_);}
	.st22{fill:url(#SVGID_17_);}
	.st23{fill:url(#SVGID_18_);}
	.st24{fill:url(#SVGID_19_);}
	.st25{fill:url(#SVGID_20_);}
	.st26{fill:url(#SVGID_21_);}
	.st27{fill:url(#SVGID_22_);}
	.st28{fill:url(#SVGID_23_);}
	.st29{fill:url(#SVGID_24_);}
	.st30{fill:url(#SVGID_25_);}
	.st31{fill:url(#SVGID_26_);}
	.st32{fill:url(#SVGID_27_);}
	.st33{fill:url(#SVGID_28_);}
	.st34{fill:url(#SVGID_29_);}
	.st35{fill:url(#SVGID_30_);}
	.st36{fill:url(#SVGID_31_);}
	.st37{fill:url(#SVGID_32_);}
	.st38{fill:url(#SVGID_33_);}
	.st39{fill:url(#SVGID_34_);}
	.st40{fill:url(#SVGID_35_);}
	.st41{fill:url(#SVGID_36_);}
	.st42{fill:url(#SVGID_37_);}
	.st43{fill:url(#SVGID_38_);}
	.st44{fill:url(#SVGID_39_);}
	.st45{fill:url(#SVGID_40_);}
	.st46{fill:url(#SVGID_41_);}
	.st47{fill:url(#SVGID_42_);}
	.st48{fill:url(#SVGID_43_);}
	.st49{fill:url(#SVGID_44_);}
	.st50{fill:url(#SVGID_45_);}
	.st51{fill:url(#SVGID_46_);}
	.st52{fill:url(#SVGID_47_);}
	.st53{fill:url(#SVGID_48_);}
	.st54{fill:url(#SVGID_49_);}
	.st55{fill:url(#SVGID_50_);}
	.st56{fill:url(#SVGID_51_);}
	.st57{fill:url(#SVGID_52_);}
	.st58{fill:url(#SVGID_53_);}
	.st59{fill:url(#SVGID_54_);}
	.st60{fill:url(#SVGID_55_);}
	.st61{fill:url(#SVGID_56_);}
	.st62{fill:url(#SVGID_57_);}
	.st63{fill:url(#SVGID_58_);}
	.st64{fill:url(#SVGID_59_);}
	.st65{fill:url(#SVGID_60_);}
	.st66{fill:url(#SVGID_61_);}
	.st67{fill:url(#SVGID_62_);}
	.st68{fill:url(#SVGID_63_);}
	.st69{fill:url(#SVGID_64_);}
	.st70{fill:url(#SVGID_65_);}
	.st71{fill:url(#SVGID_66_);}
	.st72{fill:url(#SVGID_67_);}
	.st73{fill:url(#SVGID_68_);}
	.st74{fill:url(#SVGID_69_);}
	.st75{fill:url(#SVGID_70_);}
	.st76{fill:url(#SVGID_71_);}
	.st77{fill:url(#SVGID_72_);}
	.st78{fill:url(#SVGID_73_);}
	.st79{fill:url(#SVGID_74_);}
	.st80{fill:url(#SVGID_75_);}
	.st81{fill:url(#SVGID_76_);}
	.st82{fill:url(#SVGID_77_);}
	.st83{fill:url(#SVGID_78_);}
	.st84{fill:url(#SVGID_79_);}
	.st85{fill:url(#SVGID_80_);}
	.st86{fill:url(#SVGID_81_);}
	.st87{fill:url(#SVGID_82_);}
	.st88{fill:url(#SVGID_83_);}
	.st89{fill:url(#SVGID_84_);}
	.st90{fill:url(#SVGID_85_);}
	.st91{fill:url(#SVGID_86_);}
	.st92{fill:url(#SVGID_87_);}
	.st93{fill:url(#SVGID_88_);}
	.st94{fill:url(#SVGID_89_);}
	.st95{fill:url(#SVGID_90_);}
</style>
<g>
	
		<linearGradient id="SVGID_1_" gradientUnits="userSpaceOnUse" x1="-1567.5389" y1="797.9671" x2="644.0217" y2="797.9671" gradientTransform="matrix(-1 0 0 1 760.1269 0)">
		<stop  offset="0" style="stop-color:#DAE3FE"/>
		<stop  offset="1" style="stop-color:#E9EFFD"/>
	</linearGradient>
	<path class="st0" d="M1764.4,1408c0,0,196.7-23.1,290-5.1c93.4,18,324.7-79.7,248-233.1c-76.7-153.4-173.8-191.1-73.5-274.9
		c100.3-83.9,142.2-300.9,38.8-390.7c-103.4-89.8-134.5,2.6-216.9-30.5c-82.4-33.1,22.2-205.5-210.5-254.2
		c-232.7-48.7-413.6,98.5-519.4,81.9c-105.8-16.6-268.5-118.6-382.7-114.3c-114.2,4.3-100,154.4-251.6,145.6
		C535.1,324.1,416.2,309,318,436.8c-98.2,127.7-74.6,289.8,19,353.8c93.6,64,75.3,150.1-97.2,155.1
		c-172.6,4.9-153.1,183.5-12.3,315.4c140.8,131.8,261.6,133.3,402.3,141.9C770.4,1411.6,1764.4,1408,1764.4,1408z"/>
	<g>
		<path class="st1" d="M1485.3,1330.4c-2,3.9-7.9,1-6.1-3c35-76.5,23.5-42.5,53-107.7c73.9-163,46.5-253,60.6-344
			s103.9-183.6,240-101.5c111.1,67.1,199.4,116.8,245.7,124.4c8.9,1.5,12.4,12.3,6.1,18.8c-41.4,42.5-146.7,135-258.3,109.7
			c-143.7-32.6-133.5-71.5-174.8-43.7c-41.2,27.8-51.3,64.8-70.6,133.9C1564.1,1176.8,1562.9,1181.3,1485.3,1330.4z"/>
		<path class="st2" d="M1586.1,1057.5c-0.9-11.9-0.8-23.4-0.3-35.1c0.6-11.6,1.7-23.3,3.6-34.8c3.8-23,10.4-45.9,21.4-66.9
			c5.6-10.5,12.3-20.4,20.2-29.3c8-8.9,17.2-16.8,27.5-22.9c10.3-6.2,21.5-10.7,32.9-13.9c5.6-1.5,11.3-3,17-4.1
			c5.7-1.3,11.4-2.3,17.2-3.3c11.6-1.7,23.2-2.9,34.9-3c11.7-0.1,23.5,0.7,35,2.5c11.6,1.8,23,4.6,34.1,8.1
			c11.1,3.5,21.9,7.8,32.5,12.3c21.2,9.1,41.9,19,63.3,27c21.3,8.1,43.5,13.9,66.1,16.9l0,0c1.1,0.1,1.8,1.1,1.7,2.2
			c-0.1,1-1.1,1.8-2.1,1.7c-23-2.5-45.7-7.7-67.6-15.4c-21.9-7.5-42.9-17.2-64.1-25.8c-21.2-8.6-42.8-15.7-65.1-18.8
			c-11.1-1.6-22.4-2.2-33.7-2c-11.3,0.3-22.5,1.6-33.6,3.4c-5.6,1-11.1,2-16.6,3.4c-5.5,1.2-11,2.8-16.4,4.2
			c-10.7,3.1-20.9,7.2-30.3,13c-18.8,11.5-33.5,28.9-43.8,48.6c-10.4,19.7-16.8,41.6-20.5,63.8c-1.8,11.1-3.1,22.4-3.8,33.7
			c-0.7,11.2-0.8,22.7-0.2,33.8l0,0.2c0.2,2.6-1.8,4.8-4.4,5C1588.5,1062,1586.3,1060.1,1586.1,1057.5z"/>
	</g>
	<g>
		<path class="st3" d="M936.9,755.1c0,0-7.1-124.1-66.9-152.6c-59.8-28.5-169.9-40.4-188.5-218c-10.9-104-17.2-149.3-20.5-169
			c-1.3-7.7,5.1-14.5,12.8-13.7c54.9,5.8,233.8,33.4,280.4,150.2C1009.4,490.6,936.9,755.1,936.9,755.1z"/>
		<path class="st2" d="M719.9,247.5c18.1,13.5,34.6,28.5,50.7,44.1l6,5.9l5.9,6c3.9,4,7.8,8,11.6,12.2c7.7,8.2,15,16.7,22.3,25.1
			c7.1,8.6,14.4,17.2,21.1,26.2c6.9,8.8,13.5,18,20,27.1c12.7,18.6,25.1,37.2,35.8,57.2c2.7,5,5.4,10,8,15l7,15.5l3.5,7.7l3,7.9
			l6,15.9l5.1,16.2l2.5,8.1l2.1,8.2c1.4,5.5,2.9,10.9,4.1,16.4L938,579c8.2,44.4,11.1,89.5,6.8,134.7c-0.3,2.7-2.6,4.6-5.3,4.4
			c-2.6-0.2-4.5-2.4-4.4-5l0-0.3c0.8-21.7,0.1-43.9-2-65.7c-2-21.9-5.3-43.6-9.6-65.1l-3.6-16c-1.3-5.3-2.8-10.6-4.2-15.9l-2.1-7.9
			l-2.5-7.8l-5-15.6l-5.9-15.3l-2.9-7.7l-3.4-7.5l-6.7-14.9c-2.5-4.8-5.1-9.6-7.7-14.4c-4.9-9.7-10.9-19-16.4-28.5
			c-2.8-4.8-5.9-9.3-8.8-14c-3-4.6-5.9-9.3-9.1-13.8c-12.2-18.3-25.4-36-38.9-53.5c-6.9-8.6-13.8-17.2-21-25.6
			c-3.5-4.3-7.2-8.4-10.8-12.5l-5.5-6.2l-5.6-6.1c-14.9-16.3-30.5-32.1-46.8-46.9l-0.1-0.1c-1.1-1-1.2-2.8-0.2-3.9
			C717.2,246.8,718.8,246.7,719.9,247.5z"/>
	</g>
	<g>
		<path class="st1" d="M952.1,1308.4c11.7,6.7-104.2-159.7-127.9-410.9c-11.1-118.4-2.1-265.2-65.2-326.1
			c-52.6-50.6-243.5-32.9-306.1-25.5c-7.8,0.9-11,10.5-5.3,16c28.1,26.8,87.8,89.6,100.6,149.9c16.8,79.5,87.9,133.8,153.5,151.5
			c65.6,17.7,101.7,33,127.4,141.4C854.6,1112.9,919,1289.5,952.1,1308.4z"/>
		<path class="st2" d="M537.8,584.6c0,0,1.9,0.1,5.4,0.6c3.5,0.4,8.6,1.1,15,2.3c6.4,1.2,14.2,2.9,23.1,5.2
			c8.8,2.4,18.7,5.3,29.3,9.3c10.5,4,21.8,8.8,33.3,14.8c11.5,6,23.2,13.1,34.6,21.6c11.4,8.5,22.4,18.3,32.4,29.4
			c10,11.1,18.9,23.6,26.4,36.8l2.7,5c0.9,1.7,1.8,3.3,2.6,5.1c1.6,3.5,3.2,6.8,4.8,10.4c2.8,6.9,5.5,13.7,8.3,20.5
			c5.5,13.6,10.9,26.9,16,39.9c2.6,6.5,5.1,12.8,7.6,19.1c1.3,3.1,2.4,6.3,3.5,9.4c1.1,3.1,2.2,6.2,3.2,9.2
			c4.2,12.1,8.3,23.5,12,34.1c1.8,5.3,3.6,10.3,5.3,15.2c1.5,4.9,2.9,9.5,4.2,13.8c2.7,8.7,5,16.3,6.9,22.5c2,6.2,3.2,11.2,4.1,14.6
			c0.9,3.4,1.4,5.2,1.4,5.2c0.3,1-0.3,2-1.3,2.3c-1,0.3-2-0.3-2.3-1.2l0-0.1c0,0-0.6-1.8-1.7-5.1c-1.1-3.3-2.7-8.1-4.9-14.2
			c-2.2-6.1-4.8-13.6-7.9-22.1c-1.5-4.3-3.1-8.8-4.8-13.6c-1.8-4.7-3.7-9.7-5.7-14.9c-4-10.4-8.3-21.7-12.8-33.6
			c-2.3-5.9-4.5-12.1-7.1-18.3c-2.6-6.2-5.2-12.5-7.9-19c-5.4-12.9-10.8-26.2-16.3-39.8c-2.8-6.8-5.5-13.6-8.3-20.5
			c-1.4-3.2-3-6.5-4.5-9.8c-0.7-1.7-1.6-3.3-2.4-4.9l-2.6-4.8c-14-25.5-34-47.4-55.7-64.1c-10.8-8.4-22-15.6-33-21.8
			c-11-6.1-21.9-11.2-32.1-15.4c-10.2-4.1-19.8-7.6-28.4-10.2c-8.6-2.7-16.2-4.7-22.5-6.1c-6.3-1.5-11.3-2.5-14.7-3.1
			c-3.4-0.6-5.2-0.9-5.2-0.9c-0.8-0.1-1.4-0.9-1.3-1.7C536.3,585.1,537,584.6,537.8,584.6L537.8,584.6z"/>
	</g>
	<g>
		<path class="st1" d="M1416.2,1159c-11.7,6.7,104.2-159.7,127.9-410.9c11.1-118.4,2.1-265.2,65.2-326.1
			c52.6-50.6,243.5-32.9,306.1-25.5c7.8,0.9,11,10.5,5.3,16c-28.1,26.8-87.8,89.6-100.6,149.9c-16.8,79.5-87.9,133.8-153.5,151.5
			c-65.6,17.7-101.7,33-127.4,141.4C1513.7,963.5,1449.3,1140,1416.2,1159z"/>
		<path class="st2" d="M1550.5,783.8c-0.4,0-0.7-0.1-1.1-0.2c-2.2-0.6-3.5-2.9-2.8-5.1c0.2-0.8,23.1-80.9,75.6-203.8
			c15.4-36.1,49.5-85.9,124.4-118.5c44.7-19.4,82.2-23.4,83.8-23.6c2.3-0.2,4.3,1.4,4.5,3.7c0.2,2.3-1.4,4.3-3.7,4.5
			c-1.5,0.2-150.1,16.8-201.4,137.2c-52.3,122.4-75,202.1-75.2,202.9C1553.9,782.6,1552.2,783.8,1550.5,783.8z"/>
	</g>
	<g>
		<path class="st3" d="M841.5,1327.6c7.2,3.8-40.3-77.9-43.9-149.9c-3.6-72-19.9-194.8-81.9-268.2c-62.1-73.5-130-80.2-215.6-13.4
			c-71.4,55.7-115.9,83.7-142,89c-6.5,1.3-9.8,8.6-6.6,14.4c16.7,30.8,64.1,101.6,143.5,96.7c101.4-6.4,224.2-72.3,261.7-17.3
			c37.4,55,32.6,85.7,33.8,111.8C791.6,1216.7,794.1,1302.6,841.5,1327.6z"/>
		<path class="st2" d="M528.9,984.5c5.6-5.4,11.5-10.2,17.6-14.9c6.1-4.7,12.4-9.1,19-13.1c13.1-8.1,27.1-15.1,42-19.9
			c7.5-2.4,15.2-4.2,23-5.2c7.9-1,15.9-1.1,23.9-0.1c2,0.3,4,0.5,6,1c2,0.5,4,0.8,5.9,1.4l11.2,3.5l11,4.3l10.6,5.1
			c13.9,7.3,26.5,17.3,37,29c10.6,11.7,18.8,25.1,25.6,39l2.5,5.2c0.9,1.7,1.5,3.6,2.3,5.3c1.4,3.6,3,7.1,4.3,10.7l3.8,10.9
			c1.3,3.6,2.2,7.4,3.2,11.1c4.2,14.8,7.1,29.8,9.6,44.9c0.2,0.9-0.5,1.8-1.4,1.9c-0.9,0.1-1.7-0.4-1.9-1.3l0-0.1
			c-3.6-14.7-7.1-29.5-12-43.8c-2.2-7.2-5.1-14.2-7.7-21.2c-1.4-3.5-3-6.9-4.5-10.3c-0.8-1.7-1.5-3.5-2.4-5.1l-2.6-5
			c-6.9-13.2-15.3-25.6-25.3-36.4c-10-10.8-21.9-19.7-34.9-26.6l-10-4.7l-10.3-3.9l-10.6-3.2c-1.8-0.5-3.5-0.8-5.2-1.3
			c-1.7-0.4-3.5-0.6-5.3-0.9c-7.1-0.9-14.4-0.9-21.6-0.1c-7.2,0.8-14.4,2.3-21.5,4.3c-14.2,4.1-27.9,10.3-41.1,17.4
			c-6.6,3.6-13.1,7.4-19.4,11.5c-6.3,4.1-12.5,8.5-18.5,13l0,0c-0.8,0.6-1.9,0.4-2.5-0.3C528.2,986.1,528.3,985.1,528.9,984.5z"/>
	</g>
	<g>
		<path class="st1" d="M954.1,1313.7c0,0-108.1,131-214.5,70.6c-98.9-56.1-122-140.7-208.1-136.2c-9.9,0.5-16.8-9.9-12.5-18.9
			c17-35.7,64.8-102.9,182-97.7C860,1138.7,954.1,1313.7,954.1,1313.7z"/>
		<path class="st2" d="M942.4,1312.5c-8.6,2.4-17.3,2.6-25.9,2.3c-8.6-0.4-17.3-1.4-25.7-3.3c-16.9-3.5-33.3-9.2-49-16.1l-11.7-5.3
			l-11.4-5.9c-3.8-1.9-7.5-4.1-11.2-6.3c-3.7-2.2-7.4-4.3-11.1-6.5c-14.5-9-28.7-18.7-42.5-28.5c-13.9-9.8-27.5-20-41.6-29.2
			c-14-9.2-28.6-17.7-44.5-22.5c-7.9-2.4-16.1-3.8-24.3-3.9c-8.2-0.1-16.5,0.9-24.6,2.9c-16.2,4-31.3,12-45.7,20.8l0,0
			c-0.5,0.3-1.2,0.2-1.5-0.4c-0.3-0.5-0.2-1.1,0.3-1.5c13.9-9.8,29-18.5,45.7-23.4c8.3-2.4,17-3.9,25.8-3.9
			c8.8-0.1,17.5,1.2,25.9,3.5c16.9,4.7,32.3,13.1,46.7,22.2c14.5,9.2,28.3,19.1,42.2,28.8c27.7,19.5,56.1,37.8,86.7,52
			c15.3,7,31,13,47.2,17.1c8.1,2.1,16.3,3.6,24.6,4.6c4.2,0.5,8.3,0.7,12.5,0.7c4.1,0,8.4-0.2,12.3-1l0.2,0c0.8-0.1,1.5,0.4,1.6,1.1
			C943.5,1311.6,943.1,1312.3,942.4,1312.5z"/>
	</g>
	<g>
		<linearGradient id="SVGID_2_" gradientUnits="userSpaceOnUse" x1="1591.124" y1="506.1142" x2="243.2049" y2="2042.5262">
			<stop  offset="0" style="stop-color:#09005D"/>
			<stop  offset="1" style="stop-color:#1A0F91"/>
		</linearGradient>
		<path class="st4" d="M1749.9,917.6c0,283.6-229.9,513.6-513.6,513.6c-283.6,0-526.3-240-526.3-523.6
			C710,623.9,952.7,404,1236.3,404C1520,404,1749.9,634,1749.9,917.6z"/>
		<g>
			<path class="st5" d="M750.4,790.3c-0.1,0-0.2,0-0.3,0c-0.6-0.2-1-0.8-0.8-1.4c5.5-20.6,12.5-41.1,20.9-60.9
				c0.2-0.6,0.9-0.8,1.5-0.6c0.6,0.2,0.8,0.9,0.6,1.5c-8.3,19.6-15.3,40-20.8,60.6C751.3,790,750.9,790.3,750.4,790.3z"/>
			<path class="st5" d="M828.8,629.8c-0.2,0-0.5-0.1-0.7-0.2c-0.5-0.4-0.6-1.1-0.2-1.6c94.7-125.6,247.2-200.6,408.1-200.6
				c68.7,0,135.1,13.9,197.4,41.4c0.6,0.3,0.8,0.9,0.6,1.5c-0.3,0.6-0.9,0.8-1.5,0.6c-62-27.3-128.1-41.2-196.5-41.2
				c-160.1,0-312,74.6-406.3,199.7C829.5,629.7,829.2,629.8,828.8,629.8z"/>
		</g>
		<linearGradient id="SVGID_3_" gradientUnits="userSpaceOnUse" x1="779.9063" y1="917.6298" x2="1680.0325" y2="917.6298">
			<stop  offset="0" style="stop-color:#4042E2"/>
			<stop  offset="1" style="stop-color:#4F52FF"/>
		</linearGradient>
		<path class="st6" d="M1680,917.6c0,245.5-199,444.6-444.6,444.6s-455.6-207.7-455.6-453.3s210-435.9,455.6-435.9
			S1680,672.1,1680,917.6z"/>
		<linearGradient id="SVGID_4_" gradientUnits="userSpaceOnUse" x1="1285.2594" y1="1438.9789" x2="1282.2595" y2="2231.0581">
			<stop  offset="0" style="stop-color:#4042E2"/>
			<stop  offset="1" style="stop-color:#4F52FF"/>
		</linearGradient>
		<path class="st7" d="M1680,917.6c0-245.5-199-444.6-444.6-444.6c-133,0-255.5,55.8-339.9,146L1238,904l70.4,452.2
			C1519.2,1321.4,1680,1138.3,1680,917.6z"/>
		<linearGradient id="SVGID_5_" gradientUnits="userSpaceOnUse" x1="757.984" y1="-552.898" x2="1058.0151" y2="410.2016">
			<stop  offset="0" style="stop-color:#4042E2"/>
			<stop  offset="0.3335" style="stop-color:#4547EC"/>
			<stop  offset="1" style="stop-color:#4F52FF"/>
		</linearGradient>
		<path class="st8" d="M1619.5,886.7c0,221.6-183.4,401.2-409.5,401.2s-419.7-187.5-419.7-409.1c0-221.6,193.5-393.4,419.7-393.4
			S1619.5,665.1,1619.5,886.7z"/>
		<path class="st9" d="M893.5,894.6c-1.1,18.9-17.3,33.3-36.2,32.2c-18.9-1.1-33.3-17.3-32.2-36.2c1.1-18.9,17.3-33.3,36.2-32.2
			C880.2,859.5,894.6,875.7,893.5,894.6z"/>
		<path class="st9" d="M1633,937.6c-1.1,18.9-17.3,33.3-36.2,32.2c-18.9-1.1-33.3-17.3-32.2-36.2c1.1-18.9,17.3-33.3,36.2-32.2
			C1619.7,902.6,1634.1,918.7,1633,937.6z"/>
		<path class="st9" d="M1168.7,1244.8c18.6,3.4,30.9,21.2,27.5,39.8c-3.4,18.6-21.2,30.9-39.8,27.5c-18.6-3.4-30.9-21.2-27.5-39.8
			C1132.3,1253.7,1150.1,1241.4,1168.7,1244.8z"/>
		<path class="st9" d="M1301.8,516.1c18.6,3.4,30.9,21.2,27.5,39.8c-3.4,18.6-21.2,30.9-39.8,27.5c-18.6-3.4-30.9-21.2-27.5-39.8
			C1265.3,525,1283.2,512.7,1301.8,516.1z"/>
		<path class="st9" d="M1412,1264.3c3.5,8.8,2.6,17-1.9,18.4c-4.6,1.4-11.1-4.7-14.5-13.4c-3.5-8.8-2.6-17,1.9-18.4
			C1402,1249.5,1408.5,1255.5,1412,1264.3z"/>
		<path class="st9" d="M1114.5,573.2c3.5,8.8,2.6,17-1.9,18.4s-11.1-4.7-14.5-13.4c-3.5-8.8-2.6-17,1.9-18.4
			C1104.5,558.4,1111.1,564.4,1114.5,573.2z"/>
		<path class="st9" d="M1567.3,1132.9c7.5,5.7,11.1,13.2,7.9,16.7c-3.2,3.5-11.9,1.8-19.4-3.9c-7.5-5.7-11.1-13.2-7.9-16.7
			C1551.1,1125.5,1559.8,1127.2,1567.3,1132.9z"/>
		<path class="st9" d="M954.3,696.7c7.5,5.7,11.1,13.2,7.9,16.7c-3.2,3.5-11.9,1.8-19.4-3.9c-7.5-5.7-11.1-13.2-7.9-16.7
			C938,689.3,946.7,691,954.3,696.7z"/>
		<path class="st9" d="M1586.8,741.6c8.5-4.1,16.8-3.7,18.4,0.7c1.7,4.4-3.9,11.3-12.4,15.4c-8.5,4.1-16.8,3.7-18.4-0.7
			C1572.8,752.6,1578.3,745.7,1586.8,741.6z"/>
		<path class="st9" d="M917.2,1084.7c8.5-4.1,16.8-3.7,18.4,0.7c1.7,4.4-3.9,11.3-12.4,15.4c-8.5,4.1-16.8,3.7-18.4-0.7
			C903.1,1095.7,908.7,1088.8,917.2,1084.7z"/>
		<path class="st9" d="M1445.4,595.4c5.2-7.9,12.4-11.9,16.1-9c3.7,2.9,2.6,11.7-2.6,19.6c-5.2,7.9-12.4,11.9-16.1,9
			C1439,612.1,1440.2,603.3,1445.4,595.4z"/>
		<path class="st9" d="M1051.2,1236.4c5.2-7.9,12.4-11.9,16.1-9c3.7,2.9,2.6,11.7-2.6,19.6c-5.2,7.9-12.4,11.9-16.1,9
			C1044.8,1253,1046,1244.3,1051.2,1236.4z"/>
		<linearGradient id="SVGID_6_" gradientUnits="userSpaceOnUse" x1="1192.8151" y1="985.9719" x2="942.1987" y2="321.1632">
			<stop  offset="0" style="stop-color:#E1473D"/>
			<stop  offset="1" style="stop-color:#E9605A"/>
		</linearGradient>
		<path class="st10" d="M1221.6,891.3l-145.4-270.6c-2.8-5.2,1-11.6,6.9-11.6h35.4c6.9,0,10.5-8.2,5.7-13.2l-181-193.4
			c-5.5-5.9-15.3-0.6-13.4,7.3l62.4,254.3c1.5,6.1,9.2,8.1,13.4,3.5l28.6-30.9c3.5-3.8,9.7-3.2,12.5,1.2L1208,899.1
			c2.2,3.6,7,4.8,10.7,2.7l0,0C1222.3,899.7,1223.6,895,1221.6,891.3z"/>
		<linearGradient id="SVGID_7_" gradientUnits="userSpaceOnUse" x1="995.5839" y1="-235.8643" x2="974.5812" y2="472.2065">
			<stop  offset="0" style="stop-color:#FF928E"/>
			<stop  offset="1" style="stop-color:#FEB3B1"/>
		</linearGradient>
		<path class="st11" d="M997.1,630.1c-0.6,0-1-0.4-1.1-1c-0.3-2.1-18.4-75-48.5-194.9c-0.5-2,0.4-4,2.2-4.9c1.8-1,4-0.6,5.3,1
			l37.3,42.4c0.4,0.5,0.4,1.2-0.1,1.6c-0.5,0.4-1.2,0.4-1.6-0.1l-37.3-42.4c-0.8-0.9-1.9-0.9-2.6-0.5c-0.7,0.4-1.4,1.2-1.1,2.4
			c14.5,57.8,48.1,192.6,48.5,195.2c0.1,0.6-0.3,1.2-1,1.3C997.2,630.1,997.2,630.1,997.1,630.1z"/>
		<linearGradient id="SVGID_8_" gradientUnits="userSpaceOnUse" x1="1370.4974" y1="895.7233" x2="1964.7739" y2="873.2128">
			<stop  offset="0" style="stop-color:#E1473D"/>
			<stop  offset="1" style="stop-color:#E9605A"/>
		</linearGradient>
		<path class="st12" d="M1236,919.5l268.7-8.7c6-0.1,9.8,6.2,7.1,11.5l-16.3,31.4c-3.2,6.1,2.5,13.1,9.1,11.2l255-71.8
			c7.8-2.2,7.6-13.3-0.3-15.2l-254.5-61.5c-6.1-1.5-11.4,4.4-9.3,10.3l14.2,39.6c1.8,4.9-1.6,10.1-6.8,10.5l-267.7,27
			c-4.3,0.3-7.5,4-7.3,8.3l0,0C1228.2,916.3,1231.7,919.6,1236,919.5z"/>
		<linearGradient id="SVGID_9_" gradientUnits="userSpaceOnUse" x1="1664.5853" y1="-216.0178" x2="1643.5826" y2="492.0493">
			<stop  offset="0" style="stop-color:#FF928E"/>
			<stop  offset="1" style="stop-color:#FEB3B1"/>
		</linearGradient>
		<path class="st13" d="M1674.3,904.5c-0.5,0-1-0.3-1.1-0.9c-0.1-0.6,0.2-1.2,0.8-1.4l54.8-13.6c1.2-0.3,1.6-1.3,1.6-2.1
			c0-0.8-0.4-1.8-1.6-2c-58-13.8-193.1-45.8-195.6-46.7c-0.6-0.2-0.9-0.9-0.7-1.4c0.2-0.6,0.8-0.9,1.4-0.7c3,1,150.3,36,195.4,46.6
			c2,0.5,3.3,2.2,3.4,4.2c0,2.1-1.3,3.8-3.3,4.3l-54.8,13.6C1674.5,904.5,1674.4,904.5,1674.3,904.5z"/>
		<linearGradient id="SVGID_10_" gradientUnits="userSpaceOnUse" x1="1087.9365" y1="901.2693" x2="1836.7865" y2="919.2777">
			<stop  offset="0" style="stop-color:#E1473D"/>
			<stop  offset="1" style="stop-color:#E9605A"/>
		</linearGradient>
		<path class="st14" d="M1269.7,904.8c0,20.2-16.4,36.6-36.6,36.6c-20.2,0-36.6-16.4-36.6-36.6c0-20.2,16.4-36.6,36.6-36.6
			C1253.4,868.2,1269.7,884.6,1269.7,904.8z"/>
	</g>
	<g>
		<g>
			<g>
				<path class="st15" d="M2150.4,1027.5c19.9-21,30.3-48.9,30.3-77.9v-64.6l-164.3-4.9l-164.3,4.9v64.6c0,29,9.8,56.8,29.8,77.9
					l84.2,89.5c8.7,9.2,8.4,23.7-0.3,32.9l-83.8,89.5c-19.9,21-29.9,48.9-29.9,77.9v64.6l164.3,4.9l164.3-4.9v-64.6
					c0-29-10.3-56.8-30.3-77.9l-84.5-89.5c-8.7-9.2-8.9-23.7-0.2-32.9L2150.4,1027.5z"/>
				<path class="st1" d="M2093.1,1216.5c0,0-43.6-31.5-50.1-83c6.6-51.5,50.1-83,50.1-83c105.2-74,65.9-165.3,65.9-165.3l-143.6-4.9
					l-142.9,4.9c0,0-39,91.4,66.2,165.3c0,0,43.9,31.5,50.5,83c-6.6,51.5-50.5,83-50.5,83c-105.2,74-66.2,165.3-66.2,165.3
					l142.9,4.9l143.6-4.9C2159,1381.8,2198.3,1290.5,2093.1,1216.5z"/>
			</g>
			<g>
				<linearGradient id="SVGID_11_" gradientUnits="userSpaceOnUse" x1="1893.816" y1="1038.7017" x2="2141.5713" y2="1038.7017">
					<stop  offset="0" style="stop-color:#FE7062"/>
					<stop  offset="1" style="stop-color:#FF928E"/>
				</linearGradient>
				<path class="st16" d="M1985.3,1069.9c10.6,6.9,18.6,16.8,22.9,28.7c0.3,0.8,0.5,2.2,0.8,3c1,3,3.8,5.8,7,5.8c0,0,0.1,0,0.1,0
					c5,0,9.5-3.9,11.2-8.6c4.3-11.4,12.1-21,22.3-27.7c76.9-50.1,92-101,92-101h-14.8h-3.7h-210.8h-3.7h-14.8
					C1893.8,970,1908.8,1019.9,1985.3,1069.9z"/>
				<linearGradient id="SVGID_12_" gradientUnits="userSpaceOnUse" x1="1886.4204" y1="1315.7115" x2="2147.1184" y2="1315.7115">
					<stop  offset="0" style="stop-color:#FE7062"/>
					<stop  offset="1" style="stop-color:#FF928E"/>
				</linearGradient>
				<path class="st17" d="M2050.7,1281.9c-10.6-6.9-18.7-17.4-23.3-29.2c-0.5-1.4-1-3-1.5-4.4c-1.1-3.3-4.1-5.7-7.6-5.7
					c-5.2,0-9.8,3.2-11.6,8c-4.5,12.1-12.8,23.5-23.6,30.6c-80.8,52.7-96.7,107.4-96.7,107.4h15.6h3.9h221.8h3.9h15.6
					C2147.1,1388.7,2131.3,1334.5,2050.7,1281.9z"/>
			</g>
			<linearGradient id="SVGID_13_" gradientUnits="userSpaceOnUse" x1="1977.2509" y1="1153.2064" x2="2087.7241" y2="1080.1738">
				<stop  offset="0" style="stop-color:#FE7062"/>
				<stop  offset="1" style="stop-color:#FF928E"/>
			</linearGradient>
			<path class="st18" d="M2022.8,1127.2c0,3.4-2.8,6.2-6.2,6.2c-3.4,0-6.2-2.8-6.2-6.2c0-3.4,2.8-6.2,6.2-6.2
				C2020,1121,2022.8,1123.8,2022.8,1127.2z"/>
			<linearGradient id="SVGID_14_" gradientUnits="userSpaceOnUse" x1="1996.9126" y1="1189.2289" x2="2078.7437" y2="1135.1315">
				<stop  offset="0" style="stop-color:#FE7062"/>
				<stop  offset="1" style="stop-color:#FF928E"/>
			</linearGradient>
			<path class="st19" d="M2030.6,1170c0,2.6-2.1,4.6-4.6,4.6c-2.6,0-4.6-2.1-4.6-4.6c0-2.6,2.1-4.6,4.6-4.6
				C2028.6,1165.4,2030.6,1167.4,2030.6,1170z"/>
			<linearGradient id="SVGID_15_" gradientUnits="userSpaceOnUse" x1="1978.4231" y1="1222.5095" x2="2060.2549" y2="1168.4116">
				<stop  offset="0" style="stop-color:#FE7062"/>
				<stop  offset="1" style="stop-color:#FF928E"/>
			</linearGradient>
			<path class="st20" d="M2012.1,1203.3c0,2.6-2.1,4.6-4.6,4.6c-2.6,0-4.6-2.1-4.6-4.6c0-2.6,2.1-4.6,4.6-4.6
				C2010.1,1198.6,2012.1,1200.7,2012.1,1203.3z"/>
		</g>
		<linearGradient id="SVGID_16_" gradientUnits="userSpaceOnUse" x1="2153.78" y1="806.1096" x2="2352.3303" y2="704.2219">
			<stop  offset="0" style="stop-color:#09005D"/>
			<stop  offset="1" style="stop-color:#1A0F91"/>
		</linearGradient>
		<path class="st21" d="M2212.2,877.5c0,12.6-10.2,22.8-22.8,22.8h-346.1c-12.6,0-22.8-10.2-22.8-22.8v-1.7
			c0-12.6,10.2-22.8,22.8-22.8h346.1c12.6,0,22.8,10.2,22.8,22.8V877.5z"/>
		<linearGradient id="SVGID_17_" gradientUnits="userSpaceOnUse" x1="2153.78" y1="1330.6045" x2="2352.3303" y2="1228.7168">
			<stop  offset="0" style="stop-color:#09005D"/>
			<stop  offset="1" style="stop-color:#1A0F91"/>
		</linearGradient>
		<path class="st22" d="M2212.2,1401.9c0,12.6-10.2,22.8-22.8,22.8h-346.1c-12.6,0-22.8-10.2-22.8-22.8v-1.7
			c0-12.6,10.2-22.8,22.8-22.8h346.1c12.6,0,22.8,10.2,22.8,22.8V1401.9z"/>
	</g>
	<g>
		<g>
			<linearGradient id="SVGID_18_" gradientUnits="userSpaceOnUse" x1="423.5123" y1="1263.91" x2="299.3038" y2="1545.014">
				<stop  offset="0" style="stop-color:#4042E2"/>
				<stop  offset="0.3335" style="stop-color:#4547EC"/>
				<stop  offset="1" style="stop-color:#4F52FF"/>
			</linearGradient>
			<path class="st23" d="M380.2,1286.8c-3.6,5.3-17.9,126-20.2,170.5c-0.2,3,2.3,5.5,5.3,5.5l0,0c2.6,0,4.8-1.9,5.2-4.5l26.2-167.7
				L380.2,1286.8z"/>
			<linearGradient id="SVGID_19_" gradientUnits="userSpaceOnUse" x1="526.0355" y1="1309.2111" x2="401.8268" y2="1590.3156">
				<stop  offset="0" style="stop-color:#4042E2"/>
				<stop  offset="0.3335" style="stop-color:#4547EC"/>
				<stop  offset="1" style="stop-color:#4F52FF"/>
			</linearGradient>
			<path class="st24" d="M495.3,1286.8c3.6,5.3,17.9,126,20.2,170.5c0.2,3-2.3,5.5-5.3,5.5l0,0c-2.6,0-4.8-1.9-5.2-4.5l-26.2-167.7
				L495.3,1286.8z"/>
			<linearGradient id="SVGID_20_" gradientUnits="userSpaceOnUse" x1="433.5254" y1="1300.1632" x2="470.5255" y2="1114.1628">
				<stop  offset="0" style="stop-color:#FE7062"/>
				<stop  offset="1" style="stop-color:#FF928E"/>
			</linearGradient>
			<path class="st25" d="M358.6,1277.4l0,1.3c-0.1,9.5,8.1,17.2,18.3,17.4l121,2.1c10.1,0.2,18.4-7.1,18.9-16.4l0.1-1.2
				c0.5-9.7-7.7-17.9-18.2-18.1l-121-2.2C367.2,1260.1,358.7,1267.8,358.6,1277.4z"/>
		</g>
		<g>
			<g>
				<linearGradient id="SVGID_21_" gradientUnits="userSpaceOnUse" x1="558.6773" y1="1452.571" x2="646.4064" y2="1452.571">
					<stop  offset="0" style="stop-color:#4042E2"/>
					<stop  offset="0.3335" style="stop-color:#4547EC"/>
					<stop  offset="1" style="stop-color:#4F52FF"/>
				</linearGradient>
				<path class="st26" d="M594,1452.9c-21.5,0-31-1.8-35.3-3.5c0.8,3.5,4,6.3,7.9,6.3h76.1c2.6,0,4.2-2.5,3.6-4.7
					C637.6,1451.8,619.2,1452.9,594,1452.9z"/>
				<linearGradient id="SVGID_22_" gradientUnits="userSpaceOnUse" x1="626.269" y1="1283.8773" x2="602.299" y2="1449.4889">
					<stop  offset="0" style="stop-color:#09005D"/>
					<stop  offset="1" style="stop-color:#1A0F91"/>
				</linearGradient>
				<path class="st27" d="M646.3,1451.1c-0.1-0.4-0.3-0.9-0.6-1.3c-5.8-7.4-17.4-19-33.3-18.8c-23.2,0.3-31.3,2.8-49.3,0.1
					l-4.3,14.1c-0.4,1.4-0.4,2.9-0.1,4.2c4.3,1.7,13.8,3.5,35.3,3.5C619.2,1452.9,637.6,1451.8,646.3,1451.1z"/>
			</g>
			<linearGradient id="SVGID_23_" gradientUnits="userSpaceOnUse" x1="563.0594" y1="1426.1335" x2="586.7963" y2="1426.1335">
				<stop  offset="0" style="stop-color:#FF928E"/>
				<stop  offset="1" style="stop-color:#FEB3B1"/>
			</linearGradient>
			<path class="st28" d="M568.3,1415.9l-5.2,17.8c0,0,11.6,5.3,21.7,1l2-15.4L568.3,1415.9z"/>
			<g>
				<linearGradient id="SVGID_24_" gradientUnits="userSpaceOnUse" x1="696.2761" y1="1435.1852" x2="767.1074" y2="1435.1852">
					<stop  offset="0" style="stop-color:#4042E2"/>
					<stop  offset="0.3335" style="stop-color:#4547EC"/>
					<stop  offset="1" style="stop-color:#4F52FF"/>
				</linearGradient>
				<path class="st29" d="M726,1441.8c-16.8,13.5-25.3,18-29.7,19.4c2.8,2.2,7,2.4,10.1-0.1l59.3-47.7c2-1.6,1.7-4.5-0.1-5.9
					C759.3,1413.5,745.6,1426,726,1441.8z"/>
				<linearGradient id="SVGID_25_" gradientUnits="userSpaceOnUse" x1="744.9971" y1="1301.0619" x2="721.027" y2="1466.6731">
					<stop  offset="0" style="stop-color:#09005D"/>
					<stop  offset="1" style="stop-color:#1A0F91"/>
				</linearGradient>
				<path class="st30" d="M765.6,1407.5c-0.4-0.3-0.8-0.5-1.3-0.6c-9.1-2.1-25.5-3.8-37.7,6.3c-17.9,14.8-22.6,21.8-38.4,31
					l5.5,13.6c0.6,1.4,1.4,2.5,2.5,3.3c4.4-1.4,12.9-5.9,29.7-19.4C745.6,1426,759.3,1413.5,765.6,1407.5z"/>
			</g>
			<linearGradient id="SVGID_26_" gradientUnits="userSpaceOnUse" x1="528.001" y1="1292.3495" x2="463.0009" y2="1447.3495">
				<stop  offset="0" style="stop-color:#09005D"/>
				<stop  offset="1" style="stop-color:#1A0F91"/>
			</linearGradient>
			<path class="st31" d="M456.6,1213.6c0,0,128.8,10.5,155.2,22.9c26.4,12.4-21.6,186.7-21.6,186.7s-7.2,3.5-23.2-1.5
				c0,0,16.4-128.6,4.2-156.5l-139.4-22.8L456.6,1213.6z"/>
			<linearGradient id="SVGID_27_" gradientUnits="userSpaceOnUse" x1="675.4884" y1="1428.1312" x2="703.8268" y2="1428.1312">
				<stop  offset="0" style="stop-color:#FF928E"/>
				<stop  offset="1" style="stop-color:#FEB3B1"/>
			</linearGradient>
			<path class="st32" d="M675.5,1419.7c1.2,1.1,12.8,24.5,12.8,24.5s12.9-2.8,15.5-11l-11.6-21.1L675.5,1419.7z"/>
			<linearGradient id="SVGID_28_" gradientUnits="userSpaceOnUse" x1="480.2073" y1="1633.8108" x2="541.2073" y2="1290.8113">
				<stop  offset="0" style="stop-color:#09005D"/>
				<stop  offset="0.5502" style="stop-color:#12087A"/>
				<stop  offset="1" style="stop-color:#1A0F91"/>
			</linearGradient>
			<path class="st33" d="M379,1212.5c0,0-4.2,10.1-4,23.5c0.2,18.6,15.2,33.6,33.7,34.5l152.2,6.9c3.2,0.1,5.9,2.4,6.7,5.5
				c3.6,13.8,21.1,56.3,106.5,141.1c2.3,2.3,5.8,2.6,8.5,0.9l12.2-7.7c1.3-0.8,1.7-2.5,0.9-3.8l-88.6-151.3
				c-4.7-7.7-12.1-13.2-20.8-15.5l-129.7-33.2L379,1212.5z"/>
			<linearGradient id="SVGID_29_" gradientUnits="userSpaceOnUse" x1="496.1205" y1="1008.7986" x2="566.7446" y2="1008.7986">
				<stop  offset="0" style="stop-color:#FF928E"/>
				<stop  offset="1" style="stop-color:#FEB3B1"/>
			</linearGradient>
			<path class="st34" d="M555.6,979.5c0,0-42.9,25.4-59.5,39.4l34.4,19.2c0,0,18.6-21.5,36.3-30.4L555.6,979.5z"/>
			<linearGradient id="SVGID_30_" gradientUnits="userSpaceOnUse" x1="376.2777" y1="1116.0713" x2="646.1765" y2="1116.0713">
				<stop  offset="0" style="stop-color:#4042E2"/>
				<stop  offset="0.3335" style="stop-color:#4547EC"/>
				<stop  offset="1" style="stop-color:#4F52FF"/>
			</linearGradient>
			<path class="st35" d="M376.3,1213.6c0,0,41.1,10,80.3,0c0,0,54.9-73.8,76.1-93.9c0,0,33.9,53.4,109.3,61l4.2-9.4
				c0,0-60-27.7-78.5-70.2c-18.5-42.5-25.9-60.6-42.7-71.7c-10.5-6.9-16.7-11.6-20-14.2c-1.8-1.4-4.2-1.6-6.2-0.4
				C481,1025.7,397.1,1083.2,376.3,1213.6z"/>
			<g>
				<linearGradient id="SVGID_31_" gradientUnits="userSpaceOnUse" x1="508.4214" y1="1098.0699" x2="532.2386" y2="1098.0699">
					<stop  offset="0" style="stop-color:#09005D"/>
					<stop  offset="1" style="stop-color:#1A0F91"/>
				</linearGradient>
				<path class="st36" d="M530.5,1117.8c-0.5,0-1-0.2-1.4-0.7c-13-17-20.5-36.2-20.6-36.4c-0.3-0.9,0.1-1.9,1-2.3
					c0.9-0.3,1.9,0.1,2.3,1c0.1,0.2,7.4,19,20.1,35.6c0.6,0.8,0.4,1.9-0.3,2.5C531.2,1117.7,530.9,1117.8,530.5,1117.8z"/>
			</g>
			<linearGradient id="SVGID_32_" gradientUnits="userSpaceOnUse" x1="637.4393" y1="1165.8153" x2="702.8981" y2="1165.8153">
				<stop  offset="0" style="stop-color:#F9B776"/>
				<stop  offset="1" style="stop-color:#F47960"/>
			</linearGradient>
			<path class="st37" d="M637.4,1166.5l8.5-2.3l25.8-6c3.1-0.7,6.4-0.2,9.1,1.5l22.2,13.9l-61.2-0.1L637.4,1166.5z"/>
			<g>
				
					<linearGradient id="SVGID_33_" gradientUnits="userSpaceOnUse" x1="214.4036" y1="2600.2063" x2="150.7007" y2="2684.48" gradientTransform="matrix(0.9897 -0.1428 0.1428 0.9897 1.6639 -1579.7996)">
					<stop  offset="0" style="stop-color:#FF928E"/>
					<stop  offset="1" style="stop-color:#FEB3B1"/>
				</linearGradient>
				<path class="st38" d="M597.5,960.9c0.1,0.8-11,55.2-11,55.2l-30.9-7l2.9-53.1C558.4,956,595.5,946.9,597.5,960.9z"/>
				
					<linearGradient id="SVGID_34_" gradientUnits="userSpaceOnUse" x1="165.7528" y1="2620.5352" x2="241.8466" y2="2620.5352" gradientTransform="matrix(0.9897 -0.1428 0.1428 0.9897 1.6639 -1579.7996)">
					<stop  offset="0" style="stop-color:#09005D"/>
					<stop  offset="1" style="stop-color:#1A0F91"/>
				</linearGradient>
				<path class="st39" d="M565.4,967.8l-3.7,27.8c0,0.4,0,0.7,0,1.1c0.3,2.2,1.9,9.6,9.4,7.5c6.8-1.9,13-3.6,17.4-2.3
					c1.9,0.6,3.1,2.6,2.7,4.5c-1,4.9-3.5,16-7.1,25.3c-0.7,1.9-2.8,2.9-4.8,2.3c-5.9-1.7-18.1-5.7-27.3-11.2c-1.2-0.7-2-2.1-1.9-3.5
					c0.3-7,1.1-28.4,0.4-34.4c-0.6-5.6-7.6-9-10.5-10.2c-1-0.4-1.8-1.2-2.1-2.2c-1.4-3.5-3.3-11.5,6.8-14.8c2.1-0.7,3.2-3,2.5-5.1
					c-1.5-4.2-2.1-10.6,5.7-14.1c8-3.6,13.9,0.7,17.2,4.1c1.3,1.4,3.4,1.6,5,0.6c0.9-0.6,2.1-0.8,3.5,0.1c1.9,1.2,4.5,0.4,5.5-1.7
					c1.9-3.9,5.8-8.1,13.6-6.8c13.9,2.4,15.4,17.7,11.8,26.7c-3.7,9-18.5,5.6-26,1c-5.7-3.4-13,0.2-16.2,2.1
					C566.2,965.6,565.6,966.6,565.4,967.8z"/>
				
					<linearGradient id="SVGID_35_" gradientUnits="userSpaceOnUse" x1="121.104" y1="2666.9443" x2="172.1988" y2="2614.5225" gradientTransform="matrix(0.9897 -0.1428 0.1428 0.9897 1.6639 -1579.7996)">
					<stop  offset="0" style="stop-color:#FF928E"/>
					<stop  offset="1" style="stop-color:#FEB3B1"/>
				</linearGradient>
				<path class="st40" d="M549.3,995.2c0,0,5.7-16-0.2-19.9c-5.9-3.9-14.5-1.9-12.6,9.7C538.9,999.4,549.3,995.2,549.3,995.2z"/>
			</g>
		</g>
		<g>
			<g>
				
					<linearGradient id="SVGID_36_" gradientUnits="userSpaceOnUse" x1="-4996.5654" y1="2003.7789" x2="-4990.5659" y2="2320.7778" gradientTransform="matrix(-1.388 -6.860000e-02 -6.850000e-02 1.3855 -6236.5127 -215.9469)">
					<stop  offset="0" style="stop-color:#4042E2"/>
					<stop  offset="1" style="stop-color:#4F52FF"/>
				</linearGradient>
				<path class="st41" d="M613.8,1185.7c0.1,0,0.2,0,0.3,0l130.7-0.1c3.2,0,5.8-2.6,5.8-5.8c0-3.2-2.6-5.9-5.9-5.8l-130.7,0.1
					c-3.2,0-5.8,2.6-5.8,5.8C608.3,1183,610.7,1185.5,613.8,1185.7z"/>
			</g>
			<g>
				
					<linearGradient id="SVGID_37_" gradientUnits="userSpaceOnUse" x1="-7888.9463" y1="4162.0391" x2="-7882.9463" y2="4479.0386" gradientTransform="matrix(0.6475 -1.2297 -1.2274 -0.6463 7293.9038 -7927.8447)">
					<stop  offset="0" style="stop-color:#4042E2"/>
					<stop  offset="1" style="stop-color:#4F52FF"/>
				</linearGradient>
				<path class="st42" d="M795.4,1057.7c0,0.1-0.1,0.2-0.1,0.3l-55,118.6c-1.4,2.9-0.1,6.4,2.8,7.8c2.9,1.4,6.5,0.1,7.8-2.9
					l55-118.6c1.4-2.9,0.1-6.4-2.8-7.8C800.2,1053.8,796.9,1055,795.4,1057.7z"/>
			</g>
		</g>
		<g>
			<linearGradient id="SVGID_38_" gradientUnits="userSpaceOnUse" x1="602.7422" y1="1327.554" x2="681.5898" y2="1327.554">
				<stop  offset="0" style="stop-color:#FE7062"/>
				<stop  offset="1" style="stop-color:#FF928E"/>
			</linearGradient>
			<path class="st43" d="M672,1192.3c-0.6,2.4-55.1,206.9-68.9,258.7c-1.6,6,2.9,11.8,9,11.8l0,0c4.3,0,8-2.9,9-7.1l60.5-245.4
				L672,1192.3z"/>
			<linearGradient id="SVGID_39_" gradientUnits="userSpaceOnUse" x1="692.2677" y1="1327.554" x2="771.1155" y2="1327.554">
				<stop  offset="0" style="stop-color:#FE7062"/>
				<stop  offset="1" style="stop-color:#FF928E"/>
			</linearGradient>
			<path class="st44" d="M701.9,1192.3c0.6,2.4,55.1,206.9,68.9,258.7c1.6,6-2.9,11.8-9,11.8l0,0c-4.3,0-8-2.9-9-7.1l-60.5-245.4
				L701.9,1192.3z"/>
			<linearGradient id="SVGID_40_" gradientUnits="userSpaceOnUse" x1="670.1687" y1="1236.0797" x2="704.1321" y2="1236.0797">
				<stop  offset="0" style="stop-color:#FE7062"/>
				<stop  offset="1" style="stop-color:#FF928E"/>
			</linearGradient>
			<path class="st45" d="M704.1,1185.6h-34v27.3c0,3.9,3.1,7.1,7,7.1h4.7v61.3c0,3,2.4,5.4,5.3,5.4l0,0c2.9,0,5.3-2.4,5.3-5.4v-61.3
				h2.4c5.1,0,9.3-4.2,9.3-9.4V1185.6z"/>
			<linearGradient id="SVGID_41_" gradientUnits="userSpaceOnUse" x1="683.9416" y1="1177.8092" x2="659.8436" y2="1355.9873">
				<stop  offset="0" style="stop-color:#09005D"/>
				<stop  offset="1" style="stop-color:#1A0F91"/>
			</linearGradient>
			<path class="st46" d="M586.7,1179h189.6c2.7,0,5,1.8,5.6,4.4l2.6,10.4c1,3.7-1.8,7.4-5.7,7.4l-194.6-1.1c-3.8,0-6.5-3.6-5.6-7.3
				l2.3-9.3C581.7,1180.9,584,1179,586.7,1179z"/>
		</g>
	</g>
	<g>
		<g>
			<g>
				<path class="st15" d="M378.6,911.1c-1.7,0-3.4-0.7-4.5-2.1l-18.7-22.1c-13.6,1.7-27.4,1.4-40.9-0.9l-19.7,21.2
					c-1.7,1.8-4.4,2.4-6.7,1.4l-33.8-14.9c-2.3-1-3.7-3.4-3.5-5.9l2.4-28.9c-10.8-8.4-20.3-18.3-28.2-29.6l-29,1.1
					c-2.6,0.1-4.8-1.4-5.7-3.8l-13.4-34.5c-0.9-2.4-0.2-5,1.7-6.6l22.1-18.7c-1.7-13.6-1.4-27.4,0.9-40.9l-21.2-19.7
					c-1.8-1.7-2.4-4.4-1.4-6.7l14.9-33.8c1-2.3,3.4-3.7,5.9-3.5l28.9,2.4c8.4-10.8,18.3-20.3,29.6-28.2l-1.1-29
					c-0.1-2.5,1.4-4.8,3.8-5.7l34.5-13.4c2.3-0.9,5-0.2,6.6,1.7l18.7,22.1c13.6-1.7,27.4-1.4,40.9,0.9l19.7-21.2
					c1.7-1.8,4.4-2.4,6.7-1.4l33.8,14.9c2.3,1,3.7,3.4,3.5,5.9l-2.4,28.9c10.8,8.4,20.3,18.3,28.2,29.6l29-1.1
					c2.5-0.1,4.8,1.4,5.7,3.8l13.4,34.5c0.9,2.4,0.2,5-1.7,6.6l-22.1,18.7c1.7,13.6,1.4,27.4-0.9,40.9l21.2,19.7
					c1.8,1.7,2.4,4.4,1.4,6.7l-14.9,33.8c-1,2.3-3.4,3.7-5.9,3.5l-28.9-2.4c-8.4,10.8-18.3,20.3-29.6,28.2l1.1,29
					c0.1,2.5-1.4,4.8-3.8,5.7l-34.5,13.4C380,911,379.3,911.1,378.6,911.1z M358.1,879.7l20.7,24.5l33.3-12.9l-1.2-32.1l1.5-1.1
					c11.8-8.1,22.1-17.9,30.7-29.3l1.1-1.5l32,2.7l14.4-32.7l-23.5-21.8l0.3-1.8c2.6-14,2.9-28.2,0.9-42.4l-0.3-1.8l24.5-20.7
					l-12.9-33.3l-32.1,1.2l-1.1-1.5c-8.1-11.8-17.9-22.1-29.3-30.7l-1.5-1.1l2.7-32l-32.7-14.4L364,620.4l-1.8-0.3
					c-14-2.6-28.2-2.9-42.4-0.9l-1.8,0.3l-20.7-24.5l-33.3,12.9l1.2,32.1l-1.5,1.1c-11.8,8.1-22.1,17.9-30.7,29.3l-1.1,1.5l-32-2.7
					l-14.4,32.7l23.5,21.8l-0.3,1.8c-2.6,14-2.9,28.2-0.9,42.4l0.3,1.8l-24.5,20.7l12.9,33.3l32.1-1.2l1.1,1.5
					c8.1,11.8,17.9,22.1,29.3,30.7l1.5,1.1l-2.7,32l32.7,14.4l21.8-23.5l1.8,0.3c14,2.6,28.2,2.9,42.4,0.9L358.1,879.7z
					 M337.2,842.5c-12.5,0-25.1-2.5-37.2-7.9c-46.7-20.6-68-75.4-47.4-122.1c10-22.6,28.2-40,51.2-49c23.1-8.9,48.2-8.4,70.8,1.6
					c6,2.7,11.8,6,17.1,9.8c1.5,1.1,1.8,3.2,0.8,4.7c-1.1,1.5-3.2,1.8-4.7,0.7c-4.9-3.6-10.2-6.6-15.9-9.1
					c-21-9.2-44.3-9.8-65.7-1.5c-21.4,8.3-38.2,24.4-47.5,45.4c-19.1,43.3,0.6,94.1,43.9,113.2c43.3,19.1,94.1-0.6,113.2-43.9
					c6.3-14.2,8.6-29.9,6.7-45.2c-0.2-1.9,1.1-3.5,2.9-3.8c1.8-0.2,3.5,1.1,3.8,2.9c2.1,16.6-0.4,33.4-7.2,48.8
					C406.8,821.9,372.8,842.5,337.2,842.5z"/>
			</g>
			<g>
				<path class="st15" d="M338,785.8c-2,0-4.1-0.2-6.1-0.5c-19.7-3.3-33-22.1-29.6-41.8c3-17.5,18-30.2,35.7-30.2
					c2,0,4.1,0.2,6.1,0.5c9.5,1.6,17.9,6.8,23.5,14.7c5.6,7.9,7.8,17.5,6.2,27C370.7,773.1,355.7,785.8,338,785.8z M338,720.1
					c-14.4,0-26.6,10.3-29,24.5c-2.7,16,8.1,31.2,24.1,34c1.6,0.3,3.3,0.4,5,0.4c14.4,0,26.6-10.3,29-24.5c1.3-7.8-0.5-15.6-5-22
					c-4.6-6.4-11.3-10.7-19.1-12C341.3,720.2,339.6,720.1,338,720.1z"/>
			</g>
		</g>
		<g>
			<g>
				<path class="st15" d="M524.6,646.4c-0.3,0-0.6,0-0.9-0.1l-10.4-3.2c-1.2-0.4-2.1-1.5-2.1-2.8l-0.2-7.9c-3.2-2-6-4.4-8.5-7.1
					l-7.8,1.2c-1.3,0.2-2.5-0.4-3.1-1.6l-5.1-9.7c-0.6-1.1-0.4-2.5,0.5-3.5l5.4-5.7c-0.8-3.6-1.2-7.3-1-11.1l-6.4-4.7
					c-1-0.8-1.5-2.1-1.1-3.3l3.2-10.4c0.4-1.2,1.5-2.1,2.8-2.1l7.9-0.2c2-3.2,4.4-6,7.1-8.5l-1.2-7.8c-0.2-1.3,0.4-2.5,1.6-3.1
					l9.7-5.1c1.1-0.6,2.5-0.4,3.5,0.5l5.7,5.4c3.6-0.8,7.3-1.2,11.1-1l4.7-6.4c0.8-1,2.1-1.5,3.3-1.1l10.4,3.2
					c1.2,0.4,2.1,1.5,2.1,2.8l0.2,7.9c3.2,2,6,4.4,8.5,7.1l7.8-1.2c1.3-0.2,2.5,0.4,3.1,1.6l5.1,9.7c0.6,1.1,0.4,2.5-0.5,3.4
					l-5.4,5.7c0.8,3.6,1.2,7.3,1,11.1l6.4,4.7c1,0.8,1.5,2.1,1.1,3.3l-3.2,10.4c-0.4,1.2-1.5,2.1-2.8,2.1l-7.9,0.2
					c-2,3.2-4.4,6-7.1,8.5l1.2,7.8c0.2,1.3-0.4,2.5-1.6,3.1l-9.7,5.1c-1.1,0.6-2.5,0.4-3.5-0.5l-5.7-5.4c-3.6,0.8-7.3,1.2-11.1,1
					l-4.7,6.4C526.5,646,525.5,646.4,524.6,646.4z M515.6,639.1l8.4,2.6l5.5-7.5l1.2,0.1c4.1,0.3,8.1-0.1,12.1-1.1l1.2-0.3l6.8,6.3
					l7.8-4.1l-1.4-9.2l0.9-0.8c3.1-2.7,5.7-5.8,7.8-9.3l0.6-1.1l9.3-0.3l2.6-8.4l-7.5-5.5l0.1-1.2c0.3-4.1-0.1-8.1-1.1-12.1
					l-0.3-1.2l6.4-6.8l-4.1-7.8l-9.2,1.4l-0.8-0.9c-2.7-3.1-5.8-5.7-9.3-7.8l-1.1-0.6l-0.3-9.3l-8.4-2.6l-5.5,7.5l-1.2-0.1
					c-4.1-0.3-8.1,0.1-12.1,1.1l-1.2,0.3l-6.8-6.4l-7.8,4.1l1.4,9.2l-0.9,0.8c-3.1,2.7-5.7,5.8-7.8,9.3l-0.6,1.1L491,579l-2.6,8.4
					l7.5,5.5l-0.1,1.2c-0.3,4.1,0.1,8.1,1.1,12.1l0.3,1.2l-6.4,6.8l4.1,7.8l9.2-1.4l0.8,0.9c2.7,3.1,5.8,5.7,9.3,7.7l1.1,0.6
					L515.6,639.1z M533.2,625.3c-2.8,0-5.7-0.4-8.5-1.3c-7.3-2.3-13.3-7.2-16.8-14c-7.4-14-2-31.3,12-38.7c14-7.4,31.3-2,38.7,12
					c1,1.8,1.7,3.7,2.3,5.7c0.3,1.2-0.4,2.4-1.6,2.8c-1.2,0.3-2.4-0.4-2.8-1.6c-0.5-1.6-1.1-3.3-1.9-4.8
					c-6.2-11.8-20.8-16.3-32.6-10.1c-11.8,6.2-16.3,20.8-10.1,32.6c3,5.7,8,9.9,14.2,11.8c6.2,1.9,12.7,1.3,18.4-1.7
					c3.9-2,7.1-5.1,9.4-8.8c0.6-1.1,2-1.4,3.1-0.8c1.1,0.6,1.4,2,0.8,3.1c-2.7,4.4-6.5,8-11.1,10.4
					C542.3,624.2,537.8,625.3,533.2,625.3z"/>
			</g>
			<g>
				<path class="st15" d="M533.4,608.7c-3.4,0-6.6-1.4-8.9-4c-2.1-2.4-3.2-5.4-3-8.6c0.2-3.2,1.6-6.1,3.9-8.3c2.2-2,5-3.1,8-3.1
					c3.4,0,6.6,1.4,8.9,4c2.1,2.4,3.2,5.4,3,8.6c-0.2,3.2-1.6,6.1-3.9,8.3C539.2,607.6,536.3,608.7,533.4,608.7z M533.4,589.2
					c-1.8,0-3.6,0.7-5,1.9c-1.5,1.3-2.4,3.2-2.5,5.1c-0.1,2,0.6,3.9,1.9,5.4c2.6,2.9,7.6,3.2,10.5,0.6c1.5-1.3,2.4-3.2,2.5-5.1
					c0.1-2-0.6-3.9-1.9-5.4C537.5,590.2,535.5,589.2,533.4,589.2z"/>
			</g>
		</g>
	</g>
	<g>
		<linearGradient id="SVGID_42_" gradientUnits="userSpaceOnUse" x1="1449.9167" y1="892.0113" x2="1496.2354" y2="940.3885">
			<stop  offset="0" style="stop-color:#2B3582"/>
			<stop  offset="1" style="stop-color:#150E42"/>
		</linearGradient>
		<path class="st47" d="M1437,867c0,0-12.8,0.7-14.3,27c0,0,29.6,26.6,69.6,32.9c3,0.5-4.2-20.5-5.3-23.4
			C1481.9,890,1465.6,881.3,1437,867z"/>
		<linearGradient id="SVGID_43_" gradientUnits="userSpaceOnUse" x1="1381.9924" y1="867.1576" x2="1381.9924" y2="1113.1456">
			<stop  offset="0" style="stop-color:#FE7062"/>
			<stop  offset="1" style="stop-color:#FF928E"/>
		</linearGradient>
		<path class="st48" d="M1293.1,836.1h27c0,0,82.8-91.4,137-100.6c0,0,37.8,48.2-2,138.3c-3.2,7.2-12.2,10.5-18.8,6.2
			c-2-1.3-3.4-3-4.3-5.1l3.2-76.9c0,0-70.6,61.7-82.9,73.7C1340,883.5,1277.7,876.3,1293.1,836.1z"/>
		<linearGradient id="SVGID_44_" gradientUnits="userSpaceOnUse" x1="1511.361" y1="1013.4382" x2="1598.9745" y2="1077.7417">
			<stop  offset="0" style="stop-color:#2B3582"/>
			<stop  offset="1" style="stop-color:#150E42"/>
		</linearGradient>
		<path class="st49" d="M1553.8,1028c-11.3-9.9-29.3-21-55.3-24.2l-8.8,5.4c0,0,5.6,8.3,15.8,17c9.4,5.5,23.9,12.9,36,14.5
			C1553.2,1042.2,1555,1035.1,1553.8,1028z"/>
		<linearGradient id="SVGID_45_" gradientUnits="userSpaceOnUse" x1="1463.2356" y1="900.97" x2="1522.7159" y2="724.1368">
			<stop  offset="0" style="stop-color:#2B3582"/>
			<stop  offset="1" style="stop-color:#150E42"/>
		</linearGradient>
		<path class="st50" d="M1487,903.5c-7,2.3-10,12.1-27.7,5.6c-17.1-6.3-29.8-14.4-36.3-19.1c-0.1,1.3-0.3,2.6-0.4,4
			c0,0,31.2,29.7,71.3,36c3,0.5,5.4-2.5,4.3-5.4C1496.3,919.6,1492.8,911.8,1487,903.5z"/>
		<linearGradient id="SVGID_46_" gradientUnits="userSpaceOnUse" x1="1493.972" y1="1041.9913" x2="1594.1442" y2="1026.7966">
			<stop  offset="0" style="stop-color:#2B3582"/>
			<stop  offset="1" style="stop-color:#150E42"/>
		</linearGradient>
		<path class="st51" d="M1562.3,1036.5c-2.2-2.5-5.1-5.4-8.5-8.5c1.2,7.1-0.5,14.2-12.2,12.7c-12-1.6-26.6-9-36-14.5
			c11.8,10.1,29.7,20.7,52.4,20.1C1563,1046.2,1565.6,1040.2,1562.3,1036.5z"/>
		<linearGradient id="SVGID_47_" gradientUnits="userSpaceOnUse" x1="1397.2178" y1="1054.2847" x2="1389.7142" y2="1019.7685">
			<stop  offset="0" style="stop-color:#FE7062"/>
			<stop  offset="1" style="stop-color:#FF928E"/>
		</linearGradient>
		<path class="st52" d="M1294.1,855.6l126.3,1.4c0,0,72.1,59.7,85.2,150.6c0,0,2.2,6.7-10.9,7.8c0,0-43.6-28.5-72-78.8
			c-34.9-61.7-90.9-39.7-90.9-39.7c-68,23.2-91.3-11.2-91.9-19.4L1294.1,855.6z"/>
		<path class="st5" d="M1297.1,753.9c0,0,13.6,68.1,80.2,95.1l23.7-2.8l5.6,8.9l-55.6,1.8c0,0-47.5-18.8-72.7-70.1
			C1277.5,785.1,1263.6,756.5,1297.1,753.9z"/>
		<linearGradient id="SVGID_48_" gradientUnits="userSpaceOnUse" x1="1310.6624" y1="620.0972" x2="1191.7017" y2="880.5243">
			<stop  offset="0" style="stop-color:#09005D"/>
			<stop  offset="1" style="stop-color:#1A0F91"/>
		</linearGradient>
		<path class="st53" d="M1304.4,854.5c0,0-15.5-42-18.8-82.8c0,0,11.3-9.7,18.4-13.9c2.3-1.4,3.2-4.2,2-6.6
			c-5.2-10.8-36.6-53-39-53.6c-12.8-3.2-65.3-28.1-102.2,22.4c-15.9,21.7,3.1,88.5,75.1,157.6l2.4,0.5c8.1,1.5,16.4,0.3,23.7-3.5
			L1304.4,854.5z"/>
		<path class="st5" d="M1244.8,780.9c0,0,42.9,50.8,97.8,58.3c0,0,14.2-12.9,24.7-8.3c10.6,4.6,25,25,25,25h-70.5
			c0,0-66.7-2.3-100-42.8C1224.6,798.9,1232.7,790.5,1244.8,780.9z"/>
		<linearGradient id="SVGID_49_" gradientUnits="userSpaceOnUse" x1="1210.2104" y1="682.3358" x2="1249.7772" y2="682.3358">
			<stop  offset="0" style="stop-color:#DAE3FE"/>
			<stop  offset="1" style="stop-color:#E9EFFD"/>
		</linearGradient>
		<path class="st54" d="M1219.8,661.9l-9.4,31.3c-0.4,1.4,0.1,3,1.3,3.8c4.5,3.1,16.3,9.3,32.6,3.3c1.9-0.7,3.1-2.4,3.3-4.4
			l2.2-27.3L1219.8,661.9z"/>
		<g>
			<path class="st5" d="M1274.8,636.5c0,0-4.6,32.5-17.1,42.5c-12.5,10-36.8,2.5-45-22l16.4-41.9L1274.8,636.5z"/>
			<linearGradient id="SVGID_50_" gradientUnits="userSpaceOnUse" x1="1233.6649" y1="554.0779" x2="1251.6112" y2="656.4382">
				<stop  offset="0" style="stop-color:#2B3582"/>
				<stop  offset="1" style="stop-color:#150E42"/>
			</linearGradient>
			<path class="st55" d="M1227.2,642.1c0.9,0.3,1.9-0.3,2.1-1.3c0.5-3,1.6-8.9,3.9-13c0,0-1.2-4.3,10.8,2.2
				c12,6.4,29.9,15.9,40.5,10.3c10.3-5.5,20.8-33.1-6.5-28c-1,0.2-2-0.6-1.9-1.7c0.3-4.5-0.1-15-10.7-18.3c-9.9-3.1-15.3,1.3-17.6,4
				c-0.7,0.8-1.9,0.8-2.5,0c-3-3.9-11-12.1-22.9-6.9c-9.8,4.3-11.3,10.3-11.1,14.1c0.1,1.2-1.2,2-2.3,1.5c-3-1.4-7.8-2.1-12.4,3.7
				c-6.4,8,2.7,14.9,5.5,16.7c0.4,0.3,0.7,0.8,0.7,1.3c0,4.2,0.7,22.3,9.8,32.5c0.8,0.9,2.2,0.6,2.7-0.5l7-16.7
				c0.3-0.8,1.2-1.2,2-0.9L1227.2,642.1z"/>
			<path class="st5" d="M1227.3,645.5c0,0-4.3-17.4-10.8-11.7c-6.5,5.6,1.7,18.1,9.1,20.4L1227.3,645.5z"/>
		</g>
		<linearGradient id="SVGID_51_" gradientUnits="userSpaceOnUse" x1="1388.8638" y1="803.3464" x2="1479.3348" y2="803.3464">
			<stop  offset="0" style="stop-color:#09005D"/>
			<stop  offset="1" style="stop-color:#1A0F91"/>
		</linearGradient>
		<path class="st56" d="M1388.9,859.8l31.7-105.6c1.3-4.3,5.1-7.4,9.6-7.7l42.7-2.9c4.3-0.3,7.6,3.9,6.1,8.1l-35.4,100.8
			c-1.1,3.2-4.1,5.5-7.5,5.9l-42.1,4.7L1388.9,859.8z"/>
		<linearGradient id="SVGID_52_" gradientUnits="userSpaceOnUse" x1="1399.8445" y1="842.8937" x2="1327.5033" y2="862.7205">
			<stop  offset="0" style="stop-color:#09005D"/>
			<stop  offset="1" style="stop-color:#1A0F91"/>
		</linearGradient>
		<path class="st57" d="M1394,863.1c-0.1,0-0.1,0-0.2,0l-89.7-4.5c-2.2-0.1-3.9-2-3.8-4.2c0.1-2.2,2-4,4.2-3.8l89.7,4.5
			c2.2,0.1,3.9,2,3.8,4.2C1397.9,861.4,1396.2,863.1,1394,863.1z"/>
		<linearGradient id="SVGID_53_" gradientUnits="userSpaceOnUse" x1="1342.1095" y1="647.2887" x2="1234.4019" y2="830.5523">
			<stop  offset="0" style="stop-color:#4042E2"/>
			<stop  offset="1" style="stop-color:#4F52FF"/>
		</linearGradient>
		<path class="st58" d="M1285.6,772.5C1285.6,772.5,1285.6,772.5,1285.6,772.5c-0.4,0-0.8-0.4-0.8-0.8c0.1-18.7-7.2-43.6-7.2-43.8
			c-0.1-0.4,0.1-0.9,0.5-1c0.4-0.1,0.9,0.1,1,0.5c0.1,0.3,7.4,25.3,7.3,44.3C1286.4,772.1,1286,772.5,1285.6,772.5z"/>
		<linearGradient id="SVGID_54_" gradientUnits="userSpaceOnUse" x1="1309.1232" y1="627.902" x2="1201.4154" y2="811.1658">
			<stop  offset="0" style="stop-color:#4042E2"/>
			<stop  offset="1" style="stop-color:#4F52FF"/>
		</linearGradient>
		<path class="st59" d="M1244.8,781.7c-0.2,0-0.5-0.1-0.6-0.3c-0.2-0.2-19.8-25.2-26.6-42.3c-0.2-0.4,0-0.9,0.5-1
			c0.4-0.2,0.9,0,1,0.5c6.7,16.9,26.1,41.6,26.3,41.9c0.3,0.3,0.2,0.9-0.1,1.1C1245.2,781.6,1245,781.7,1244.8,781.7z"/>
		<linearGradient id="SVGID_55_" gradientUnits="userSpaceOnUse" x1="1297.1841" y1="620.8856" x2="1189.4772" y2="804.148">
			<stop  offset="0" style="stop-color:#4042E2"/>
			<stop  offset="1" style="stop-color:#4F52FF"/>
		</linearGradient>
		<path class="st60" d="M1217.2,819.8l-0.6-0.3c-28.4-12.2-45.9-46.1-46.1-46.4c-0.2-0.4,0-0.9,0.3-1.1c0.4-0.2,0.9,0,1.1,0.4
			c0.2,0.3,17.2,33.3,44.7,45.4l2.9-4.1c0.3-0.4,0.8-0.4,1.1-0.2c0.4,0.3,0.4,0.8,0.2,1.1L1217.2,819.8z"/>
	</g>
	<g>
		<g>
			<g>
				<linearGradient id="SVGID_56_" gradientUnits="userSpaceOnUse" x1="1909.639" y1="1422.0398" x2="1933.2562" y2="1273.4806">
					<stop  offset="0" style="stop-color:#4042E2"/>
					<stop  offset="0.3335" style="stop-color:#4547EC"/>
					<stop  offset="1" style="stop-color:#4F52FF"/>
				</linearGradient>
				<rect x="1912.7" y="1309.3" class="st61" width="10.9" height="118.2"/>
				<linearGradient id="SVGID_57_" gradientUnits="userSpaceOnUse" x1="1918.8855" y1="1423.1288" x2="1943.147" y2="1270.5173">
					<stop  offset="0" style="stop-color:#4042E2"/>
					<stop  offset="0.3335" style="stop-color:#4547EC"/>
					<stop  offset="1" style="stop-color:#4F52FF"/>
				</linearGradient>
				<path class="st62" d="M1966,1429.7h-95.7v-4c0-1.7,1.4-3.1,3.1-3.1h89.4c1.7,0,3.1,1.4,3.1,3.1V1429.7z"/>
				<linearGradient id="SVGID_58_" gradientUnits="userSpaceOnUse" x1="1890.9529" y1="1482.9777" x2="1914.5702" y2="1334.4177">
					<stop  offset="0" style="stop-color:#09005D"/>
					<stop  offset="1" style="stop-color:#1A0F91"/>
				</linearGradient>
				<path class="st63" d="M1980.2,1305.2c0,6.5-5.3,11.8-11.8,11.8h-96.8c-6.5,0-11.8-5.3-11.8-11.8v-10.6c0-6.5,5.3-11.8,11.8-11.8
					h96.8c6.5,0,11.8,5.3,11.8,11.8V1305.2z"/>
			</g>
			<g>
				<linearGradient id="SVGID_59_" gradientUnits="userSpaceOnUse" x1="1850.8868" y1="1349.3177" x2="1940.887" y2="1453.3179">
					<stop  offset="0" style="stop-color:#FF928E"/>
					<stop  offset="1" style="stop-color:#FEB3B1"/>
				</linearGradient>
				<path class="st64" d="M1837.5,1230.5c0,0-16.2,2.5-34.5,14.7c-2.9,1.9-4.4,5.3-4,8.7c2.2,17.3,11.2,73.4,40.8,128.1
					c1.6,2.9,2,6.2,1.3,9.5l-5.1,24l-9.5,9h24.6l16.4-44.3l-7-2.2c-5.4-1.7-9.2-6.7-9.3-12.4l-0.8-47.5c0.7-21.2-13-35.8-13-35.8
					l39.3-1.9L1837.5,1230.5z"/>
				<linearGradient id="SVGID_60_" gradientUnits="userSpaceOnUse" x1="1846.4597" y1="1378.0776" x2="1835.032" y2="1553.3013">
					<stop  offset="0" style="stop-color:#4042E2"/>
					<stop  offset="0.3335" style="stop-color:#4547EC"/>
					<stop  offset="1" style="stop-color:#4F52FF"/>
				</linearGradient>
				<path class="st65" d="M1816.8,1428.7c-2.2,2.9,24.1,6.8,37.4,0.4c0,0,18.5-32.1,18.5-48.6c0,0-1.5-3.4-12.3-2.6
					c0,0-6.2,38-12.7,42.3c-6.5,4.3-18.3,0.4-18.3,0.4S1820.1,1424.4,1816.8,1428.7z"/>
				<linearGradient id="SVGID_61_" gradientUnits="userSpaceOnUse" x1="1757.261" y1="1166.281" x2="1783.261" y2="1317.281">
					<stop  offset="0" style="stop-color:#FF928E"/>
					<stop  offset="1" style="stop-color:#FEB3B1"/>
				</linearGradient>
				<path class="st66" d="M1871.6,1282.8c-0.2-0.4-42.3-5.1-42.3-5.1s1.4,12.8-2.9,30.4c-4.3,17.6-66.1,93.9-66.1,93.9l6.5,20.5
					c-20,7-39.7,8.1-59.1,3.6l40.1-24.1c0,0,37.6-128,60.6-150.9l42.2-14.6L1871.6,1282.8z"/>
				<linearGradient id="SVGID_62_" gradientUnits="userSpaceOnUse" x1="1865.949" y1="1380.5485" x2="1895.4028" y2="1271.9374">
					<stop  offset="0" style="stop-color:#4042E2"/>
					<stop  offset="1" style="stop-color:#4F52FF"/>
				</linearGradient>
				<path class="st67" d="M1966,1208.3c0,0,24.2,36.1,26.2,52.5c2,16.4-6.6,23.1-32.1,24.2c-25.4,1.1-93.4,1.1-93.4,1.1l-58-49.5
					c0,0,42.2-15.1,53.2-19.3C1873.1,1213,1966,1208.3,1966,1208.3z"/>
				<linearGradient id="SVGID_63_" gradientUnits="userSpaceOnUse" x1="1736.1844" y1="1370.8857" x2="1724.7567" y2="1546.1099">
					<stop  offset="0" style="stop-color:#4042E2"/>
					<stop  offset="0.3335" style="stop-color:#4547EC"/>
					<stop  offset="1" style="stop-color:#4F52FF"/>
				</linearGradient>
				<path class="st68" d="M1764.4,1415.7c0,0,7,6.8,2.3,14.3c0,0-55.3,9.8-70.3,5.3c0,0,3.1-7.1,20-15.2l-1.2,1
					c-1.6,1.2-0.7,3.7,1.3,3.6C1727.6,1424.1,1750.6,1422,1764.4,1415.7z"/>
			</g>
			<g>
				<linearGradient id="SVGID_64_" gradientUnits="userSpaceOnUse" x1="1916.1222" y1="1152.5535" x2="2003.2394" y2="1342.1613">
					<stop  offset="0" style="stop-color:#4042E2"/>
					<stop  offset="1" style="stop-color:#4F52FF"/>
				</linearGradient>
				<path class="st69" d="M1900.5,1203.5c0,0-28.2-26.9-42.1-44.7c-7.5-9.6-9.9-22.3-6.4-34c6.3-21.4,17.6-43.5,18.6-47
					c1.6-5.3,33.2-5.1,33.2-5.1s62.3,40.4,86.8,108.9l-27.5,8.6c0,0-16.3-27.3-32.3-44.6c0,0,27.8,36.7,28.8,51.8L1900.5,1203.5z"/>
				<linearGradient id="SVGID_65_" gradientUnits="userSpaceOnUse" x1="1873.0616" y1="1035.8236" x2="1906.3949" y2="1117.8237">
					<stop  offset="0" style="stop-color:#FF928E"/>
					<stop  offset="1" style="stop-color:#FEB3B1"/>
				</linearGradient>
				<path class="st70" d="M1866.7,1048.4c0.3,1.1,8.6,28.5,9.2,29.1c0.6,0.6,18.1,1.5,26.3-4.1l-16.5-39.3L1866.7,1048.4z"/>
				<linearGradient id="SVGID_66_" gradientUnits="userSpaceOnUse" x1="1830.0503" y1="1048.8088" x2="1881.3131" y2="1048.8088">
					<stop  offset="0" style="stop-color:#FF928E"/>
					<stop  offset="1" style="stop-color:#FEB3B1"/>
				</linearGradient>
				<path class="st71" d="M1831.2,1025.3c0,0-4.7,15.5,5.3,37.1c10,21.6,22.5,22.2,29.7,15.7c7.1-6.4,16.1-17.5,15.1-38
					C1880.2,1019.7,1837.9,1005.7,1831.2,1025.3z"/>
				
					<linearGradient id="SVGID_67_" gradientUnits="userSpaceOnUse" x1="3466.783" y1="2722.5486" x2="3345.2808" y2="2848.96" gradientTransform="matrix(0.6408 -0.7677 0.7677 0.6408 -2472.1111 1815.6113)">
					<stop  offset="0" style="stop-color:#09005D"/>
					<stop  offset="1" style="stop-color:#1A0F91"/>
				</linearGradient>
				<path class="st72" d="M1865.9,1040.6c0,0-17-28.8-35.2-7.6l-0.7,8c0,0-20-3.3-15.6-21.6c4.4-18.3,26.2-32.8,48.2-23.8
					c22,9,30.6,21.6,31.3,37.8c0.7,16.1-11.9,12-11.9,12s-3.6-11.5-9.5-12.9c-5.9-1.5-4.7,7.4-4.7,7.4L1865.9,1040.6z"/>
				<linearGradient id="SVGID_68_" gradientUnits="userSpaceOnUse" x1="1866.9784" y1="1034.0342" x2="1879.0718" y2="1034.0342">
					<stop  offset="0" style="stop-color:#FF928E"/>
					<stop  offset="1" style="stop-color:#FEB3B1"/>
				</linearGradient>
				<path class="st73" d="M1870.6,1040.4c0,0-8.8-14.8,1-16.5c9.8-1.7,7.6,14.4,6.2,20.3L1870.6,1040.4z"/>
				<linearGradient id="SVGID_69_" gradientUnits="userSpaceOnUse" x1="1964.9187" y1="1067.1141" x2="1924.2518" y2="1191.1144">
					<stop  offset="0" style="stop-color:#FF928E"/>
					<stop  offset="1" style="stop-color:#FEB3B1"/>
				</linearGradient>
				<path class="st74" d="M1842.9,1205.5l20.7-20l28.7,12.1c0,0,28.6,4.4,44.9,0c16.3-4.4,16.3-4.4,16.3-4.4l36.9-11.5l5.8,16.4
					c1.5,4.2,0,8.8-3.6,11.3c-3.2,2.3-6.9,4.8-9.3,5.8c-4.9,2.1-119.9-1.5-119.9-1.5L1842.9,1205.5z"/>
				
					<linearGradient id="SVGID_70_" gradientUnits="userSpaceOnUse" x1="3520.7834" y1="2774.4558" x2="3399.2803" y2="2900.8682" gradientTransform="matrix(0.6408 -0.7677 0.7677 0.6408 -2472.1111 1815.6113)">
					<stop  offset="0" style="stop-color:#09005D"/>
					<stop  offset="1" style="stop-color:#1A0F91"/>
				</linearGradient>
				<path class="st75" d="M1863.9,999.5c-5.1,0.4-8.4-5.4-5.7-9.8c8.5-14.2,26.6-31.7,60.2-17.3c37.9,16.3,58,23,65.7,19.2
					c5.1-2.5,10.8,1.8,9.3,7.3c-1.1,4-4.2,8.6-10.5,13.5C1934,1050.3,1894,997.2,1863.9,999.5z"/>
			</g>
			<g>
				
					<linearGradient id="SVGID_71_" gradientUnits="userSpaceOnUse" x1="1868.0535" y1="1363.708" x2="1771.1017" y2="1390.28" gradientTransform="matrix(0.9988 -4.940000e-02 4.940000e-02 0.9988 8.6714 -86.798)">
					<stop  offset="0" style="stop-color:#09005D"/>
					<stop  offset="1" style="stop-color:#1A0F91"/>
				</linearGradient>
				<path class="st76" d="M1921.4,1215c-0.1,0-0.2,0-0.3,0l-120.3-0.1c-3,0-5.4-2.4-5.4-5.4c0-3,2.4-5.4,5.4-5.4l120.3,0.1
					c3,0,5.4,2.4,5.4,5.4C1926.5,1212.5,1924.3,1214.8,1921.4,1215z"/>
				<linearGradient id="SVGID_72_" gradientUnits="userSpaceOnUse" x1="1810.6307" y1="1120.36" x2="1741.839" y2="1193.0686">
					<stop  offset="0" style="stop-color:#09005D"/>
					<stop  offset="1" style="stop-color:#1A0F91"/>
				</linearGradient>
				<path class="st77" d="M1692.7,1105.7h100.2c7.4,0,14.1,4.3,17.3,11l46.3,98.2h-124.5c-4.8,0-9-2.9-10.8-7.3l-35.9-90.9
					C1683.1,1111.4,1687,1105.7,1692.7,1105.7z"/>
				<path class="st3" d="M1763.3,1156.1c2.2,6.7,0.6,13.3-3.6,14.6c-4.2,1.3-9.3-3.1-11.4-9.8c-2.2-6.7-0.6-13.3,3.6-14.6
					C1756,1144.9,1761.1,1149.3,1763.3,1156.1z"/>
			</g>
			<g>
				<path class="st15" d="M2089.6,1219.4c0.3-1.4-0.1-2.8-1-3.8c-0.9-1.1-2.3-1.7-3.8-1.7h-502.1c-1.9,0-3.8,0.9-4.8,2.5
					c-1.1,1.5-1.2,3.5-0.4,5.1l5.4,11c1.2,2.5,3.9,4.1,6.9,4.1h491.5c2.8,0,5.1-1.8,5.7-4.4L2089.6,1219.4z"/>
				<g>
					<path class="st15" d="M1610.7,1452c-0.6,0-1.2-0.1-1.7-0.4c-2.2-1-3.3-3.6-2.3-5.9l92.4-219.8c1-2.3,3.6-3.3,5.8-2.4
						c2.2,1,3.3,3.6,2.3,5.9l-92.4,219.8C1614.1,1451,1612.5,1452,1610.7,1452z"/>
					<path class="st15" d="M1714.9,1452c-1.7,0-3.3-1-4.1-2.7l-92.4-219.8c-1-2.3,0.1-4.9,2.3-5.9c2.2-1,4.8,0.1,5.8,2.4l92.4,219.8
						c1,2.3-0.1,4.9-2.3,5.9C1716,1451.9,1715.4,1452,1714.9,1452z"/>
					<path class="st15" d="M1974.7,1452c-0.6,0-1.2-0.1-1.7-0.4c-2.2-1-3.3-3.6-2.3-5.9l92.4-219.8c1-2.3,3.6-3.3,5.8-2.4
						c2.2,1,3.3,3.6,2.3,5.9l-92.4,219.8C1978,1451,1976.4,1452,1974.7,1452z"/>
					<path class="st15" d="M2078.8,1452c-1.7,0-3.3-1-4.1-2.7l-92.4-219.8c-1-2.3,0.1-4.9,2.3-5.9c2.2-1,4.8,0.1,5.8,2.4l92.4,219.8
						c1,2.3-0.1,4.9-2.3,5.9C2080,1451.9,2079.4,1452,2078.8,1452z"/>
				</g>
			</g>
		</g>
	</g>
	<g>
		<g>
			<path class="st3" d="M1393.6,276.9c0,0,0.9,0.2,1.8,0.9c0.9,0.7,1.9,2,3.1,2.9c2.3,1.7,4.3,3.8,4.3,3.8l0,0
				c0.7,0.6,1.3,1.3,0.6,2.1c-0.6,0.8-1.6,0.8-2.4,0.2c0,0-2.2-1.9-4.5-3.6c-0.6-0.4-1.1-0.9-1.6-1.4c-0.6-0.4-0.8-0.7-1.2-1
				c-0.3-0.3-0.6-0.5-0.9-0.7c-0.3-0.2-0.4-0.3-0.4-0.3l-0.6-0.5c-0.8-0.5-1.1-1.4-0.5-2.2C1392,276.3,1392.9,276.3,1393.6,276.9
				L1393.6,276.9z"/>
			<path class="st3" d="M1412.9,290.1l9.7,6.2c0.8,0.5,1,1.6,0.4,2.5s-1.7,1.1-2.5,0.6l-9.7-6.2c-0.8-0.5-1-1.6-0.4-2.5
				C1411,289.9,1412.1,289.6,1412.9,290.1L1412.9,290.1z"/>
			<path class="st3" d="M1432.1,303.3l10.4,4.8c0.8,0.4,1.2,1.2,0.7,2.1c-0.5,0.9-1.6,1.1-2.4,0.7l-10.2-5.5c-0.8-0.4-1.3-1-0.8-1.9
				C1430.3,302.7,1431.2,303.3,1432.1,303.3L1432.1,303.3z"/>
			<path class="st3" d="M1452.4,315l11,3.2c0.9,0.4,1.4,0.8,1,1.7c-0.4,0.9-1.4,1.1-2.3,0.7l-10.6-4.6c-0.9-0.4-1.5-0.2-1.1-1.2
				C1450.7,313.9,1451.5,315,1452.4,315L1452.4,315z"/>
			<path class="st3" d="M1475,317.2l10.8,5.2c0.9,0.3,1.2,2.2,0.9,3.1c-0.3,0.9-1.4,1.9-2.3,1.7l-11.2-3.1c-0.9-0.3-1.1-2.9-0.7-3.9
				C1472.8,319.2,1474.1,317.2,1475,317.2L1475,317.2z"/>
			<path class="st3" d="M1496.9,328.5l11.4,1.3c0.9,0.2,1.4,0.7,1.2,1.6c-0.2,1-1.2,1.4-2.1,1.2l-11.5-2.2c-0.9-0.2-1.4-0.3-1.2-1.3
				C1494.9,328.2,1496.1,328.5,1496.9,328.5L1496.9,328.5z"/>
			<path class="st3" d="M1520.9,328.5l11.2,1.4c0.9,0,1.3,1.3,1.2,2.3c-0.1,1-1.1,1.9-2.1,1.9l-11.9-0.4c-1,0-1-1.7-0.9-2.7
				C1518.5,330,1518.5,330.7,1520.9,328.5L1520.9,328.5z"/>
			<path class="st3" d="M1543,330.7l12-1.3c0.9-0.1,1.8,0.5,1.8,1.5c0,1-0.7,1.8-1.7,1.8l-11.9,1.1c-1,0.1-1.8-0.4-1.8-1.4
				C1541.3,331.5,1542.1,330.7,1543,330.7L1543,330.7z"/>
			<path class="st3" d="M1566.5,328.5l12.1-1.8c0.9-0.1,1.8,0.4,1.9,1.4c0,0.9-0.6,1.8-1.6,1.9l-11.9,1.5c-0.9,0.1-1.9-0.3-2-1.3
				C1565,329.3,1566,328.1,1566.5,328.5L1566.5,328.5z"/>
			<path class="st3" d="M1590.3,326.2l11.9-3.1c0.9-0.2,1.8,0,1.9,1c0.1,0.9-0.5,1.6-1.5,1.8l-11.8,2.2c-0.9,0.2-1.9,0.3-2-0.6
				C1588.8,326.6,1589.5,326.2,1590.3,326.2L1590.3,326.2z"/>
			<path class="st3" d="M1613.9,319.5l11.7-3.3c0.9-0.3,1.8,0.3,2,1.2c0.2,0.9-0.4,1.9-1.3,2.1l-11.6,3.4c-0.9,0.3-1.8-0.3-2-1.2
				C1612.4,320.8,1613,319.5,1613.9,319.5L1613.9,319.5z"/>
			<path class="st3" d="M1636.8,312.7c0,0,2.8-1.6,5.6-2.8c2.7-1.4,5.3-2.9,5.3-2.9l0.1-0.1c0.8-0.4,1.8-0.2,2.2,0.7
				c0.4,0.8,0,1.8-0.9,2.3c0,0-2.8,1.4-5.6,2.9c-2.8,1.3-5.6,2.5-5.6,2.5c-0.9,0.4-1.8,0.3-2.1-0.5
				C1635.5,313.8,1635.9,312.7,1636.8,312.7L1636.8,312.7z"/>
			<path class="st3" d="M1658.4,300.2c0,0,0.2-0.6,1-1.3c0.4-0.4,0.8-0.9,1.2-1.4c0.5-0.5,0.9-1,1.4-1.5c1-1.1,1.9-2.2,2.6-3.1
				c0.7-0.9,1.1-1.5,1.1-1.5l0.1-0.1c0.6-0.8,1.6-1,2.3-0.5c0.7,0.5,0.8,1.5,0.3,2.3c0,0-0.5,0.7-1.2,1.6c-0.7,1-1.8,2.2-2.9,3.4
				c-0.6,0.6-1.2,1.2-1.7,1.7c-0.5,0.6-1.1,1-1.5,1.4c-0.9,0.8-1.5,1.3-1.5,1.3c-0.7,0.6-1.3,0.7-1.9,0S1658.4,301.1,1658.4,300.2
				L1658.4,300.2z"/>
			<path class="st3" d="M1672,281.4c0,0-0.7-1.1-0.5-2.2c0.1-0.6-0.2-1.4-0.2-2c0-0.3-0.2-0.7-0.1-1.1c0-0.1-0.1-0.5-0.1-0.4
				l-0.1-0.6c0-0.4,0-0.8-0.1-1.1c-0.1-0.3-0.1-0.6-0.2-0.9c-0.1-0.6-0.3-1.1-0.4-1.6c-0.3-0.9-0.6-1.6-0.6-1.6l0-0.1
				c-0.3-0.8,0.1-1.8,0.9-2.2c0.8-0.4,1.8-0.1,2.1,0.7c0,0,0.3,0.7,0.7,1.9c0.2,0.6,0.4,1.2,0.5,2c0.1,0.4,0.1,0.8,0.2,1.3
				c0,0.4,0,0.8,0.1,1.1l0,0.6c0,0.5,0,0.5,0,0.7c0,0.4-0.1,0.8-0.1,1.2c0,0.8-0.1,1.5-0.2,2c-0.2,1.1-0.3,1.9-0.3,1.9
				c-0.1,0.9-0.2,1.9-1.1,1.8C1671.6,282.8,1672,282.1,1672,281.4L1672,281.4z"/>
			<path class="st3" d="M1662.4,262.1c0,0-2-2.1-4.2-3.9c-2.4-1.4-4.6-3-4.6-3l-0.1-0.2c-0.7-0.4-0.8-1.4-0.3-2.2
				c0.5-0.8,0.5-1.9,2.4-0.6l0,0c0,0,2.5,1.5,5,3c2.3,1.8,4.5,3.5,4.5,3.5c0.7,0.5,0.5,1.9-0.1,2.6
				C1664.5,262.2,1663.1,262.7,1662.4,262.1L1662.4,262.1z"/>
			<path class="st3" d="M1643.5,249.7c0,0-0.8,0.6-1.8,0.4c-0.5-0.1-1.2,0.1-1.8,0.1c-0.6,0-1.3,0.1-2,0c-0.7-0.1-1.4,0.2-2,0.2
				c-0.6,0-1.2,0.1-1.7,0.3c-1,0.2-1.6,0.4-1.6,0.4l-0.3,0.1c-0.9,0.2-1.7-0.4-1.8-1.2c-0.1-0.9,0.5-1.7,1.3-1.9c0,0,0.8-0.2,2-0.5
				c0.6-0.2,1.3-0.2,2.1-0.3c0.8,0,1.6-0.2,2.4-0.1c0.8,0.1,1.6,0.1,2.3,0.2c0.8,0,1.3,0.2,1.9,0.3c1.1,0.2,1.8,0.3,1.8,0.3
				c0.9,0.1,1.4,0.3,1.2,1.2C1645.2,250,1644.3,249.7,1643.5,249.7L1643.5,249.7z"/>
			<path class="st3" d="M1626.9,257.8c0,0-2.1,0.5-2.8,1.5c-0.2,0.2-1.2,0.4-1.4,0.7c-0.2,0.3-0.7,0.5-0.8,0.8
				c-0.3,0.6-0.8,1.2-1,1.8c-0.2,0.7-0.5,1.4-0.7,2c-0.2,0.6-0.6,1.2-0.7,1.8c-0.2,1.1-0.6,1.7-0.6,1.7l0,0.1
				c-0.2,0.9-0.8,1.5-1.7,1.4c-0.9-0.1-1.3-0.9-1.1-1.8c0,0,0.2-0.8,0.5-2c0.1-0.6,0.3-1.3,0.5-2c0.2-0.7,0.5-1.5,0.7-2.3
				c0.3-0.8,0.7-1.6,1-2.3c0.3-0.8,0.7-1.3,1-1.8c0.6-1,1-1.6,1-1.6c0.5-0.8,3.2-0.9,3.9-0.5C1625.5,255.9,1626.9,257,1626.9,257.8
				L1626.9,257.8z"/>
			<path class="st3" d="M1620.2,279.9c0,0-0.3,3,0.1,5.9c0.5,2.8,0.8,5.7,0.8,5.7l-0.1,0.1c0.2,0.9-0.5,1.7-1.3,2
				c-0.9,0.2-1.7-0.3-1.9-1.1c0,0-0.6-3-1.1-6c-0.3-3-0.7-5.9-0.7-5.9c-0.1-0.9,1.1-1.7,2-1.9C1618.7,278.4,1620.2,279,1620.2,279.9
				L1620.2,279.9z"/>
			<path class="st3" d="M1624.8,301.5c0,0,0.7,3.2,1.8,5.9c1.2,2.6,2.2,5.4,2.2,5.4l-0.1,0.2c0.4,0.8,0,1.8-0.8,2.2
				c-0.8,0.4-1.7,0.2-2.1-0.6c0,0-1.3-2.7-2.6-5.4c-1.1-2.7-2.2-5.4-2.2-5.4c-0.3-0.8,0.5-2.3,1.3-2.7
				C1623.2,300.9,1624.1,301.5,1624.8,301.5L1624.8,301.5z"/>
			<path class="st3" d="M1633.8,321.7l7,10.1c0.5,0.7,0.4,2-0.3,2.5c-0.7,0.5-1.6,0.6-2.1-0.1l-6.7-9.3c-0.5-0.7-0.5-2.3,0.2-2.8
				C1632.6,321.5,1634.1,319.5,1633.8,321.7L1633.8,321.7z"/>
			<path class="st3" d="M1648.5,342l7.8,7.9c0.6,0.6,0.5,1.4-0.2,2c-0.6,0.6-1.6,0.5-2.2-0.1l-7.9-8.4c-0.6-0.6-0.4-1.2,0.2-1.8
				C1646.9,341,1647.7,342,1648.5,342L1648.5,342z"/>
			<path class="st3" d="M1664.5,357.4c0,0,0.5,0.5,1.3,1.2c0.8,0.7,1.9,1.6,3,2.6c2.2,1.9,4.3,3.8,4.3,3.8c0.6,0.5,0.6,1.5,0.1,2.2
				c-0.6,0.7-1.5,0.8-2.1,0.2c0,0-2.2-1.9-4.3-3.8c-1.1-1-2.2-1.9-3-2.6c-0.8-0.7-1.3-1.2-1.3-1.2c-0.6-0.5-0.6-1.5,0-2.2
				C1662.9,356.9,1663.9,356.8,1664.5,357.4L1664.5,357.4z"/>
			<path class="st3" d="M1681.9,372.2l9.1,7.1c0.6,0.5,0.7,1.5,0.2,2.1c-0.5,0.7-1.5,0.8-2.1,0.3l-9.1-7.1c-0.6-0.5-0.7-1.5-0.2-2.1
				C1680.3,371.9,1681.3,371.7,1681.9,372.2L1681.9,372.2z"/>
			<path class="st3" d="M1700.2,386l9.5,6.5c0.7,0.4,0.8,1.4,0.3,2.1c-0.5,0.7-1.4,0.9-2.1,0.5l-9.5-6.5c-0.7-0.5-0.8-1.4-0.3-2.1
				C1698.6,385.8,1699.6,385.6,1700.2,386L1700.2,386z"/>
			<path class="st3" d="M1719.4,398.6l10,5.8c0.7,0.4,0.9,1.3,0.4,2c-0.4,0.7-1.4,1-2,0.6l-10-5.8c-0.7-0.4-0.9-1.3-0.4-2
				C1717.8,398.5,1718.7,398.2,1719.4,398.6L1719.4,398.6z"/>
			<path class="st3" d="M1739.8,409.4l10.4,5c0.7,0.3,0.9,1.3,0.5,2c-0.4,0.8-1.3,1.1-2,0.8l-10.5-4.9c-0.7-0.3-0.9-1.3-0.5-2.1
				S1739.2,408.9,1739.8,409.4L1739.8,409.4z"/>
			<path class="st3" d="M1760.6,419.4l10.4,5c0.7,0.3,1,1.2,0.6,2c-0.4,0.7-1.3,1.1-2,0.7l-10.4-5c-0.7-0.3-1-1.2-0.6-2
				C1759,419.4,1759.8,419,1760.6,419.4L1760.6,419.4z"/>
			<path class="st3" d="M1781.3,429.6l10.2,5.4c0.7,0.4,0.9,1.2,0.5,2c-0.4,0.7-1.3,1-2,0.7l-10.2-5.4c-0.7-0.4-0.9-1.2-0.5-2
				C1779.8,429.5,1780.7,429.2,1781.3,429.6L1781.3,429.6z"/>
			<path class="st3" d="M1801.7,440.6l9.9,5.8c0.7,0.4,0.8,1.3,0.4,2c-0.4,0.7-1.3,1-2,0.6l-10-5.8c-0.7-0.4-0.8-1.3-0.4-2
				C1800.1,440.5,1801,440.2,1801.7,440.6L1801.7,440.6z"/>
			<path class="st3" d="M1821.5,452.5l9.7,6.3c0.6,0.4,0.8,1.3,0.3,2c-0.5,0.7-1.3,0.9-2,0.5l-9.7-6.3c-0.6-0.4-0.8-1.3-0.3-2
				C1819.9,452.3,1820.8,452.1,1821.5,452.5L1821.5,452.5z"/>
			<path class="st3" d="M1840.7,465.3l9.4,6.7c0.6,0.4,0.7,1.3,0.2,2c-0.5,0.7-1.4,0.8-2,0.4l-9.4-6.7c-0.6-0.4-0.7-1.3-0.2-2
				C1839.2,465.1,1840.1,464.9,1840.7,465.3L1840.7,465.3z"/>
			<path class="st3" d="M1859.3,479l9,7.2c0.6,0.5,0.6,1.3,0.1,2c-0.5,0.6-1.4,0.8-1.9,0.3l-9-7.1c-0.6-0.5-0.6-1.3-0.1-2
				C1857.8,478.7,1858.7,478.6,1859.3,479L1859.3,479z"/>
			<path class="st3" d="M1877.2,493.6l8.6,7.6c0.5,0.5,0.6,1.4,0.1,2c-0.5,0.6-1.4,0.7-1.9,0.2l-8.7-7.6c-0.6-0.5-0.6-1.4-0.1-2
				C1875.8,493.2,1876.6,493.1,1877.2,493.6L1877.2,493.6z"/>
			<path class="st3" d="M1894.3,509.1l8.2,8c0.5,0.5,0.5,1.4,0,1.9c-0.5,0.6-1.4,0.6-1.9,0.1l-8.3-8c-0.5-0.5-0.5-1.4,0-2
				C1892.9,508.6,1893.8,508.6,1894.3,509.1L1894.3,509.1z"/>
			<path class="st3" d="M1910.6,525.4l7.8,8.5c0.5,0.5,0.4,1.4-0.1,1.9c-0.6,0.5-1.4,0.5-1.9,0l-7.8-8.5c-0.5-0.5-0.4-1.4,0.1-1.9
				C1909.3,524.9,1910.1,524.9,1910.6,525.4L1910.6,525.4z"/>
			<path class="st3" d="M1926,542.7l7.3,8.9c0.5,0.5,0.3,1.4-0.2,1.9c-0.6,0.5-1.4,0.5-1.9-0.1l-7.3-8.9c-0.5-0.6-0.4-1.4,0.2-1.9
				C1924.8,542.1,1925.6,542.1,1926,542.7L1926,542.7z"/>
			<path class="st3" d="M1940.5,560.8l6.8,9.3c0.4,0.6,0.3,1.4-0.3,1.9c-0.6,0.5-1.4,0.4-1.8-0.2l-6.8-9.3c-0.4-0.6-0.3-1.4,0.3-1.9
				C1939.3,560.1,1940.1,560.2,1940.5,560.8L1940.5,560.8z"/>
			<path class="st3" d="M1953.9,579.7l6.3,9.8c0.4,0.6,0.2,1.4-0.4,1.8c-0.6,0.4-1.4,0.3-1.8-0.3l-6.3-9.7c-0.4-0.6-0.2-1.4,0.4-1.9
				C1952.7,579,1953.5,579.2,1953.9,579.7L1953.9,579.7z"/>
			<path class="st3" d="M1966.2,599.5c0,0,1.4,2.5,2.9,5.1c0.7,1.2,1.4,2.6,1.9,3.5c0.5,1,0.9,1.6,0.9,1.6c0.3,0.6,0.1,1.4-0.5,1.8
				c-0.6,0.4-1.4,0.2-1.7-0.4c0,0-0.3-0.6-0.9-1.6c-0.5-1-1.2-2.2-1.9-3.5c-1.4-2.5-2.9-5.1-2.9-5.1c-0.3-0.6-0.1-1.4,0.5-1.8
				C1965.1,598.7,1965.9,598.9,1966.2,599.5L1966.2,599.5z"/>
			<path class="st3" d="M1977.2,620.1l5,10.6c0.3,0.6,0,1.4-0.6,1.8c-0.6,0.3-1.4,0.1-1.7-0.5l-5-10.5c-0.3-0.6,0-1.4,0.6-1.8
				C1976.1,619.3,1976.9,619.5,1977.2,620.1L1977.2,620.1z"/>
			<path class="st3" d="M1986.8,641.5l4.2,10.9c0.2,0.6-0.1,1.4-0.7,1.7c-0.6,0.3-1.4,0-1.6-0.6l-4.3-10.9c-0.3-0.6,0.1-1.4,0.7-1.7
				C1985.9,640.6,1986.6,640.9,1986.8,641.5L1986.8,641.5z"/>
			<path class="st3" d="M1995,663.6l3.4,11.3c0.2,0.7-0.2,1.4-0.8,1.6c-0.7,0.3-1.4-0.1-1.6-0.7l-3.5-11.3c-0.2-0.7,0.2-1.4,0.8-1.6
				C1994.1,662.6,1994.8,662.9,1995,663.6L1995,663.6z"/>
			<path class="st3" d="M2001.4,686.4l2.5,11.6c0.1,0.7-0.3,1.4-0.9,1.6c-0.7,0.2-1.3-0.2-1.5-0.8l-2.6-11.6
				c-0.1-0.7,0.3-1.4,0.9-1.6C2000.6,685.3,2001.3,685.7,2001.4,686.4L2001.4,686.4z"/>
			<path class="st3" d="M2006.1,709.8l1.6,11.8c0.1,0.7-0.4,1.3-1,1.5c-0.7,0.1-1.3-0.3-1.4-0.9l-1.6-11.8c-0.1-0.7,0.4-1.3,1-1.5
				C2005.4,708.7,2006,709.1,2006.1,709.8L2006.1,709.8z"/>
			<path class="st3" d="M2008.7,733.6l0.5,12c0,0.7-0.5,1.3-1.2,1.4c-0.7,0.1-1.2-0.4-1.3-1.1l-0.5-12c0-0.7,0.5-1.3,1.2-1.4
				C2008.1,732.5,2008.7,732.9,2008.7,733.6L2008.7,733.6z"/>
			<path class="st3" d="M2009.2,757.8l-0.5,10c0,0.7-0.6,1.2-1.2,1.2c-0.7,0-1.2-0.5-1.1-1.2l0.5-10c0-0.7,0.6-1.2,1.3-1.2
				C2008.7,756.6,2009.2,757.1,2009.2,757.8L2009.2,757.8z"/>
		</g>
		<g>
			<polygon class="st15" points="1376,234.1 1371.1,274.7 1345.7,253.9 			"/>
			<path class="st3" d="M1196.3,188.7l98,109.4c1.9,2.1,4.5,3.3,7.3,3.4c2.8,0.1,5.5-0.9,7.6-2.9l106.2-102.5c1.2-1.2,1.6-3,1-4.5
				c-0.6-1.6-2.2-2.6-3.8-2.6L1196.3,188.7z"/>
			<polygon class="st15" points="1376,234.1 1196.3,188.7 1358.9,250.7 1358,262 			"/>
			<polygon class="st15" points="1348.7,260.5 1371.1,274.7 1358.9,250.7 			"/>
		</g>
	</g>
	<g>
		<g>
			<path class="st3" d="M1653,652.4c31,11.3,106.2,31,205.5,4.6c6.7-1.8,13.7,1.3,16.8,7.5c9.2,18.3,27.4,56.1,35.9,82.4
				c2.5,7.7-2.2,15.9-10.1,17.6c-39.5,8.5-155.6,26-240.1-38.3c-4.1-3.1-6.9-7.5-8-12.5l-11.7-50.9
				C1639.8,655.9,1646.4,650,1653,652.4z"/>
			<linearGradient id="SVGID_73_" gradientUnits="userSpaceOnUse" x1="1738.0732" y1="721.3085" x2="1770.8657" y2="721.3085">
				<stop  offset="0" style="stop-color:#DAE3FE"/>
				<stop  offset="1" style="stop-color:#E9EFFD"/>
			</linearGradient>
			<path class="st78" d="M1767.3,760.6c-1.5,0-2.8-0.9-3.3-2.4l-25.7-71.5c-0.7-1.8,0.3-3.9,2.1-4.5c1.8-0.7,3.9,0.3,4.5,2.1
				l25.7,71.5c0.7,1.8-0.3,3.9-2.1,4.5C1768.1,760.6,1767.7,760.6,1767.3,760.6z"/>
			<linearGradient id="SVGID_74_" gradientUnits="userSpaceOnUse" x1="1763.762" y1="724.543" x2="1809.0824" y2="724.543">
				<stop  offset="0" style="stop-color:#DAE3FE"/>
				<stop  offset="1" style="stop-color:#E9EFFD"/>
			</linearGradient>
			<path class="st79" d="M1805.5,767.6c-1.3,0-2.6-0.7-3.2-2l-38.2-79c-0.9-1.8-0.1-3.9,1.7-4.7c1.8-0.8,3.9-0.1,4.7,1.7l38.2,79
				c0.9,1.8,0.1,3.9-1.7,4.7C1806.6,767.5,1806.1,767.6,1805.5,767.6z"/>
			<linearGradient id="SVGID_75_" gradientUnits="userSpaceOnUse" x1="1789.823" y1="721.8824" x2="1835.2421" y2="721.8824">
				<stop  offset="0" style="stop-color:#DAE3FE"/>
				<stop  offset="1" style="stop-color:#E9EFFD"/>
			</linearGradient>
			<path class="st80" d="M1831.7,767c-1.3,0-2.6-0.8-3.2-2.1l-38.3-83.1c-0.8-1.8,0-3.9,1.7-4.7c1.8-0.8,3.9,0,4.7,1.7l38.3,83.1
				c0.8,1.8,0,3.9-1.7,4.7C1832.7,766.9,1832.2,767,1831.7,767z"/>
			<linearGradient id="SVGID_76_" gradientUnits="userSpaceOnUse" x1="1820.4396" y1="717.4177" x2="1855.7675" y2="717.4177">
				<stop  offset="0" style="stop-color:#DAE3FE"/>
				<stop  offset="1" style="stop-color:#E9EFFD"/>
			</linearGradient>
			<path class="st81" d="M1852.2,762.4c-1.5,0-2.9-0.9-3.4-2.4l-28.2-82.9c-0.6-1.9,0.4-3.9,2.2-4.5c1.9-0.6,3.9,0.4,4.5,2.2
				l28.2,82.9c0.6,1.9-0.4,3.9-2.2,4.5C1853,762.4,1852.6,762.4,1852.2,762.4z"/>
			<linearGradient id="SVGID_77_" gradientUnits="userSpaceOnUse" x1="1843.7422" y1="712.4695" x2="1884.6749" y2="712.4695">
				<stop  offset="0" style="stop-color:#DAE3FE"/>
				<stop  offset="1" style="stop-color:#E9EFFD"/>
			</linearGradient>
			<path class="st82" d="M1881.1,760.6c-1.4,0-2.8-0.9-3.3-2.3l-33.8-89.2c-0.7-1.8,0.2-3.9,2.1-4.6c1.8-0.7,3.9,0.2,4.6,2.1
				l33.8,89.2c0.7,1.8-0.2,3.9-2.1,4.6C1882,760.6,1881.5,760.6,1881.1,760.6z"/>
		</g>
		<g>
			<path class="st3" d="M1959.4,679.1l30.5,62.2c2.3,4.7,7.3,7.4,12.5,6.8c29.8-3.7,129.4-20.4,206.2-85.6c5.1-4.3,7-11.3,5-17.7
				l-37.1-115.4c-2.5-7.7-10.8-12.1-18.5-9.7c-22.4,7-67,26.4-105.3,77.1c-23.4,30.9-64.5,52.5-86.1,62.3
				C1959,662.5,1955.7,671.6,1959.4,679.1z"/>
			<linearGradient id="SVGID_78_" gradientUnits="userSpaceOnUse" x1="2025.3461" y1="679.2801" x2="2073.2971" y2="679.2801">
				<stop  offset="0" style="stop-color:#DAE3FE"/>
				<stop  offset="1" style="stop-color:#E9EFFD"/>
			</linearGradient>
			<path class="st83" d="M2069.7,722.5c-1.3,0-2.5-0.7-3.2-1.9l-40.8-79.3c-0.9-1.7-0.2-3.9,1.5-4.8c1.7-0.9,3.9-0.2,4.8,1.5
				l40.8,79.3c0.9,1.7,0.2,3.9-1.5,4.8C2070.9,722.4,2070.3,722.5,2069.7,722.5z"/>
			<linearGradient id="SVGID_79_" gradientUnits="userSpaceOnUse" x1="2043.2223" y1="667.8428" x2="2100.5576" y2="667.8428">
				<stop  offset="0" style="stop-color:#DAE3FE"/>
				<stop  offset="1" style="stop-color:#E9EFFD"/>
			</linearGradient>
			<path class="st84" d="M2097,716c-1.2,0-2.4-0.7-3.1-1.8l-50.2-89.2c-1-1.7-0.4-3.9,1.4-4.8c1.7-1,3.9-0.4,4.8,1.4l50.2,89.2
				c1,1.7,0.4,3.9-1.4,4.8C2098.2,715.9,2097.6,716,2097,716z"/>
			<linearGradient id="SVGID_80_" gradientUnits="userSpaceOnUse" x1="2093.9009" y1="674.0898" x2="2123.1375" y2="674.0898">
				<stop  offset="0" style="stop-color:#DAE3FE"/>
				<stop  offset="1" style="stop-color:#E9EFFD"/>
			</linearGradient>
			<path class="st85" d="M2119.6,703.8c-1.4,0-2.7-0.8-3.3-2.2l-22.1-52.4c-0.8-1.8,0.1-3.9,1.9-4.7c1.8-0.8,3.9,0.1,4.7,1.9
				l22.1,52.4c0.8,1.8-0.1,3.9-1.9,4.7C2120.5,703.7,2120,703.8,2119.6,703.8z"/>
			<linearGradient id="SVGID_81_" gradientUnits="userSpaceOnUse" x1="2101.1758" y1="624.6035" x2="2152.7852" y2="624.6035">
				<stop  offset="0" style="stop-color:#DAE3FE"/>
				<stop  offset="1" style="stop-color:#E9EFFD"/>
			</linearGradient>
			<path class="st86" d="M2149.2,685.4c-1.4,0-2.8-0.9-3.3-2.3l-44.5-114.5c-0.7-1.8,0.2-3.9,2-4.6c1.8-0.7,3.9,0.2,4.6,2
				l44.5,114.5c0.7,1.8-0.2,3.9-2,4.6C2150.1,685.3,2149.7,685.4,2149.2,685.4z"/>
			<linearGradient id="SVGID_82_" gradientUnits="userSpaceOnUse" x1="2127.2146" y1="607.197" x2="2170.5376" y2="607.197">
				<stop  offset="0" style="stop-color:#DAE3FE"/>
				<stop  offset="1" style="stop-color:#E9EFFD"/>
			</linearGradient>
			<path class="st87" d="M2167,673.2c-1.5,0-3-1-3.4-2.6l-36.2-125c-0.5-1.9,0.5-3.9,2.4-4.4c1.9-0.5,3.9,0.5,4.4,2.4l36.2,125
				c0.5,1.9-0.5,3.9-2.4,4.4C2167.6,673.2,2167.3,673.2,2167,673.2z"/>
		</g>
		<g>
			<path class="st1" d="M2104.6,657.5c8.6,14.8,26.9,48.1,28.4,67.1c0.3,3.3,2.8,5.9,6.1,6.1c30,2.2,161,6.3,218.8-83.3
				c1-1.6,1.3-3.6,0.7-5.5c-5.3-17.2-33.7-106-64.7-154.2c-2.5-3.9-8.2-4-10.9-0.2c-21.5,30.1-102.5,138-174.6,160.4
				C2104.3,649.1,2102.5,653.8,2104.6,657.5z"/>
			<linearGradient id="SVGID_83_" gradientUnits="userSpaceOnUse" x1="2273.415" y1="590.5292" x2="2333.2961" y2="590.5292">
				<stop  offset="0" style="stop-color:#DAE3FE"/>
				<stop  offset="1" style="stop-color:#E9EFFD"/>
			</linearGradient>
			<path class="st88" d="M2329.7,655.4c-1.8,0-3.3-1.3-3.5-3.1c-5.9-48-51.8-120.5-52.2-121.2c-1.1-1.7-0.6-3.8,1.1-4.9
				c1.7-1,3.8-0.6,4.9,1.1c1.9,3,47.2,74.5,53.3,124.2c0.2,1.9-1.1,3.7-3.1,4C2330,655.4,2329.9,655.4,2329.7,655.4z"/>
			<linearGradient id="SVGID_84_" gradientUnits="userSpaceOnUse" x1="2257.6389" y1="605.3498" x2="2312.4163" y2="605.3498">
				<stop  offset="0" style="stop-color:#DAE3FE"/>
				<stop  offset="1" style="stop-color:#E9EFFD"/>
			</linearGradient>
			<path class="st89" d="M2308.9,664.7c-1.6,0-3.1-1.1-3.5-2.8c-7.5-34.7-46.9-109.9-47.3-110.7c-0.9-1.7-0.2-3.9,1.5-4.8
				c1.7-0.9,3.9-0.2,4.8,1.5c1.6,3.1,40.3,76.8,48,112.5c0.4,1.9-0.8,3.8-2.7,4.2C2309.4,664.7,2309.1,664.7,2308.9,664.7z"/>
			<linearGradient id="SVGID_85_" gradientUnits="userSpaceOnUse" x1="2269.0134" y1="659.0347" x2="2292.6169" y2="659.0347">
				<stop  offset="0" style="stop-color:#DAE3FE"/>
				<stop  offset="1" style="stop-color:#E9EFFD"/>
			</linearGradient>
			<path class="st90" d="M2289.1,681.1c-1.4,0-2.7-0.8-3.2-2.1l-16.5-37c-0.8-1.8,0-3.9,1.8-4.7c1.8-0.8,3.9,0,4.7,1.8l16.5,37
				c0.8,1.8,0,3.9-1.8,4.7C2290,681,2289.6,681.1,2289.1,681.1z"/>
			<linearGradient id="SVGID_86_" gradientUnits="userSpaceOnUse" x1="2252.4802" y1="668.7099" x2="2271.855" y2="668.7099">
				<stop  offset="0" style="stop-color:#DAE3FE"/>
				<stop  offset="1" style="stop-color:#E9EFFD"/>
			</linearGradient>
			<path class="st91" d="M2268.3,689.1c-1.4,0-2.8-0.9-3.3-2.3l-12.3-33.7c-0.7-1.8,0.3-3.9,2.1-4.6c1.8-0.7,3.9,0.3,4.6,2.1
				l12.3,33.7c0.7,1.8-0.3,3.9-2.1,4.6C2269.1,689,2268.7,689.1,2268.3,689.1z"/>
		</g>
		<g>
			<path class="st3" d="M1511.5,552c25.5,16.2,102.6,61.8,163.4,63.2c2.4,0.1,4.4,1.6,5.2,3.9l28.8,89.7c1.3,4-2.1,8-6.3,7.3
				c-33.8-5.5-152.9-28.9-198.6-89.2c-0.7-1-1.1-2.2-1.1-3.4v-66.7C1502.8,552.3,1507.7,549.6,1511.5,552z"/>
			<linearGradient id="SVGID_87_" gradientUnits="userSpaceOnUse" x1="1660.1516" y1="660.725" x2="1688.2181" y2="660.725">
				<stop  offset="0" style="stop-color:#DAE3FE"/>
				<stop  offset="1" style="stop-color:#E9EFFD"/>
			</linearGradient>
			<path class="st92" d="M1684.7,700.7c-1.5,0-3-1-3.4-2.6l-21-72.9c-0.5-1.9,0.5-3.9,2.4-4.4c1.9-0.5,3.9,0.5,4.4,2.4l21,72.9
				c0.5,1.9-0.5,3.9-2.4,4.4C1685.3,700.7,1685,700.7,1684.7,700.7z"/>
			<linearGradient id="SVGID_88_" gradientUnits="userSpaceOnUse" x1="1641.3147" y1="657.6891" x2="1665.1104" y2="657.6891">
				<stop  offset="0" style="stop-color:#DAE3FE"/>
				<stop  offset="1" style="stop-color:#E9EFFD"/>
			</linearGradient>
			<path class="st93" d="M1661.6,698.2c-1.6,0-3.1-1.1-3.5-2.8l-16.7-73.9c-0.4-1.9,0.8-3.8,2.7-4.2c1.9-0.4,3.8,0.8,4.2,2.7
				l16.7,73.9c0.4,1.9-0.8,3.8-2.7,4.2C1662.1,698.1,1661.8,698.2,1661.6,698.2z"/>
			<linearGradient id="SVGID_89_" gradientUnits="userSpaceOnUse" x1="1621.1891" y1="633.6739" x2="1635.949" y2="633.6739">
				<stop  offset="0" style="stop-color:#DAE3FE"/>
				<stop  offset="1" style="stop-color:#E9EFFD"/>
			</linearGradient>
			<path class="st94" d="M1632.4,655.1c-1.6,0-3-1.1-3.4-2.7c-3-12.3-8-33.5-7.7-36.9c0.2-2,1.9-3.4,3.8-3.2
				c1.9,0.2,3.4,1.8,3.2,3.8c0,2.5,3.9,19.5,7.6,34.6c0.5,1.9-0.7,3.8-2.6,4.3C1633,655,1632.7,655.1,1632.4,655.1z"/>
			<linearGradient id="SVGID_90_" gradientUnits="userSpaceOnUse" x1="1541.8827" y1="613.2427" x2="1549.7844" y2="613.2427">
				<stop  offset="0" style="stop-color:#DAE3FE"/>
				<stop  offset="1" style="stop-color:#E9EFFD"/>
			</linearGradient>
			<path class="st95" d="M1546.2,649.5c-1.9,0-3.5-1.5-3.5-3.5c-1.8-63.5-0.1-66.3,0.5-67.3c1-1.7,3.2-2.2,4.9-1.2
				c1.5,0.9,2.1,2.8,1.4,4.4c-0.9,4.1-0.5,35.8,0.3,63.9c0.1,2-1.5,3.6-3.4,3.6C1546.3,649.5,1546.3,649.5,1546.2,649.5z
				 M1549.3,582.4C1549.3,582.4,1549.3,582.4,1549.3,582.4C1549.3,582.4,1549.3,582.4,1549.3,582.4z"/>
		</g>
	</g>
</g>
</svg>
